<?xml version="1.0" standalone="no"?>
<!DOCTYPE svg PUBLIC "-//W3C//DTD SVG 1.1//EN"
"http://www.w3.org/Graphics/SVG/1.1/DTD/svg11.dtd">
<svg width="279.689" height="219.67" viewBox="0 0 5826.85 4576.46" version="1.1"
xmlns="http://www.w3.org/2000/svg"
xmlns:xlink="http://www.w3.org/1999/xlink">
<circle cx="403.583" cy="3683.9" r="19.685" style=""/>
<circle cx="403.583" cy="3329.57" r="19.685" style=""/>
<circle cx="923.268" cy="3329.57" r="19.685" style=""/>
<circle cx="923.268" cy="3683.9" r="19.685" style=""/>
<circle cx="1928.42" cy="4192.28" r="19.685" style=""/>
<circle cx="2128.42" cy="4192.28" r="19.685" style=""/>
<circle cx="2328.42" cy="4192.28" r="19.685" style=""/>
<circle cx="2528.42" cy="4192.28" r="19.685" style=""/>
<circle cx="3048.46" cy="4198.11" r="19.685" style=""/>
<circle cx="3248.46" cy="4198.11" r="19.685" style=""/>
<circle cx="3448.46" cy="4198.11" r="19.685" style=""/>
<circle cx="3716.57" cy="3741.77" r="19.685" style=""/>
<circle cx="3819.72" cy="3454.37" r="19.685" style=""/>
<circle cx="3819.72" cy="3254.37" r="19.685" style=""/>
<circle cx="3819.72" cy="3054.37" r="19.685" style=""/>
<circle cx="3819.72" cy="2854.37" r="19.685" style=""/>
<circle cx="3819.72" cy="2654.37" r="19.685" style=""/>
<circle cx="4113.43" cy="2356.73" r="19.685" style=""/>
<circle cx="4857.83" cy="2425.52" r="19.685" style=""/>
<circle cx="5044.7" cy="2875.96" r="19.685" style=""/>
<circle cx="4903.58" cy="3329.57" r="19.685" style=""/>
<circle cx="4903.58" cy="3683.9" r="19.685" style=""/>
<circle cx="5423.27" cy="3683.9" r="19.685" style=""/>
<circle cx="5423.27" cy="3329.57" r="19.685" style=""/>
<circle cx="5241.55" cy="2875.96" r="19.685" style=""/>
<circle cx="5457.83" cy="2425.52" r="19.685" style=""/>
<circle cx="5439.68" cy="1790.84" r="19.685" style=""/>
<circle cx="5024.27" cy="1270.89" r="19.685" style=""/>
<circle cx="4903.58" cy="783.898" r="19.685" style=""/>
<circle cx="4903.58" cy="429.567" r="19.685" style=""/>
<circle cx="5423.27" cy="429.567" r="19.685" style=""/>
<circle cx="5423.27" cy="783.898" r="19.685" style=""/>
<circle cx="5221.12" cy="1270.89" r="19.685" style=""/>
<circle cx="4839.68" cy="1790.84" r="19.685" style=""/>
<circle cx="4313.21" cy="1648.71" r="19.685" style=""/>
<circle cx="4313.21" cy="1451.86" r="19.685" style=""/>
<circle cx="3716.57" cy="371.693" r="19.685" style=""/>
<circle cx="3819.72" cy="654.37" r="19.685" style=""/>
<circle cx="3819.72" cy="854.37" r="19.685" style=""/>
<circle cx="3819.72" cy="1054.37" r="19.685" style=""/>
<circle cx="3819.72" cy="1254.37" r="19.685" style=""/>
<circle cx="3819.72" cy="1454.37" r="19.685" style=""/>
<circle cx="3819.72" cy="1654.37" r="19.685" style=""/>
<circle cx="3819.72" cy="1854.37" r="19.685" style=""/>
<circle cx="3819.72" cy="2054.37" r="19.685" style=""/>
<circle cx="3819.72" cy="2254.37" r="19.685" style=""/>
<circle cx="3819.72" cy="2454.37" r="19.685" style=""/>
<circle cx="3313.43" cy="2356.73" r="19.685" style=""/>
<circle cx="2863.43" cy="2356.73" r="19.685" style=""/>
<circle cx="2863.43" cy="3106.73" r="19.685" style=""/>
<circle cx="2110.28" cy="3741.77" r="19.685" style=""/>
<circle cx="2019.72" cy="3454.37" r="19.685" style=""/>
<circle cx="2019.72" cy="3254.37" r="19.685" style=""/>
<circle cx="2019.72" cy="3054.37" r="19.685" style=""/>
<circle cx="2019.72" cy="2854.37" r="19.685" style=""/>
<circle cx="2019.72" cy="2654.37" r="19.685" style=""/>
<circle cx="2019.72" cy="2454.37" r="19.685" style=""/>
<circle cx="2019.72" cy="2254.37" r="19.685" style=""/>
<circle cx="2019.72" cy="2054.37" r="19.685" style=""/>
<circle cx="2019.72" cy="1854.37" r="19.685" style=""/>
<circle cx="2019.72" cy="1654.37" r="19.685" style=""/>
<circle cx="2019.72" cy="1454.37" r="19.685" style=""/>
<circle cx="2019.72" cy="1254.37" r="19.685" style=""/>
<circle cx="2019.72" cy="1054.37" r="19.685" style=""/>
<circle cx="2019.72" cy="854.37" r="19.685" style=""/>
<circle cx="2019.72" cy="654.37" r="19.685" style=""/>
<circle cx="2110.28" cy="371.693" r="19.685" style=""/>
<circle cx="923.268" cy="429.567" r="19.685" style=""/>
<circle cx="923.268" cy="783.898" r="19.685" style=""/>
<circle cx="403.583" cy="429.567" r="19.685" style=""/>
<circle cx="403.583" cy="783.898" r="19.685" style=""/>
<circle cx="761.85" cy="1306.73" r="19.685" style=""/>
<circle cx="565" cy="1306.73" r="19.685" style=""/>
<circle cx="963.425" cy="1806.73" r="19.685" style=""/>
<circle cx="363.425" cy="1806.73" r="19.685" style=""/>
<circle cx="363.425" cy="2406.73" r="19.685" style=""/>
<circle cx="565" cy="2856.73" r="19.685" style=""/>
<circle cx="761.85" cy="2856.73" r="19.685" style=""/>
<circle cx="963.425" cy="2406.73" r="19.685" style=""/>
</svg>
