<?xml version="1.0" standalone="no"?>
<!DOCTYPE svg PUBLIC "-//W3C//DTD SVG 1.1//EN"
"http://www.w3.org/Graphics/SVG/1.1/DTD/svg11.dtd">
<svg width="279.689" height="219.67" viewBox="0 0 5826.85 4576.46" version="1.1"
xmlns="http://www.w3.org/2000/svg"
xmlns:xlink="http://www.w3.org/1999/xlink">
<g fill-rule="evenodd"><path d="M 193.74,3556.73 L 193.74,3106.73 L 194.055,3103.22 L 194.991,3099.83 L 196.517,3096.65 L 198.585,3093.8 L 201.128,3091.36 L 451.128,2891.36 L 454.732,2889.07 L 505.945,2863.86 L 505.945,2825.51 L 349.506,2669.08 L 347.058,2666.09 L 345.239,2662.69 L 344.118,2659 L 343.74,2655.16 L 343.74,2470.73 L 336.917,2470.73 L 299.427,2433.24 L 299.427,2380.22 L 336.917,2342.73 L 389.933,2342.73 L 427.423,2380.22 L 427.423,2433.24 L 389.933,2470.73 L 383.11,2470.73 L 383.11,2647 L 533.785,2797.68 L 624.055,2797.68 L 624.055,2915.79 L 505.945,2915.79 L 505.945,2907.74 L 474.045,2923.45 L 233.11,3116.19 L 233.11,3548.58 L 326.743,3642.21 L 335.521,3637.14 L 345.697,3633.83 L 356.339,3632.72 L 450.827,3632.72 L 461.468,3633.83 L 471.644,3637.14 L 480.91,3642.49 L 488.862,3649.65 L 495.151,3658.31 L 497.78,3664.21 L 829.071,3664.21 L 831.699,3658.31 L 837.989,3649.65 L 845.94,3642.49 L 855.206,3637.14 L 865.382,3633.83 L 876.024,3632.72 L 970.512,3632.72 L 981.153,3633.83 L 991.329,3637.14 L 1000.6,3642.49 L 1008.55,3649.65 L 1014.84,3658.31 L 1019.19,3668.08 L 1021.41,3678.55 L 1021.41,3689.25 L 1019.19,3699.71 L 1014.84,3709.49 L 1008.55,3718.14 L 1000.6,3725.3 L 991.329,3730.65 L 981.153,3733.96 L 970.512,3735.08 L 876.024,3735.08 L 865.382,3733.96 L 855.206,3730.65 L 845.94,3725.3 L 837.989,3718.14 L 831.699,3709.49 L 829.07,3703.58 L 497.781,3703.58 L 495.151,3709.49 L 488.862,3718.14 L 480.91,3725.3 L 471.644,3730.65 L 461.468,3733.96 L 450.827,3735.08 L 356.339,3735.08 L 345.697,3733.96 L 335.521,3730.65 L 326.255,3725.3 L 318.304,3718.14 L 312.014,3709.49 L 307.662,3699.71 L 305.438,3689.25 L 305.438,3678.55 L 305.782,3676.93 L 199.506,3570.65 L 197.058,3567.67 L 195.239,3564.27 L 194.118,3560.57 L 193.74,3556.73 z " style="fill-opacity:1.000000;fill:rgb(103,198,105);stroke:rgb(0,0,0);stroke-width:2"/></g>
<g fill-rule="evenodd"><path d="M 299.427,1833.24 L 299.427,1780.22 L 336.917,1742.73 L 343.74,1742.73 L 343.74,1406.73 L 344.076,1403.11 L 345.073,1399.61 L 346.696,1396.36 L 348.891,1393.46 L 351.582,1391.01 L 354.677,1389.1 L 505.945,1314.06 L 505.945,1305.32 L 396.583,1263.71 L 393.047,1261.94 L 389.937,1259.5 L 387.377,1256.49 L 385.471,1253.03 L 384.295,1249.25 L 383.898,1245.32 L 383.898,835.079 L 356.339,835.079 L 345.697,833.96 L 335.521,830.654 L 326.255,825.304 L 318.304,818.144 L 312.014,809.488 L 307.662,799.713 L 305.438,789.248 L 305.438,778.548 L 307.662,768.082 L 312.014,758.307 L 318.304,749.651 L 326.255,742.491 L 335.521,737.141 L 345.697,733.835 L 356.339,732.717 L 450.827,732.717 L 461.468,733.835 L 471.644,737.141 L 480.91,742.491 L 488.862,749.651 L 495.151,758.307 L 497.78,764.213 L 829.07,764.213 L 831.699,758.307 L 837.989,749.651 L 845.94,742.491 L 855.206,737.141 L 865.382,733.835 L 876.024,732.717 L 970.512,732.717 L 981.153,733.835 L 991.329,737.141 L 1000.6,742.491 L 1008.55,749.651 L 1014.84,758.307 L 1019.19,768.082 L 1021.41,778.548 L 1021.41,789.248 L 1019.19,799.713 L 1014.84,809.488 L 1008.55,818.144 L 1000.6,825.304 L 991.329,830.654 L 981.153,833.96 L 970.512,835.079 L 876.024,835.079 L 865.382,833.96 L 855.206,830.654 L 845.94,825.304 L 837.989,818.144 L 831.699,809.488 L 829.07,803.583 L 497.78,803.583 L 495.151,809.488 L 488.862,818.144 L 480.91,825.304 L 471.644,830.654 L 461.468,833.96 L 450.827,835.079 L 423.268,835.079 L 423.268,1231.74 L 505.945,1263.2 L 505.945,1247.68 L 624.055,1247.68 L 624.055,1365.79 L 505.945,1365.79 L 505.945,1358 L 383.11,1418.94 L 383.11,1742.73 L 389.933,1742.73 L 427.423,1780.22 L 427.423,1833.24 L 389.933,1870.73 L 336.917,1870.73 L 299.427,1833.24 z " style="fill-opacity:1.000000;fill:rgb(115,81,255);stroke:rgb(0,0,0);stroke-width:2"/></g>
<g fill-rule="evenodd"><path d="M 305.438,3334.92 L 305.438,3324.22 L 307.662,3313.75 L 312.014,3303.98 L 318.304,3295.32 L 326.255,3288.16 L 335.521,3282.81 L 345.697,3279.5 L 356.339,3278.39 L 450.827,3278.39 L 461.468,3279.5 L 471.644,3282.81 L 480.91,3288.16 L 488.862,3295.32 L 495.151,3303.98 L 497.78,3309.88 L 829.07,3309.88 L 831.699,3303.98 L 837.989,3295.32 L 845.94,3288.16 L 851.065,3285.2 L 747.932,3182.07 L 745.484,3179.08 L 743.665,3175.68 L 742.544,3171.99 L 742.166,3168.15 L 742.166,2912.26 L 732.323,2907.88 L 722.335,2900.62 L 714.074,2891.44 L 707.901,2880.75 L 704.086,2869.01 L 702.795,2856.73 L 704.086,2844.45 L 707.901,2832.71 L 714.074,2822.02 L 722.335,2812.85 L 732.323,2805.59 L 742.166,2801.21 L 742.166,1362.26 L 732.323,1357.88 L 722.335,1350.62 L 714.074,1341.44 L 707.901,1330.75 L 704.086,1319.01 L 702.795,1306.73 L 704.086,1294.45 L 707.901,1282.71 L 714.074,1272.02 L 722.335,1262.85 L 732.323,1255.59 L 743.601,1250.57 L 755.677,1248 L 768.023,1248 L 780.099,1250.57 L 791.378,1255.59 L 801.366,1262.85 L 809.627,1272.02 L 815.8,1282.71 L 817.208,1287.05 L 1113.43,1287.05 L 1117.95,1287.57 L 1122.23,1289.13 L 1193.74,1324.88 L 1193.74,856.732 L 1193.74,474.661 L 1012.96,457.736 L 1008.55,463.814 L 1000.6,470.973 L 991.329,476.323 L 981.153,479.63 L 970.512,480.748 L 876.024,480.748 L 865.382,479.63 L 855.206,476.323 L 845.94,470.973 L 837.989,463.814 L 831.699,455.157 L 829.071,449.253 L 497.78,449.253 L 495.151,455.157 L 488.862,463.814 L 480.91,470.973 L 471.644,476.323 L 461.468,479.63 L 450.827,480.748 L 356.339,480.748 L 345.697,479.63 L 335.521,476.323 L 326.255,470.973 L 318.304,463.814 L 312.014,455.157 L 307.662,445.383 L 305.438,434.917 L 305.438,424.217 L 307.662,413.751 L 312.014,403.976 L 318.304,395.32 L 326.255,388.161 L 335.521,382.811 L 345.697,379.504 L 356.339,378.386 L 450.827,378.386 L 461.468,379.504 L 471.644,382.811 L 480.91,388.161 L 488.862,395.32 L 495.151,403.976 L 497.781,409.883 L 829.07,409.883 L 831.699,403.976 L 837.989,395.32 L 845.94,388.161 L 855.206,382.811 L 865.382,379.504 L 876.024,378.386 L 970.512,378.386 L 981.153,379.504 L 991.329,382.811 L 1000.6,388.161 L 1008.55,395.32 L 1014.84,403.976 L 1019.19,413.751 L 1020.28,418.879 L 1215.26,437.133 L 1218.83,437.803 L 1222.21,439.117 L 1225.3,441.03 L 1227.98,443.477 L 1230.17,446.375 L 1231.78,449.626 L 1232.78,453.117 L 1233.11,456.732 L 1233.11,837.047 L 1924.48,837.047 L 1928.16,828.78 L 1934.45,820.123 L 1942.4,812.964 L 1951.66,807.614 L 1961.84,804.307 L 1972.48,803.189 L 2066.97,803.189 L 2077.61,804.307 L 2087.79,807.614 L 2097.05,812.964 L 2105,820.123 L 2111.29,828.78 L 2115.64,838.554 L 2117.87,849.02 L 2117.87,859.72 L 2115.64,870.186 L 2111.29,879.961 L 2105,888.617 L 2097.05,895.776 L 2087.79,901.126 L 2077.61,904.433 L 2066.97,905.551 L 1972.48,905.551 L 1961.84,904.433 L 1951.66,901.126 L 1942.4,895.776 L 1934.45,888.617 L 1928.16,879.961 L 1926.58,876.417 L 1233.11,876.417 L 1233.11,1499.39 L 1872.41,2237.05 L 1924.48,2237.05 L 1928.16,2228.78 L 1934.45,2220.12 L 1942.4,2212.96 L 1951.66,2207.61 L 1961.84,2204.31 L 1972.48,2203.19 L 2066.97,2203.19 L 2077.61,2204.31 L 2087.79,2207.61 L 2097.05,2212.96 L 2105,2220.12 L 2111.29,2228.78 L 2115.64,2238.55 L 2117.87,2249.02 L 2117.87,2259.72 L 2115.64,2270.19 L 2111.29,2279.96 L 2105,2288.62 L 2097.05,2295.78 L 2087.79,2301.13 L 2077.61,2304.43 L 2066.97,2305.55 L 1972.48,2305.55 L 1961.84,2304.43 L 1951.66,2301.13 L 1942.4,2295.78 L 1934.45,2288.62 L 1928.16,2279.96 L 1926.58,2276.42 L 1863.43,2276.42 L 1859.24,2275.97 L 1855.25,2274.64 L 1851.63,2272.49 L 1848.55,2269.62 L 1198.55,1519.62 L 1196.5,1516.78 L 1194.98,1513.61 L 1194.05,1510.23 L 1193.74,1506.73 L 1193.74,1368.9 L 1108.78,1326.42 L 817.208,1326.42 L 815.8,1330.75 L 809.627,1341.44 L 801.366,1350.62 L 791.378,1357.88 L 781.536,1362.26 L 781.536,2801.21 L 791.378,2805.59 L 801.366,2812.85 L 809.627,2822.02 L 815.8,2832.71 L 819.615,2844.45 L 820.906,2856.73 L 819.615,2869.01 L 815.8,2880.75 L 809.627,2891.44 L 801.366,2900.62 L 791.378,2907.88 L 781.536,2912.26 L 781.536,3159.99 L 899.928,3278.39 L 970.512,3278.39 L 981.153,3279.5 L 991.329,3282.81 L 1000.6,3288.16 L 1008.55,3295.32 L 1014.84,3303.98 L 1017.46,3309.88 L 1386.26,3309.88 L 1390.1,3310.26 L 1393.79,3311.38 L 1397.2,3313.2 L 1400.18,3315.65 L 1527.34,3442.81 L 1529.79,3445.8 L 1531.61,3449.2 L 1532.73,3452.89 L 1533.11,3456.73 L 1533.11,4048.58 L 1621.58,4137.05 L 1874.85,4137.05 L 1877.87,4131.81 L 1886.61,4122.11 L 1897.18,4114.43 L 1909.11,4109.12 L 1921.89,4106.4 L 1934.95,4106.4 L 1947.73,4109.12 L 1959.66,4114.43 L 1970.23,4122.11 L 1978.97,4131.81 L 1985.5,4143.12 L 1989.53,4155.55 L 1990.9,4168.54 L 1990.9,4216.02 L 1989.53,4229.01 L 1985.5,4241.43 L 1978.97,4252.74 L 1970.23,4262.45 L 1959.66,4270.13 L 1948.1,4275.27 L 1948.1,4313.57 L 1971.58,4337.05 L 3405.27,4337.05 L 3443.74,4298.58 L 3443.74,4283.99 L 3441.93,4283.99 L 3429.16,4281.27 L 3417.22,4275.96 L 3406.66,4268.28 L 3397.92,4258.58 L 3391.39,4247.26 L 3387.35,4234.84 L 3385.98,4221.85 L 3385.98,4174.37 L 3387.35,4161.38 L 3391.39,4148.96 L 3397.92,4137.65 L 3406.66,4127.94 L 3417.22,4120.26 L 3429.16,4114.95 L 3441.93,4112.23 L 3455,4112.23 L 3467.77,4114.95 L 3479.7,4120.26 L 3490.27,4127.94 L 3499.01,4137.65 L 3505.54,4148.96 L 3509.58,4161.38 L 3510.94,4174.37 L 3510.94,4178.43 L 4113.89,4178.43 L 4193.74,4098.58 L 4193.74,3456.73 L 4194.12,3452.89 L 4195.24,3449.2 L 4197.06,3445.8 L 4199.51,3442.81 L 4299.51,3342.81 L 4302.49,3340.36 L 4305.89,3338.55 L 4309.58,3337.43 L 4313.43,3337.05 L 4805.89,3337.05 L 4805.44,3334.92 L 4805.44,3324.22 L 4807.66,3313.75 L 4812.01,3303.98 L 4818.3,3295.32 L 4826.26,3288.16 L 4835.52,3282.81 L 4845.7,3279.5 L 4856.34,3278.39 L 4883.9,3278.39 L 4883.9,3017.08 L 4884.27,3013.24 L 4885.39,3009.55 L 4887.21,3006.15 L 4889.66,3003.16 L 4991.52,2901.31 L 4990.75,2899.98 L 4986.94,2888.24 L 4985.65,2875.96 L 4986.94,2863.69 L 4990.75,2851.94 L 4996.93,2841.25 L 5004.58,2832.75 L 5004.58,1326.42 L 5002.83,1325.64 L 4711.32,1661.61 L 4708.24,1664.48 L 4704.62,1666.62 L 4700.63,1667.95 L 4696.45,1668.4 L 4368.56,1668.4 L 4367.16,1672.73 L 4360.98,1683.42 L 4352.72,1692.6 L 4342.73,1699.85 L 4331.46,1704.88 L 4319.38,1707.44 L 4307.03,1707.44 L 4294.96,1704.88 L 4283.68,1699.85 L 4273.69,1692.6 L 4265.43,1683.42 L 4260.02,1674.06 L 3913.92,1674.06 L 3911.29,1679.96 L 3905,1688.62 L 3897.05,1695.78 L 3887.79,1701.13 L 3877.61,1704.43 L 3866.97,1705.55 L 3772.48,1705.55 L 3761.84,1704.43 L 3751.66,1701.13 L 3742.4,1695.78 L 3734.45,1688.62 L 3728.16,1679.96 L 3723.8,1670.19 L 3721.58,1659.72 L 3721.58,1649.02 L 3723.8,1638.55 L 3728.16,1628.78 L 3734.45,1620.12 L 3742.4,1612.96 L 3751.66,1607.61 L 3761.84,1604.31 L 3772.48,1603.19 L 3866.97,1603.19 L 3877.61,1604.31 L 3887.79,1607.61 L 3897.05,1612.96 L 3905,1620.12 L 3911.29,1628.78 L 3913.92,1634.69 L 4256.01,1634.69 L 4259.26,1624.69 L 4265.43,1614 L 4273.69,1604.82 L 4283.68,1597.57 L 4294.96,1592.55 L 4307.03,1589.98 L 4319.38,1589.98 L 4331.46,1592.55 L 4342.73,1597.57 L 4352.72,1604.82 L 4360.98,1614 L 4367.16,1624.69 L 4368.56,1629.03 L 4687.47,1629.03 L 4973.14,1299.79 L 4970.32,1294.91 L 4966.51,1283.17 L 4965.22,1270.89 L 4966.51,1258.61 L 4969.43,1249.63 L 4650.58,974.961 L 4647.69,971.877 L 4645.53,968.25 L 4644.19,964.245 L 4643.74,960.046 L 4643.74,506.732 L 4644.12,502.892 L 4645.24,499.199 L 4647.06,495.796 L 4649.51,492.813 L 4726.67,415.649 L 4729.65,413.201 L 4733.06,411.382 L 4736.75,410.261 L 4740.59,409.883 L 4809.38,409.883 L 4812.01,403.976 L 4818.3,395.32 L 4826.26,388.161 L 4835.52,382.811 L 4845.7,379.504 L 4856.34,378.386 L 4950.83,378.386 L 4961.47,379.504 L 4971.64,382.811 L 4980.91,388.161 L 4988.86,395.32 L 4995.15,403.976 L 4997.78,409.883 L 5329.07,409.883 L 5331.7,403.976 L 5337.99,395.32 L 5345.94,388.161 L 5355.21,382.811 L 5365.38,379.504 L 5376.02,378.386 L 5470.51,378.386 L 5481.15,379.504 L 5491.33,382.811 L 5500.6,388.161 L 5508.55,395.32 L 5514.84,403.976 L 5519.19,413.751 L 5521.41,424.217 L 5521.41,434.917 L 5519.19,445.383 L 5514.84,455.157 L 5508.55,463.814 L 5500.6,470.973 L 5491.33,476.323 L 5481.15,479.63 L 5470.51,480.748 L 5376.02,480.748 L 5365.38,479.63 L 5355.21,476.323 L 5345.94,470.973 L 5337.99,463.814 L 5331.7,455.157 L 5329.07,449.253 L 4997.78,449.253 L 4995.15,455.157 L 4988.86,463.814 L 4980.91,470.973 L 4971.64,476.323 L 4961.47,479.63 L 4950.83,480.748 L 4856.34,480.748 L 4845.7,479.63 L 4835.52,476.323 L 4826.26,470.973 L 4818.3,463.814 L 4812.01,455.157 L 4809.39,449.253 L 4748.74,449.253 L 4683.11,514.886 L 4683.11,951.022 L 4994.95,1219.66 L 5006.02,1214.73 L 5018.1,1212.16 L 5030.44,1212.16 L 5042.52,1214.73 L 5053.8,1219.75 L 5063.79,1227 L 5072.05,1236.18 L 5078.22,1246.87 L 5082.04,1258.61 L 5083.33,1270.89 L 5082.04,1283.17 L 5078.22,1294.91 L 5072.05,1305.6 L 5063.79,1314.78 L 5053.8,1322.03 L 5043.95,1326.42 L 5043.95,2817.23 L 5050.88,2817.23 L 5062.95,2819.8 L 5074.23,2824.82 L 5084.22,2832.08 L 5092.48,2841.25 L 5098.65,2851.94 L 5102.47,2863.69 L 5103.76,2875.96 L 5102.47,2888.24 L 5098.65,2899.98 L 5092.48,2910.68 L 5084.22,2919.85 L 5074.23,2927.11 L 5062.95,2932.13 L 5050.88,2934.7 L 5038.53,2934.7 L 5026.45,2932.13 L 5019.48,2929.02 L 4923.27,3025.24 L 4923.27,3278.39 L 4950.83,3278.39 L 4961.47,3279.5 L 4971.64,3282.81 L 4980.91,3288.16 L 4988.86,3295.32 L 4995.15,3303.98 L 4997.78,3309.88 L 5329.07,3309.88 L 5331.7,3303.98 L 5337.99,3295.32 L 5345.94,3288.16 L 5355.21,3282.81 L 5365.38,3279.5 L 5376.02,3278.39 L 5470.51,3278.39 L 5481.15,3279.5 L 5491.33,3282.81 L 5500.6,3288.16 L 5508.55,3295.32 L 5514.84,3303.98 L 5519.19,3313.75 L 5521.41,3324.22 L 5521.41,3334.92 L 5519.19,3345.38 L 5514.84,3355.16 L 5508.55,3363.81 L 5500.6,3370.97 L 5491.33,3376.32 L 5481.15,3379.63 L 5470.51,3380.75 L 5376.02,3380.75 L 5365.38,3379.63 L 5355.21,3376.32 L 5345.94,3370.97 L 5337.99,3363.81 L 5331.7,3355.16 L 5329.07,3349.25 L 4997.78,3349.25 L 4995.15,3355.16 L 4988.86,3363.81 L 4980.91,3370.97 L 4971.64,3376.32 L 4961.47,3379.63 L 4950.83,3380.75 L 4856.34,3380.75 L 4845.7,3379.63 L 4835.81,3376.42 L 4321.58,3376.42 L 4233.11,3464.89 L 4233.11,4106.73 L 4232.73,4110.57 L 4231.61,4114.26 L 4229.79,4117.67 L 4227.34,4120.65 L 4135.96,4212.03 L 4132.98,4214.48 L 4129.58,4216.3 L 4125.89,4217.42 L 4122.05,4217.8 L 3510.94,4217.8 L 3510.94,4221.85 L 3509.58,4234.84 L 3505.54,4247.26 L 3499.01,4258.58 L 3490.27,4268.28 L 3483.11,4273.49 L 3483.11,4306.73 L 3482.73,4310.57 L 3481.61,4314.27 L 3479.79,4317.67 L 3477.34,4320.65 L 3427.34,4370.65 L 3424.36,4373.1 L 3420.96,4374.92 L 3417.27,4376.04 L 3413.43,4376.42 L 1963.43,4376.42 L 1959.58,4376.04 L 1955.89,4374.92 L 1952.49,4373.1 L 1949.51,4370.65 L 1914.5,4335.64 L 1912.05,4332.66 L 1910.23,4329.26 L 1909.11,4325.56 L 1908.73,4321.72 L 1908.73,4275.27 L 1897.18,4270.13 L 1886.61,4262.45 L 1877.87,4252.74 L 1871.34,4241.43 L 1867.3,4229.01 L 1865.94,4216.02 L 1865.94,4176.42 L 1613.43,4176.42 L 1609.58,4176.04 L 1605.89,4174.92 L 1602.49,4173.1 L 1599.51,4170.65 L 1499.51,4070.65 L 1497.06,4067.67 L 1495.24,4064.27 L 1494.12,4060.57 L 1493.74,4056.73 L 1493.74,3464.89 L 1378.11,3349.25 L 1017.47,3349.25 L 1014.84,3355.16 L 1008.55,3363.81 L 1000.6,3370.97 L 991.329,3376.32 L 981.153,3379.63 L 970.512,3380.75 L 876.024,3380.75 L 865.382,3379.63 L 855.206,3376.32 L 845.94,3370.97 L 837.989,3363.81 L 831.699,3355.16 L 829.07,3349.25 L 497.78,3349.25 L 495.151,3355.16 L 488.862,3363.81 L 480.91,3370.97 L 471.644,3376.32 L 461.468,3379.63 L 450.827,3380.75 L 356.339,3380.75 L 345.697,3379.63 L 335.521,3376.32 L 326.255,3370.97 L 318.304,3363.81 L 312.014,3355.16 L 307.662,3345.38 L 305.438,3334.92 z " style="fill-opacity:1.000000;fill:rgb(74,236,41);stroke:rgb(0,0,0);stroke-width:2"/></g>
<g fill-rule="evenodd"><path d="M 899.427,2433.24 L 899.427,2380.22 L 936.917,2342.73 L 943.74,2342.73 L 943.74,1870.73 L 936.917,1870.73 L 899.427,1833.24 L 899.427,1780.22 L 936.917,1742.73 L 989.933,1742.73 L 1027.42,1780.22 L 1027.42,1833.24 L 989.933,1870.73 L 983.11,1870.73 L 983.11,2342.73 L 989.933,2342.73 L 1027.42,2380.22 L 1027.42,2387.05 L 1313.43,2387.05 L 1317.27,2387.43 L 1320.96,2388.55 L 1324.36,2390.36 L 1327.34,2392.81 L 1571.58,2637.05 L 1924.48,2637.05 L 1928.16,2628.78 L 1934.45,2620.12 L 1942.4,2612.96 L 1951.66,2607.61 L 1961.84,2604.31 L 1972.48,2603.19 L 2066.97,2603.19 L 2077.61,2604.31 L 2087.79,2607.61 L 2097.05,2612.96 L 2105,2620.12 L 2111.29,2628.78 L 2114.97,2637.05 L 3005.27,2637.05 L 3275.52,2366.79 L 3274.92,2364.92 L 3274.06,2356.73 L 3274.92,2348.55 L 3277.46,2340.72 L 3281.57,2333.59 L 3287.08,2327.47 L 3293.74,2322.64 L 3301.26,2319.29 L 3309.31,2317.58 L 3317.54,2317.58 L 3325.59,2319.29 L 3333.11,2322.64 L 3339.77,2327.47 L 3345.28,2333.59 L 3349.39,2340.72 L 3351.93,2348.55 L 3352.8,2356.73 L 3351.93,2364.92 L 3349.39,2372.75 L 3345.28,2379.87 L 3339.77,2385.99 L 3333.11,2390.83 L 3325.59,2394.18 L 3317.54,2395.89 L 3309.31,2395.89 L 3303.37,2394.62 L 3027.34,2670.65 L 3024.36,2673.1 L 3020.96,2674.92 L 3017.27,2676.04 L 3013.43,2676.42 L 2112.87,2676.42 L 2111.29,2679.96 L 2105,2688.62 L 2097.05,2695.78 L 2087.79,2701.13 L 2077.61,2704.43 L 2066.97,2705.55 L 1972.48,2705.55 L 1961.84,2704.43 L 1951.66,2701.13 L 1942.4,2695.78 L 1934.45,2688.62 L 1928.16,2679.96 L 1926.58,2676.42 L 1563.43,2676.42 L 1559.58,2676.04 L 1555.89,2674.92 L 1552.49,2673.1 L 1549.51,2670.65 L 1305.27,2426.42 L 1027.42,2426.42 L 1027.42,2433.24 L 989.933,2470.73 L 936.917,2470.73 L 899.427,2433.24 z " style="fill-opacity:1.000000;fill:rgb(205,186,171);stroke:rgb(0,0,0);stroke-width:2"/></g>
<g fill-rule="evenodd"><path d="M 1843.74,3706.73 L 1843.74,3306.73 L 1844.12,3302.89 L 1845.24,3299.2 L 1847.06,3295.8 L 1849.51,3292.81 L 1899.51,3242.81 L 1902.49,3240.36 L 1905.89,3238.55 L 1909.58,3237.43 L 1913.43,3237.05 L 1924.48,3237.05 L 1928.16,3228.78 L 1934.45,3220.12 L 1942.4,3212.96 L 1951.66,3207.61 L 1961.84,3204.31 L 1972.48,3203.19 L 2066.97,3203.19 L 2077.61,3204.31 L 2087.79,3207.61 L 2097.05,3212.96 L 2105,3220.12 L 2111.29,3228.78 L 2115.64,3238.55 L 2117.87,3249.02 L 2117.87,3259.72 L 2115.64,3270.19 L 2111.29,3279.96 L 2105,3288.62 L 2097.05,3295.78 L 2087.79,3301.13 L 2077.61,3304.43 L 2066.97,3305.55 L 1972.48,3305.55 L 1961.84,3304.43 L 1951.66,3301.13 L 1942.4,3295.78 L 1934.45,3288.62 L 1928.16,3279.96 L 1926.58,3276.42 L 1921.58,3276.42 L 1883.11,3314.89 L 1883.11,3698.58 L 2142.34,3957.8 L 2144.79,3960.79 L 2146.61,3964.19 L 2147.73,3967.88 L 2148.1,3971.72 L 2148.1,4109.28 L 2159.66,4114.43 L 2170.23,4122.11 L 2178.97,4131.81 L 2185.5,4143.12 L 2189.53,4155.55 L 2190.9,4168.54 L 2190.9,4216.02 L 2189.53,4229.01 L 2185.5,4241.43 L 2178.97,4252.74 L 2170.23,4262.45 L 2159.66,4270.13 L 2147.73,4275.44 L 2134.95,4278.16 L 2121.89,4278.16 L 2109.11,4275.44 L 2097.18,4270.13 L 2086.61,4262.45 L 2077.87,4252.74 L 2071.34,4241.43 L 2067.3,4229.01 L 2065.94,4216.02 L 2065.94,4168.54 L 2067.3,4155.55 L 2071.34,4143.12 L 2077.87,4131.81 L 2086.61,4122.11 L 2097.18,4114.43 L 2108.73,4109.28 L 2108.73,3979.88 L 1849.51,3720.65 L 1847.06,3717.67 L 1845.24,3714.27 L 1844.12,3710.57 L 1843.74,3706.73 z " style="fill-opacity:1.000000;fill:rgb(242,251,227);stroke:rgb(0,0,0);stroke-width:2"/></g>
<g fill-rule="evenodd"><path d="M 1921.58,3459.72 L 1921.58,3449.02 L 1923.8,3438.55 L 1928.16,3428.78 L 1934.45,3420.12 L 1942.4,3412.96 L 1951.66,3407.61 L 1961.84,3404.31 L 1972.48,3403.19 L 2066.97,3403.19 L 2077.61,3404.31 L 2087.79,3407.61 L 2097.05,3412.96 L 2105,3420.12 L 2111.29,3428.78 L 2115.64,3438.55 L 2117.87,3449.02 L 2117.87,3459.72 L 2115.64,3470.19 L 2111.29,3479.96 L 2105,3488.62 L 2097.05,3495.78 L 2087.79,3501.13 L 2077.61,3504.43 L 2066.97,3505.55 L 1972.48,3505.55 L 1961.84,3504.43 L 1951.66,3501.13 L 1942.4,3495.78 L 1934.45,3488.62 L 1928.16,3479.96 L 1923.8,3470.19 L 1921.58,3459.72 z " style="fill-opacity:1.000000;fill:rgb(70,124,194);stroke:rgb(0,0,0);stroke-width:2"/></g>
<g fill-rule="evenodd"><path d="M 1921.58,3059.72 L 1921.58,3049.02 L 1923.8,3038.55 L 1928.16,3028.78 L 1934.45,3020.12 L 1942.4,3012.96 L 1951.66,3007.61 L 1961.84,3004.31 L 1972.48,3003.19 L 2066.97,3003.19 L 2077.61,3004.31 L 2087.79,3007.61 L 2097.05,3012.96 L 2105,3020.12 L 2111.29,3028.78 L 2113.92,3034.68 L 2211.06,3034.68 L 2214.91,3035.06 L 2218.6,3036.18 L 2222,3038 L 2224.99,3040.45 L 2227.35,3042.82 L 2327.34,3142.81 L 2329.79,3145.8 L 2331.61,3149.2 L 2332.73,3152.89 L 2333.11,3156.73 L 2333.11,4106.4 L 2334.95,4106.4 L 2347.73,4109.12 L 2359.66,4114.43 L 2370.23,4122.11 L 2378.97,4131.81 L 2385.5,4143.12 L 2389.53,4155.55 L 2390.9,4168.54 L 2390.9,4216.02 L 2389.53,4229.01 L 2385.5,4241.43 L 2378.97,4252.74 L 2370.23,4262.45 L 2359.66,4270.13 L 2347.73,4275.44 L 2334.95,4278.16 L 2321.89,4278.16 L 2309.11,4275.44 L 2297.18,4270.13 L 2286.61,4262.45 L 2277.87,4252.74 L 2271.34,4241.43 L 2267.3,4229.01 L 2265.94,4216.02 L 2265.94,4168.54 L 2267.3,4155.55 L 2271.34,4143.12 L 2277.87,4131.81 L 2286.61,4122.11 L 2293.74,4116.93 L 2293.74,3164.89 L 2202.91,3074.05 L 2113.92,3074.05 L 2111.29,3079.96 L 2105,3088.62 L 2097.05,3095.78 L 2087.79,3101.13 L 2077.61,3104.43 L 2066.97,3105.55 L 1972.48,3105.55 L 1961.84,3104.43 L 1951.66,3101.13 L 1942.4,3095.78 L 1934.45,3088.62 L 1928.16,3079.96 L 1923.8,3070.19 L 1921.58,3059.72 z " style="fill-opacity:1.000000;fill:rgb(84,248,27);stroke:rgb(0,0,0);stroke-width:2"/></g>
<g fill-rule="evenodd"><path d="M 1921.58,2859.72 L 1921.58,2849.02 L 1923.8,2838.55 L 1928.16,2828.78 L 1934.45,2820.12 L 1942.4,2812.96 L 1951.66,2807.61 L 1961.84,2804.31 L 1972.48,2803.19 L 2066.97,2803.19 L 2077.61,2804.31 L 2087.79,2807.61 L 2097.05,2812.96 L 2105,2820.12 L 2111.29,2828.78 L 2113.92,2834.68 L 3211.06,2834.68 L 3214.9,2835.06 L 3218.59,2836.18 L 3222,2838 L 3224.98,2840.45 L 3277.34,2892.81 L 3279.79,2895.8 L 3281.61,2899.2 L 3282.73,2902.89 L 3283.11,2906.73 L 3283.11,4122.74 L 3290.27,4127.94 L 3299.01,4137.65 L 3305.54,4148.96 L 3309.58,4161.38 L 3310.94,4174.37 L 3310.94,4221.85 L 3309.58,4234.84 L 3305.54,4247.26 L 3299.01,4258.58 L 3290.27,4268.28 L 3279.7,4275.96 L 3267.77,4281.27 L 3255,4283.99 L 3241.93,4283.99 L 3229.16,4281.27 L 3217.22,4275.96 L 3206.66,4268.28 L 3197.92,4258.58 L 3191.39,4247.26 L 3187.35,4234.84 L 3185.98,4221.85 L 3185.98,4174.37 L 3187.35,4161.38 L 3191.39,4148.96 L 3197.92,4137.65 L 3206.66,4127.94 L 3217.22,4120.26 L 3229.16,4114.95 L 3241.93,4112.23 L 3243.74,4112.23 L 3243.74,2914.89 L 3202.91,2874.05 L 2113.92,2874.05 L 2111.29,2879.96 L 2105,2888.62 L 2097.05,2895.78 L 2087.79,2901.13 L 2077.61,2904.43 L 2066.97,2905.55 L 1972.48,2905.55 L 1961.84,2904.43 L 1951.66,2901.13 L 1942.4,2895.78 L 1934.45,2888.62 L 1928.16,2879.96 L 1923.8,2870.19 L 1921.58,2859.72 z " style="fill-opacity:1.000000;fill:rgb(232,231,141);stroke:rgb(0,0,0);stroke-width:2"/></g>
<g fill-rule="evenodd"><path d="M 1921.58,2459.72 L 1921.58,2449.02 L 1923.8,2438.55 L 1928.16,2428.78 L 1934.45,2420.12 L 1942.4,2412.96 L 1951.66,2407.61 L 1961.84,2404.31 L 1972.48,2403.19 L 2066.97,2403.19 L 2077.61,2404.31 L 2087.79,2407.61 L 2097.05,2412.96 L 2105,2420.12 L 2111.29,2428.78 L 2115.64,2438.55 L 2117.87,2449.02 L 2117.87,2459.72 L 2115.64,2470.19 L 2111.29,2479.96 L 2105,2488.62 L 2097.05,2495.78 L 2087.79,2501.13 L 2077.61,2504.43 L 2066.97,2505.55 L 1972.48,2505.55 L 1961.84,2504.43 L 1951.66,2501.13 L 1942.4,2495.78 L 1934.45,2488.62 L 1928.16,2479.96 L 1923.8,2470.19 L 1921.58,2459.72 z " style="fill-opacity:1.000000;fill:rgb(118,90,46);stroke:rgb(0,0,0);stroke-width:2"/></g>
<g fill-rule="evenodd"><path d="M 1921.58,2059.72 L 1921.58,2049.02 L 1923.8,2038.55 L 1928.16,2028.78 L 1934.45,2020.12 L 1942.4,2012.96 L 1951.66,2007.61 L 1961.84,2004.31 L 1972.48,2003.19 L 2066.97,2003.19 L 2077.61,2004.31 L 2087.79,2007.61 L 2097.05,2012.96 L 2105,2020.12 L 2111.29,2028.78 L 2115.64,2038.55 L 2117.87,2049.02 L 2117.87,2059.72 L 2115.64,2070.19 L 2111.29,2079.96 L 2105,2088.62 L 2097.05,2095.78 L 2087.79,2101.13 L 2077.61,2104.43 L 2066.97,2105.55 L 1972.48,2105.55 L 1961.84,2104.43 L 1951.66,2101.13 L 1942.4,2095.78 L 1934.45,2088.62 L 1928.16,2079.96 L 1923.8,2070.19 L 1921.58,2059.72 z " style="fill-opacity:1.000000;fill:rgb(99,51,159);stroke:rgb(0,0,0);stroke-width:2"/></g>
<g fill-rule="evenodd"><path d="M 1921.58,1859.72 L 1921.58,1849.02 L 1923.8,1838.55 L 1928.16,1828.78 L 1934.45,1820.12 L 1942.4,1812.96 L 1951.66,1807.61 L 1961.84,1804.31 L 1972.48,1803.19 L 2066.97,1803.19 L 2077.61,1804.31 L 2087.79,1807.61 L 2097.05,1812.96 L 2105,1820.12 L 2111.29,1828.78 L 2115.64,1838.55 L 2117.87,1849.02 L 2117.87,1859.72 L 2115.64,1870.19 L 2111.29,1879.96 L 2105,1888.62 L 2097.05,1895.78 L 2087.79,1901.13 L 2077.61,1904.43 L 2066.97,1905.55 L 1972.48,1905.55 L 1961.84,1904.43 L 1951.66,1901.13 L 1942.4,1895.78 L 1934.45,1888.62 L 1928.16,1879.96 L 1923.8,1870.19 L 1921.58,1859.72 z " style="fill-opacity:1.000000;fill:rgb(201,154,102);stroke:rgb(0,0,0);stroke-width:2"/></g>
<g fill-rule="evenodd"><path d="M 1921.58,1659.72 L 1921.58,1649.02 L 1923.8,1638.55 L 1928.16,1628.78 L 1934.45,1620.12 L 1942.4,1612.96 L 1951.66,1607.61 L 1961.84,1604.31 L 1972.48,1603.19 L 2066.97,1603.19 L 2077.61,1604.31 L 2087.79,1607.61 L 2097.05,1612.96 L 2105,1620.12 L 2111.29,1628.78 L 2115.64,1638.55 L 2117.87,1649.02 L 2117.87,1659.72 L 2115.64,1670.19 L 2111.29,1679.96 L 2105,1688.62 L 2097.05,1695.78 L 2087.79,1701.13 L 2077.61,1704.43 L 2066.97,1705.55 L 1972.48,1705.55 L 1961.84,1704.43 L 1951.66,1701.13 L 1942.4,1695.78 L 1934.45,1688.62 L 1928.16,1679.96 L 1923.8,1670.19 L 1921.58,1659.72 z " style="fill-opacity:1.000000;fill:rgb(50,13,183);stroke:rgb(0,0,0);stroke-width:2"/></g>
<g fill-rule="evenodd"><path d="M 1921.58,1459.72 L 1921.58,1449.02 L 1923.8,1438.55 L 1928.16,1428.78 L 1934.45,1420.12 L 1942.4,1412.96 L 1951.66,1407.61 L 1961.84,1404.31 L 1972.48,1403.19 L 2066.97,1403.19 L 2077.61,1404.31 L 2087.79,1407.61 L 2097.05,1412.96 L 2105,1420.12 L 2111.29,1428.78 L 2115.64,1438.55 L 2117.87,1449.02 L 2117.87,1459.72 L 2115.64,1470.19 L 2111.29,1479.96 L 2105,1488.62 L 2097.05,1495.78 L 2087.79,1501.13 L 2077.61,1504.43 L 2066.97,1505.55 L 1972.48,1505.55 L 1961.84,1504.43 L 1951.66,1501.13 L 1942.4,1495.78 L 1934.45,1488.62 L 1928.16,1479.96 L 1923.8,1470.19 L 1921.58,1459.72 z " style="fill-opacity:1.000000;fill:rgb(49,88,163);stroke:rgb(0,0,0);stroke-width:2"/></g>
<g fill-rule="evenodd"><path d="M 1921.58,1259.72 L 1921.58,1249.02 L 1923.8,1238.55 L 1928.16,1228.78 L 1934.45,1220.12 L 1942.4,1212.96 L 1951.66,1207.61 L 1961.84,1204.31 L 1972.48,1203.19 L 2066.97,1203.19 L 2077.61,1204.31 L 2087.79,1207.61 L 2097.05,1212.96 L 2105,1220.12 L 2111.29,1228.78 L 2115.64,1238.55 L 2117.87,1249.02 L 2117.87,1259.72 L 2115.64,1270.19 L 2111.29,1279.96 L 2105,1288.62 L 2097.05,1295.78 L 2087.79,1301.13 L 2077.61,1304.43 L 2066.97,1305.55 L 1972.48,1305.55 L 1961.84,1304.43 L 1951.66,1301.13 L 1942.4,1295.78 L 1934.45,1288.62 L 1928.16,1279.96 L 1923.8,1270.19 L 1921.58,1259.72 z " style="fill-opacity:1.000000;fill:rgb(90,37,93);stroke:rgb(0,0,0);stroke-width:2"/></g>
<g fill-rule="evenodd"><path d="M 1921.58,1059.72 L 1921.58,1049.02 L 1923.8,1038.55 L 1928.16,1028.78 L 1934.45,1020.12 L 1942.4,1012.96 L 1951.66,1007.61 L 1961.84,1004.31 L 1972.48,1003.19 L 2066.97,1003.19 L 2077.61,1004.31 L 2087.79,1007.61 L 2097.05,1012.96 L 2105,1020.12 L 2111.29,1028.78 L 2115.64,1038.55 L 2117.87,1049.02 L 2117.87,1059.72 L 2115.64,1070.19 L 2111.29,1079.96 L 2105,1088.62 L 2097.05,1095.78 L 2087.79,1101.13 L 2077.61,1104.43 L 2066.97,1105.55 L 1972.48,1105.55 L 1961.84,1104.43 L 1951.66,1101.13 L 1942.4,1095.78 L 1934.45,1088.62 L 1928.16,1079.96 L 1923.8,1070.19 L 1921.58,1059.72 z " style="fill-opacity:1.000000;fill:rgb(5,23,88);stroke:rgb(0,0,0);stroke-width:2"/></g>
<g fill-rule="evenodd"><path d="M 1921.58,659.72 L 1921.58,649.02 L 1923.8,638.554 L 1928.16,628.78 L 1934.45,620.123 L 1942.4,612.964 L 1951.66,607.614 L 1961.84,604.307 L 1972.48,603.189 L 2066.97,603.189 L 2077.61,604.307 L 2087.79,607.614 L 2097.05,612.964 L 2105,620.123 L 2111.29,628.78 L 2115.64,638.554 L 2117.87,649.02 L 2117.87,659.72 L 2115.64,670.186 L 2111.29,679.961 L 2105,688.617 L 2097.05,695.776 L 2087.79,701.126 L 2077.61,704.433 L 2066.97,705.551 L 1972.48,705.551 L 1961.84,704.433 L 1951.66,701.126 L 1942.4,695.776 L 1934.45,688.617 L 1928.16,679.961 L 1923.8,670.186 L 1921.58,659.72 z " style="fill-opacity:1.000000;fill:rgb(233,94,212);stroke:rgb(0,0,0);stroke-width:2"/></g>
<g fill-rule="evenodd"><path d="M 2465.94,4278.5 L 2465.94,4106.06 L 2590.9,4106.06 L 2590.9,4173.29 L 2985.98,4177.72 L 2985.98,4163.47 L 2849.51,4026.99 L 2847.06,4024.01 L 2845.24,4020.61 L 2844.12,4016.91 L 2843.74,4013.07 L 2843.74,3140.83 L 2837.08,3135.99 L 2831.57,3129.87 L 2827.46,3122.75 L 2824.92,3114.92 L 2824.06,3106.73 L 2824.92,3098.55 L 2827.46,3090.72 L 2831.57,3083.59 L 2837.08,3077.47 L 2843.74,3072.64 L 2851.26,3069.29 L 2859.31,3067.58 L 2867.54,3067.58 L 2875.59,3069.29 L 2883.11,3072.64 L 2889.77,3077.47 L 2895.28,3083.59 L 2899.39,3090.72 L 2901.93,3098.55 L 2902.8,3106.73 L 2901.93,3114.92 L 2899.39,3122.75 L 2895.28,3129.87 L 2889.77,3135.99 L 2883.11,3140.83 L 2883.11,4004.92 L 2990.08,4111.89 L 3110.94,4111.89 L 3110.94,4284.33 L 2985.98,4284.33 L 2985.98,4217.1 L 2590.9,4212.66 L 2590.9,4278.5 L 2465.94,4278.5 z " style="fill-opacity:1.000000;fill:rgb(171,178,205);stroke:rgb(0,0,0);stroke-width:2"/></g>
<g fill-rule="evenodd"><path d="M 2824.06,2356.73 L 2824.92,2348.55 L 2827.46,2340.72 L 2831.57,2333.59 L 2837.08,2327.47 L 2843.74,2322.64 L 2843.74,806.732 L 2844.12,802.892 L 2845.24,799.199 L 2847.06,795.796 L 2849.51,792.813 L 2999.51,642.813 L 3002.49,640.365 L 3005.89,638.546 L 3009.58,637.425 L 3013.43,637.047 L 3724.48,637.047 L 3728.16,628.78 L 3734.45,620.123 L 3742.4,612.964 L 3751.66,607.614 L 3761.84,604.307 L 3772.48,603.189 L 3866.97,603.189 L 3877.61,604.307 L 3887.79,607.614 L 3897.05,612.964 L 3905,620.123 L 3911.29,628.78 L 3915.64,638.554 L 3917.87,649.02 L 3917.87,659.72 L 3915.64,670.186 L 3911.29,679.961 L 3905,688.617 L 3897.05,695.776 L 3887.79,701.126 L 3877.61,704.433 L 3866.97,705.551 L 3772.48,705.551 L 3761.84,704.433 L 3751.66,701.126 L 3742.4,695.776 L 3734.45,688.617 L 3728.16,679.961 L 3726.58,676.417 L 3021.58,676.417 L 2883.11,814.886 L 2883.11,2322.64 L 2889.77,2327.47 L 2895.28,2333.59 L 2899.39,2340.72 L 2901.93,2348.55 L 2902.8,2356.73 L 2901.93,2364.92 L 2899.39,2372.75 L 2895.28,2379.87 L 2889.77,2385.99 L 2883.11,2390.83 L 2875.59,2394.18 L 2867.54,2395.89 L 2859.31,2395.89 L 2851.26,2394.18 L 2843.74,2390.83 L 2837.08,2385.99 L 2831.57,2379.87 L 2827.46,2372.75 L 2824.92,2364.92 L 2824.06,2356.73 z " style="fill-opacity:1.000000;fill:rgb(198,155,180);stroke:rgb(0,0,0);stroke-width:2"/></g>
<g fill-rule="evenodd"><path d="M 3721.58,3459.72 L 3721.58,3449.02 L 3723.8,3438.55 L 3728.16,3428.78 L 3734.45,3420.12 L 3742.4,3412.96 L 3751.66,3407.61 L 3761.84,3404.31 L 3772.48,3403.19 L 3866.97,3403.19 L 3877.61,3404.31 L 3887.79,3407.61 L 3897.05,3412.96 L 3905,3420.12 L 3911.29,3428.78 L 3915.64,3438.55 L 3917.87,3449.02 L 3917.87,3459.72 L 3915.64,3470.19 L 3911.29,3479.96 L 3905,3488.62 L 3897.05,3495.78 L 3887.79,3501.13 L 3877.61,3504.43 L 3866.97,3505.55 L 3772.48,3505.55 L 3761.84,3504.43 L 3751.66,3501.13 L 3742.4,3495.78 L 3734.45,3488.62 L 3728.16,3479.96 L 3723.8,3470.19 L 3721.58,3459.72 z " style="fill-opacity:1.000000;fill:rgb(84,17,14);stroke:rgb(0,0,0);stroke-width:2"/></g>
<g fill-rule="evenodd"><path d="M 3721.58,3259.72 L 3721.58,3249.02 L 3723.8,3238.55 L 3728.16,3228.78 L 3734.45,3220.12 L 3742.4,3212.96 L 3751.66,3207.61 L 3761.84,3204.31 L 3772.48,3203.19 L 3866.97,3203.19 L 3877.61,3204.31 L 3887.79,3207.61 L 3897.05,3212.96 L 3905,3220.12 L 3911.29,3228.78 L 3915.64,3238.55 L 3917.87,3249.02 L 3917.87,3259.72 L 3915.64,3270.19 L 3911.29,3279.96 L 3905,3288.62 L 3897.05,3295.78 L 3887.79,3301.13 L 3877.61,3304.43 L 3866.97,3305.55 L 3772.48,3305.55 L 3761.84,3304.43 L 3751.66,3301.13 L 3742.4,3295.78 L 3734.45,3288.62 L 3728.16,3279.96 L 3723.8,3270.19 L 3721.58,3259.72 z " style="fill-opacity:1.000000;fill:rgb(130,116,65);stroke:rgb(0,0,0);stroke-width:2"/></g>
<g fill-rule="evenodd"><path d="M 3721.58,3059.72 L 3721.58,3049.02 L 3723.8,3038.55 L 3728.16,3028.78 L 3734.45,3020.12 L 3742.4,3012.96 L 3751.66,3007.61 L 3761.84,3004.31 L 3772.48,3003.19 L 3866.97,3003.19 L 3877.61,3004.31 L 3887.79,3007.61 L 3897.05,3012.96 L 3905,3020.12 L 3911.29,3028.78 L 3915.64,3038.55 L 3917.87,3049.02 L 3917.87,3059.72 L 3915.64,3070.19 L 3911.29,3079.96 L 3905,3088.62 L 3897.05,3095.78 L 3887.79,3101.13 L 3877.61,3104.43 L 3866.97,3105.55 L 3772.48,3105.55 L 3761.84,3104.43 L 3751.66,3101.13 L 3742.4,3095.78 L 3734.45,3088.62 L 3728.16,3079.96 L 3723.8,3070.19 L 3721.58,3059.72 z " style="fill-opacity:1.000000;fill:rgb(33,61,220);stroke:rgb(0,0,0);stroke-width:2"/></g>
<g fill-rule="evenodd"><path d="M 3721.58,2859.72 L 3721.58,2849.02 L 3723.8,2838.55 L 3728.16,2828.78 L 3734.45,2820.12 L 3742.4,2812.96 L 3751.66,2807.61 L 3761.84,2804.31 L 3772.48,2803.19 L 3866.97,2803.19 L 3877.61,2804.31 L 3887.79,2807.61 L 3897.05,2812.96 L 3905,2820.12 L 3911.29,2828.78 L 3915.64,2838.55 L 3917.87,2849.02 L 3917.87,2859.72 L 3915.64,2870.19 L 3911.29,2879.96 L 3905,2888.62 L 3897.05,2895.78 L 3887.79,2901.13 L 3877.61,2904.43 L 3866.97,2905.55 L 3772.48,2905.55 L 3761.84,2904.43 L 3751.66,2901.13 L 3742.4,2895.78 L 3734.45,2888.62 L 3728.16,2879.96 L 3723.8,2870.19 L 3721.58,2859.72 z " style="fill-opacity:1.000000;fill:rgb(135,112,233);stroke:rgb(0,0,0);stroke-width:2"/></g>
<g fill-rule="evenodd"><path d="M 3721.58,2659.72 L 3721.58,2649.02 L 3723.8,2638.55 L 3728.16,2628.78 L 3734.45,2620.12 L 3742.4,2612.96 L 3751.66,2607.61 L 3761.84,2604.31 L 3772.48,2603.19 L 3866.97,2603.19 L 3877.61,2604.31 L 3887.79,2607.61 L 3897.05,2612.96 L 3905,2620.12 L 3911.29,2628.78 L 3915.64,2638.55 L 3917.87,2649.02 L 3917.87,2659.72 L 3915.64,2670.19 L 3911.29,2679.96 L 3905,2688.62 L 3897.05,2695.78 L 3887.79,2701.13 L 3877.61,2704.43 L 3866.97,2705.55 L 3772.48,2705.55 L 3761.84,2704.43 L 3751.66,2701.13 L 3742.4,2695.78 L 3734.45,2688.62 L 3728.16,2679.96 L 3723.8,2670.19 L 3721.58,2659.72 z " style="fill-opacity:1.000000;fill:rgb(62,161,65);stroke:rgb(0,0,0);stroke-width:2"/></g>
<g fill-rule="evenodd"><path d="M 3721.58,2459.72 L 3721.58,2449.02 L 3723.8,2438.55 L 3728.16,2428.78 L 3734.45,2420.12 L 3742.4,2412.96 L 3751.66,2407.61 L 3761.84,2404.31 L 3772.48,2403.19 L 3866.97,2403.19 L 3877.61,2404.31 L 3887.79,2407.61 L 3897.05,2412.96 L 3905,2420.12 L 3911.29,2428.78 L 3915.64,2438.55 L 3917.87,2449.02 L 3917.87,2459.72 L 3915.64,2470.19 L 3911.29,2479.96 L 3905,2488.62 L 3897.05,2495.78 L 3887.79,2501.13 L 3877.61,2504.43 L 3866.97,2505.55 L 3772.48,2505.55 L 3761.84,2504.43 L 3751.66,2501.13 L 3742.4,2495.78 L 3734.45,2488.62 L 3728.16,2479.96 L 3723.8,2470.19 L 3721.58,2459.72 z " style="fill-opacity:1.000000;fill:rgb(225,252,103);stroke:rgb(0,0,0);stroke-width:2"/></g>
<g fill-rule="evenodd"><path d="M 3721.58,2259.72 L 3721.58,2249.02 L 3723.8,2238.55 L 3728.16,2228.78 L 3734.45,2220.12 L 3742.4,2212.96 L 3751.66,2207.61 L 3761.84,2204.31 L 3772.48,2203.19 L 3866.97,2203.19 L 3877.61,2204.31 L 3887.79,2207.61 L 3897.05,2212.96 L 3905,2220.12 L 3911.29,2228.78 L 3915.64,2238.55 L 3917.87,2249.02 L 3917.87,2259.72 L 3915.64,2270.19 L 3911.29,2279.96 L 3905,2288.62 L 3897.05,2295.78 L 3887.79,2301.13 L 3877.61,2304.43 L 3866.97,2305.55 L 3772.48,2305.55 L 3761.84,2304.43 L 3751.66,2301.13 L 3742.4,2295.78 L 3734.45,2288.62 L 3728.16,2279.96 L 3723.8,2270.19 L 3721.58,2259.72 z " style="fill-opacity:1.000000;fill:rgb(62,1,126);stroke:rgb(0,0,0);stroke-width:2"/></g>
<g fill-rule="evenodd"><path d="M 3721.58,2059.72 L 3721.58,2049.02 L 3723.8,2038.55 L 3728.16,2028.78 L 3734.45,2020.12 L 3742.4,2012.96 L 3751.66,2007.61 L 3761.84,2004.31 L 3772.48,2003.19 L 3866.97,2003.19 L 3877.61,2004.31 L 3887.79,2007.61 L 3897.05,2012.96 L 3905,2020.12 L 3911.29,2028.78 L 3915.64,2038.55 L 3917.87,2049.02 L 3917.87,2059.72 L 3915.64,2070.19 L 3911.29,2079.96 L 3905,2088.62 L 3897.05,2095.78 L 3887.79,2101.13 L 3877.61,2104.43 L 3866.97,2105.55 L 3772.48,2105.55 L 3761.84,2104.43 L 3751.66,2101.13 L 3742.4,2095.78 L 3734.45,2088.62 L 3728.16,2079.96 L 3723.8,2070.19 L 3721.58,2059.72 z " style="fill-opacity:1.000000;fill:rgb(151,234,220);stroke:rgb(0,0,0);stroke-width:2"/></g>
<g fill-rule="evenodd"><path d="M 3721.58,1859.72 L 3721.58,1849.02 L 3723.8,1838.55 L 3728.16,1828.78 L 3734.45,1820.12 L 3742.4,1812.96 L 3751.66,1807.61 L 3761.84,1804.31 L 3772.48,1803.19 L 3866.97,1803.19 L 3877.61,1804.31 L 3887.79,1807.61 L 3897.05,1812.96 L 3905,1820.12 L 3911.29,1828.78 L 3915.64,1838.55 L 3917.87,1849.02 L 3917.87,1859.72 L 3915.64,1870.19 L 3911.29,1879.96 L 3905,1888.62 L 3897.05,1895.78 L 3887.79,1901.13 L 3877.61,1904.43 L 3866.97,1905.55 L 3772.48,1905.55 L 3761.84,1904.43 L 3751.66,1901.13 L 3742.4,1895.78 L 3734.45,1888.62 L 3728.16,1879.96 L 3723.8,1870.19 L 3721.58,1859.72 z " style="fill-opacity:1.000000;fill:rgb(107,150,143);stroke:rgb(0,0,0);stroke-width:2"/></g>
<g fill-rule="evenodd"><path d="M 3721.58,1459.72 L 3721.58,1449.02 L 3723.8,1438.55 L 3728.16,1428.78 L 3734.45,1420.12 L 3742.4,1412.96 L 3751.66,1407.61 L 3761.84,1404.31 L 3772.48,1403.19 L 3866.97,1403.19 L 3877.61,1404.31 L 3887.79,1407.61 L 3897.05,1412.96 L 3905,1420.12 L 3911.29,1428.78 L 3913.71,1434.21 L 4254.15,1432.48 L 4254.15,1392.81 L 4293.74,1392.81 L 4293.74,1164.89 L 4202.91,1074.06 L 3913.92,1074.06 L 3911.29,1079.96 L 3905,1088.62 L 3897.05,1095.78 L 3887.79,1101.13 L 3877.61,1104.43 L 3866.97,1105.55 L 3772.48,1105.55 L 3761.84,1104.43 L 3751.66,1101.13 L 3742.4,1095.78 L 3734.45,1088.62 L 3728.16,1079.96 L 3723.8,1070.19 L 3721.58,1059.72 L 3721.58,1049.02 L 3723.8,1038.55 L 3728.16,1028.78 L 3734.45,1020.12 L 3742.4,1012.96 L 3751.66,1007.61 L 3761.84,1004.31 L 3772.48,1003.19 L 3866.97,1003.19 L 3877.61,1004.31 L 3887.79,1007.61 L 3897.05,1012.96 L 3905,1020.12 L 3911.29,1028.78 L 3913.92,1034.69 L 4211.06,1034.69 L 4214.9,1035.06 L 4218.59,1036.18 L 4222,1038 L 4224.98,1040.45 L 4327.34,1142.81 L 4329.79,1145.8 L 4331.61,1149.2 L 4332.73,1152.89 L 4333.11,1156.73 L 4333.11,1392.81 L 4372.26,1392.81 L 4372.26,1510.92 L 4254.15,1510.92 L 4254.15,1471.85 L 3914.14,1473.58 L 3911.29,1479.96 L 3905,1488.62 L 3897.05,1495.78 L 3887.79,1501.13 L 3877.61,1504.43 L 3866.97,1505.55 L 3772.48,1505.55 L 3761.84,1504.43 L 3751.66,1501.13 L 3742.4,1495.78 L 3734.45,1488.62 L 3728.16,1479.96 L 3723.8,1470.19 L 3721.58,1459.72 z " style="fill-opacity:1.000000;fill:rgb(56,92,42);stroke:rgb(0,0,0);stroke-width:2"/></g>
<g fill-rule="evenodd"><path d="M 3721.58,1259.72 L 3721.58,1249.02 L 3723.8,1238.55 L 3728.16,1228.78 L 3734.45,1220.12 L 3742.4,1212.96 L 3751.66,1207.61 L 3761.84,1204.31 L 3772.48,1203.19 L 3866.97,1203.19 L 3877.61,1204.31 L 3887.79,1207.61 L 3897.05,1212.96 L 3905,1220.12 L 3911.29,1228.78 L 3915.64,1238.55 L 3917.87,1249.02 L 3917.87,1259.72 L 3915.64,1270.19 L 3911.29,1279.96 L 3905,1288.62 L 3897.05,1295.78 L 3887.79,1301.13 L 3877.61,1304.43 L 3866.97,1305.55 L 3772.48,1305.55 L 3761.84,1304.43 L 3751.66,1301.13 L 3742.4,1295.78 L 3734.45,1288.62 L 3728.16,1279.96 L 3723.8,1270.19 L 3721.58,1259.72 z " style="fill-opacity:1.000000;fill:rgb(236,176,59);stroke:rgb(0,0,0);stroke-width:2"/></g>
<g fill-rule="evenodd"><path d="M 3721.58,859.72 L 3721.58,849.02 L 3723.8,838.554 L 3728.16,828.78 L 3734.45,820.123 L 3742.4,812.964 L 3751.66,807.614 L 3761.84,804.307 L 3772.48,803.189 L 3866.97,803.189 L 3877.61,804.307 L 3887.79,807.614 L 3897.05,812.964 L 3905,820.123 L 3911.29,828.78 L 3915.64,838.554 L 3917.87,849.02 L 3917.87,859.72 L 3915.64,870.186 L 3911.29,879.961 L 3905,888.617 L 3897.05,895.776 L 3887.79,901.126 L 3877.61,904.433 L 3866.97,905.551 L 3772.48,905.551 L 3761.84,904.433 L 3751.66,901.126 L 3742.4,895.776 L 3734.45,888.617 L 3728.16,879.961 L 3723.8,870.186 L 3721.58,859.72 z " style="fill-opacity:1.000000;fill:rgb(251,50,175);stroke:rgb(0,0,0);stroke-width:2"/></g>
<g fill-rule="evenodd"><path d="M 4074.06,2356.73 L 4074.92,2348.55 L 4077.46,2340.72 L 4081.57,2333.59 L 4087.08,2327.47 L 4093.74,2322.64 L 4101.26,2319.29 L 4109.31,2317.58 L 4117.54,2317.58 L 4125.59,2319.29 L 4133.11,2322.64 L 4139.77,2327.47 L 4145.28,2333.59 L 4147.27,2337.05 L 4789.05,2337.05 L 4792.89,2337.43 L 4796.58,2338.55 L 4799.99,2340.36 L 4802.97,2342.81 L 4826.5,2366.34 L 4831.33,2361.52 L 4836.31,2361.52 L 4821.82,1854.84 L 4813.17,1854.84 L 4775.68,1817.35 L 4775.68,1764.33 L 4813.17,1726.84 L 4866.19,1726.84 L 4903.68,1764.33 L 4903.68,1817.35 L 4866.19,1854.84 L 4861.2,1854.84 L 4875.7,2361.52 L 4884.34,2361.52 L 4921.83,2399.01 L 4921.83,2452.02 L 4884.34,2489.51 L 4831.33,2489.51 L 4793.84,2452.02 L 4793.84,2399.01 L 4798.66,2394.18 L 4780.9,2376.42 L 4147.27,2376.42 L 4145.28,2379.87 L 4139.77,2385.99 L 4133.11,2390.83 L 4125.59,2394.18 L 4117.54,2395.89 L 4109.31,2395.89 L 4101.26,2394.18 L 4093.74,2390.83 L 4087.08,2385.99 L 4081.57,2379.87 L 4077.46,2372.75 L 4074.92,2364.92 L 4074.06,2356.73 z " style="fill-opacity:1.000000;fill:rgb(60,84,236);stroke:rgb(0,0,0);stroke-width:2"/></g>
<g fill-rule="evenodd"><path d="M 4805.44,3689.25 L 4805.44,3678.55 L 4807.66,3668.08 L 4812.01,3658.31 L 4818.3,3649.65 L 4826.26,3642.49 L 4835.52,3637.14 L 4845.7,3633.83 L 4856.34,3632.72 L 4950.83,3632.72 L 4961.47,3633.83 L 4971.64,3637.14 L 4980.91,3642.49 L 4988.86,3649.65 L 4995.15,3658.31 L 4997.78,3664.21 L 5329.07,3664.21 L 5331.7,3658.31 L 5337.99,3649.65 L 5345.94,3642.49 L 5355.21,3637.14 L 5365.38,3633.83 L 5376.02,3632.72 L 5446.61,3632.72 L 5593.74,3485.58 L 5593.74,3014.89 L 5474.5,2895.65 L 5413.43,2895.65 L 5300.61,2895.65 L 5300.61,2935.02 L 5182.5,2935.02 L 5182.5,2816.91 L 5300.61,2816.91 L 5300.61,2856.28 L 5405.27,2856.28 L 5438.15,2823.4 L 5438.15,2489.51 L 5431.33,2489.51 L 5393.84,2452.02 L 5393.84,2399.01 L 5431.33,2361.52 L 5484.34,2361.52 L 5521.83,2399.01 L 5521.83,2452.02 L 5484.34,2489.51 L 5477.52,2489.51 L 5477.52,2831.55 L 5477.14,2835.39 L 5476.02,2839.09 L 5474.2,2842.49 L 5471.75,2845.47 L 5460.95,2856.28 L 5482.66,2856.28 L 5486.5,2856.66 L 5490.19,2857.78 L 5493.59,2859.59 L 5496.57,2862.04 L 5627.34,2992.81 L 5629.79,2995.8 L 5631.61,2999.2 L 5632.73,3002.89 L 5633.11,3006.73 L 5633.11,3493.74 L 5632.73,3497.58 L 5631.61,3501.27 L 5629.79,3504.67 L 5627.34,3507.66 L 5495.47,3639.53 L 5500.6,3642.49 L 5508.55,3649.65 L 5514.84,3658.31 L 5519.19,3668.08 L 5521.41,3678.55 L 5521.41,3689.25 L 5519.19,3699.71 L 5514.84,3709.49 L 5508.55,3718.14 L 5500.6,3725.3 L 5491.33,3730.65 L 5481.15,3733.96 L 5470.51,3735.08 L 5376.02,3735.08 L 5365.38,3733.96 L 5355.21,3730.65 L 5345.94,3725.3 L 5337.99,3718.14 L 5331.7,3709.49 L 5329.07,3703.58 L 4997.78,3703.58 L 4995.15,3709.49 L 4988.86,3718.14 L 4980.91,3725.3 L 4971.64,3730.65 L 4961.47,3733.96 L 4950.83,3735.08 L 4856.34,3735.08 L 4845.7,3733.96 L 4835.52,3730.65 L 4826.26,3725.3 L 4818.3,3718.14 L 4812.01,3709.49 L 4807.66,3699.71 L 4805.44,3689.25 z " style="fill-opacity:1.000000;fill:rgb(24,219,92);stroke:rgb(0,0,0);stroke-width:2"/></g>
<g fill-rule="evenodd"><path d="M 4805.44,789.248 L 4805.44,778.548 L 4807.66,768.082 L 4812.01,758.307 L 4818.3,749.651 L 4826.26,742.491 L 4835.52,737.141 L 4845.7,733.835 L 4856.34,732.717 L 4950.83,732.717 L 4961.47,733.835 L 4971.64,737.141 L 4980.91,742.491 L 4988.86,749.651 L 4995.15,758.307 L 4997.78,764.213 L 5329.07,764.213 L 5331.7,758.307 L 5337.99,749.651 L 5345.94,742.491 L 5355.21,737.141 L 5365.38,733.835 L 5376.02,732.717 L 5470.51,732.717 L 5481.15,733.835 L 5491.33,737.141 L 5500.6,742.491 L 5508.55,749.651 L 5514.84,758.307 L 5519.19,768.082 L 5521.41,778.548 L 5521.41,789.248 L 5519.19,799.713 L 5514.84,809.488 L 5508.55,818.144 L 5500.6,825.304 L 5491.33,830.654 L 5481.15,833.96 L 5470.51,835.079 L 5442.95,835.079 L 5442.95,1118.75 L 5442.62,1122.37 L 5441.62,1125.87 L 5439.99,1129.13 L 5437.8,1132.03 L 5435.1,1134.47 L 5280.18,1251.08 L 5280.18,1329.95 L 5242.08,1329.95 L 5247.09,1562.56 L 5412.27,1727.74 L 5413.17,1726.84 L 5466.19,1726.84 L 5503.68,1764.33 L 5503.68,1817.35 L 5466.19,1854.84 L 5413.17,1854.84 L 5375.68,1817.35 L 5375.68,1764.33 L 5384.43,1755.58 L 5213.66,1584.81 L 5211.27,1581.92 L 5209.48,1578.62 L 5208.34,1575.04 L 5207.9,1571.32 L 5202.7,1329.95 L 5162.07,1329.95 L 5162.07,1211.84 L 5266.85,1211.84 L 5403.58,1108.92 L 5403.58,835.079 L 5376.02,835.079 L 5365.38,833.96 L 5355.21,830.654 L 5345.94,825.304 L 5337.99,818.144 L 5331.7,809.488 L 5329.07,803.583 L 4997.78,803.583 L 4995.15,809.488 L 4988.86,818.144 L 4980.91,825.304 L 4971.64,830.654 L 4961.47,833.96 L 4950.83,835.079 L 4856.34,835.079 L 4845.7,833.96 L 4835.52,830.654 L 4826.26,825.304 L 4818.3,818.144 L 4812.01,809.488 L 4807.66,799.713 L 4805.44,789.248 z " style="fill-opacity:1.000000;fill:rgb(2,26,254);stroke:rgb(0,0,0);stroke-width:2"/></g>
</svg>
