<?xml version="1.0" standalone="no"?>
<!DOCTYPE svg PUBLIC "-//W3C//DTD SVG 1.1//EN"
"http://www.w3.org/Graphics/SVG/1.1/DTD/svg11.dtd">
<svg width="279.689" height="219.67" viewBox="0 0 5826.85 4576.46" version="1.1"
xmlns="http://www.w3.org/2000/svg"
xmlns:xlink="http://www.w3.org/1999/xlink">
<polyline points="78.7812,4418.94 80.2952,4434.3 84.7752,4449.07 92.0512,4462.68 101.845,4474.61 113.777,4484.41 127.389,4491.68 142.161,4496.16 157.521,4497.68 5669.33,4497.68 5684.69,4496.16 5699.46,4491.68 5713.07,4484.41 5725.01,4474.61 5734.8,4462.68 5742.08,4449.07 5746.56,4434.3 5748.07,4418.94 5748.07,157.52 5746.56,142.16 5742.08,127.388 5734.8,113.776 5725.01,101.844 5713.07,92.0503 5699.46,84.7743 5684.69,80.2943 5669.33,78.7803 157.521,78.7803 142.161,80.2943 127.389,84.7743 113.777,92.0503 101.845,101.844 92.0512,113.776 84.7752,127.388 80.2952,142.16 78.7812,157.52 78.7812,4418.94" style="stroke:rgb(103,198,105);stroke-width:157.480315;fill:none;stroke-opacity:0.5;stroke-linecap:round;stroke-linejoin:round;;fill:none"/>
<polyline points="78.7812,4418.94 80.2952,4434.3 84.7752,4449.07 92.0512,4462.68 101.845,4474.61 113.777,4484.41 127.389,4491.68 142.161,4496.16 157.521,4497.68 5669.33,4497.68 5684.69,4496.16 5699.46,4491.68 5713.07,4484.41 5725.01,4474.61 5734.8,4462.68 5742.08,4449.07 5746.56,4434.3 5748.07,4418.94 5748.07,157.52 5746.56,142.16 5742.08,127.388 5734.8,113.776 5725.01,101.844 5713.07,92.0503 5699.46,84.7743 5684.69,80.2943 5669.33,78.7803 157.521,78.7803 142.161,80.2943 127.389,84.7743 113.777,92.0503 101.845,101.844 92.0512,113.776 84.7752,127.388 80.2952,142.16 78.7812,157.52 78.7812,4418.94" style="stroke:rgb(0,0,0);stroke-width:1px;fill:none;stroke-opacity:1;stroke-linecap:round;stroke-linejoin:round;;fill:none"/>
</svg>
