<?xml version="1.0" standalone="no"?>
<!DOCTYPE svg PUBLIC "-//W3C//DTD SVG 1.1//EN"
"http://www.w3.org/Graphics/SVG/1.1/DTD/svg11.dtd">
<svg width="279.689" height="219.67" viewBox="0 0 5826.85 4576.46" version="1.1"
xmlns="http://www.w3.org/2000/svg"
xmlns:xlink="http://www.w3.org/1999/xlink">
<polyline points="4210.06,157.522 4224.41,249.396 4226.6,262.952 4228.08,271.786 4228.88,276.588 4244.69,373.368 4245.44,377.92 4246.16,382.168 4246.67,385.154 4260.4,465.122 4261.07,469.064 4261.69,472.764 4263.58,483.634 4267.76,506.734 4275.66,561.982 4276.79,572.682 4279.8,610.852 4280.8,649.022 4280.8,659.72 4280.58,677.89 4247.48,704.08 4243.28,707.386 4221.62,724.324 4211.06,732.722 4210.77,732.958 4183.02,754.37 4104.75,754.37 4104.71,754.372 4078.44,754.372 4078.4,754.372 4013.72,754.372 3995.52,754.372 3964.21,754.372 3949.81,754.372 3930.88,754.372 3918.53,754.372 3905.08,754.372 3893.83,754.372 3882.86,754.372 3872.1,754.372 3866.97,754.372 3772.48,754.372 3767.35,754.372 3756.59,754.372 3745.61,754.372 3734.36,754.372 3720.92,754.372 3708.56,754.372 3690.98,754.372 3689.97,754.756 3679.27,758.864 3661.23,766.922 3650.53,772.374 3629.21,784.726 3618.51,791.674 3592.5,810.654 3581.8,819.318 3548.98,849.022 3538.28,859.72 3516.75,882.506 3495.23,907.818 3484.53,921.032 3458.91,954.372 3430.53,976.236 3419.83,984.902 3384.41,1015.28 3348.98,1049.02 3338.28,1059.72 3303.15,1096.46 3306.97,1147.82 3307.66,1154.37 3306.97,1160.92 3303.5,1204.97 3302.35,1249.02 3302.35,1259.72 3303.5,1303.77 3306.97,1347.82 3307.66,1354.37 3306.97,1360.92 3303.5,1404.97 3302.35,1449.02 3302.35,1459.72 3303.5,1503.77 3306.97,1547.82 3307.66,1554.37 3306.97,1547.82 3303.5,1503.77 3302.35,1459.72 3302.35,1449.02 3303.5,1404.97 3306.97,1360.92 3307.66,1354.37 3327.64,1354.37 3534.7,1354.37 3534.74,1354.37 3561.01,1354.37 3561.04,1354.37 3625.76,1354.37 3643.96,1354.37 3675.23,1354.37 3689.62,1354.37 3708.56,1354.37 3720.92,1354.37 3734.36,1354.37 3745.61,1354.37 3756.59,1354.37 3767.35,1354.37 3772.48,1354.37 3866.97,1354.37 3872.1,1354.37 3882.86,1354.37 3893.83,1354.37 3905.08,1354.37 3918.53,1354.37 3930.88,1354.37 3949.81,1354.37 3951.01,1354.37 3960.8,1350.59 3979.02,1342.39 3989.69,1336.92 4011.14,1324.41 4021.81,1317.45 4047.89,1298.32 4058.55,1289.64 4091.45,1259.72 4097.48,1253.66 4092.83,1249.02 4059.53,1218.89 4048.83,1210.23 4022.47,1190.99 4011.77,1184.04 3990.13,1171.51 3979.43,1166.06 3961.07,1157.85 3952.01,1154.37 3949.81,1154.37 3930.88,1154.37 3918.53,1154.37 3905.08,1154.37 3893.83,1154.37 3882.86,1154.37 3872.1,1154.37 3866.97,1154.37 3772.48,1154.37 3767.35,1154.37 3756.59,1154.37 3745.61,1154.37 3734.36,1154.37 3720.92,1154.37 3708.56,1154.37 3689.62,1154.37 3675.23,1154.37 3643.96,1154.37 3625.76,1154.37 3561.04,1154.37 3561.01,1154.37 3534.74,1154.37 3534.7,1154.37 3327.64,1154.37 3307.66,1154.37 3306.97,1147.82 3303.15,1096.46 3338.28,1059.72 3348.98,1049.02 3384.41,1015.28 3419.83,984.902 3430.53,976.236 3458.91,954.372 3534.7,954.372 3534.74,954.372 3561.01,954.372 3561.04,954.372 3625.76,954.372 3643.96,954.372 3675.23,954.372 3689.62,954.372 3708.56,954.372 3720.92,954.372 3734.36,954.372 3745.61,954.372 3756.59,954.372 3767.35,954.372 3772.48,954.372 3866.97,954.372 3872.1,954.372 3882.86,954.372 3893.83,954.372 3905.08,954.372 3918.53,954.372 3930.88,954.372 3949.81,954.372 3952.01,954.372 3961.07,950.892 3979.43,942.688 3990.13,937.236 4011.78,924.696 4022.48,917.746 4048.84,898.516 4059.54,889.852 4092.83,859.722 4103.54,849.02 4125.36,825.918 4147.18,800.25 4157.88,787.034 4183.02,754.37 4210.77,732.958 4211.06,732.722 4221.62,724.324 4243.28,707.386 4247.48,704.08 4280.58,677.89 4311.38,717.02 4314.24,720.878 4335.61,751.138 4354.82,781.396 4357.13,785.256 4385.72,838.574 4387.54,842.432 4398.43,866.994 4436.98,960.048 4446.44,981.28 4448.37,985.32 4460.85,1009.31 4468.53,1022.95 4470.05,1025.67 4470.62,1026.7 4471.95,1029.09 4489.55,1060.38 4489.89,1061 4491.45,1063.74 4491.97,1064.68 4509.17,1095.34 4511.12,1098.78 4511.46,1099.36 4513.61,1103.14 4524.06,1121.82 4530.33,1133.44 4532.24,1137.13 4541.81,1156.73 4587.83,1257.12 4621.17,1300.18 4610.42,1348.05 4596.09,1392.81 4588.7,1412.58 4490.37,1510.92 4468.41,1530.84 4446.45,1546.67 4424.49,1558.42 4402.53,1566.09 4396.92,1565.03 4383.64,1562.27 4372.26,1559.26 4370.89,1558.82 4361.14,1556.2 4348.8,1553.58 4340.04,1552.18 4327.69,1550.89 4319.38,1550.45 4307.03,1550.45 4298.72,1550.89 4286.37,1552.18 4277.61,1553.58 4265.26,1556.2 4255.52,1558.82 4254.15,1559.26 4242.77,1562.27 4229.49,1565.03 4216.73,1567.15 4200.83,1561.32 4184.93,1553.45 3952.89,1554.03 3952.01,1554.37 3949.81,1554.37 3930.88,1554.37 3918.53,1554.37 3905.08,1554.37 3893.83,1554.37 3882.86,1554.37 3872.1,1554.37 3866.97,1554.37 3772.48,1554.37 3767.35,1554.37 3756.59,1554.37 3745.61,1554.37 3734.36,1554.37 3720.92,1554.37 3708.56,1554.37 3689.62,1554.37 3675.23,1554.37 3643.96,1554.37 3625.76,1554.37 3561.04,1554.37 3561.01,1554.37 3534.74,1554.37 3534.7,1554.37 3327.64,1554.37 3307.66,1554.37 3306.97,1560.92 3303.5,1604.97 3302.35,1649.02 3302.35,1659.72 3303.5,1703.77 3306.97,1747.82 3307.66,1754.37 3306.97,1760.92 3303.5,1804.97 3302.35,1849.02 3302.35,1859.72 3303.2,1897.53 3309.31,1903.04 3317.54,1910.37 3349.69,1938.75 3359.57,1947.59 3367.04,1954.37 3373.77,1964.17 3382.4,1976.95 3388.13,1985.57 3394.53,1995.06 3431.35,2049.02 3438.51,2059.72 3440.1,2062.15 3445.5,2070.25 3473.98,2112.33 3479.68,2120.93 3480.33,2121.92 3484.52,2128.27 3502,2154.37 3507.17,2176.71 3509.37,2185.81 3511.27,2193.39 3514.01,2204.91 3520.23,2232.57 3522.2,2240.93 3524.19,2249.02 3526.67,2259.72 3531.43,2281.6 3533.28,2289.66 3535.58,2299.24 3537.93,2309.68 3541.91,2328.54 3543.7,2336.63 3546.61,2349.07 3547.8,2354.37 3546.67,2359.68 3542.91,2376.75 3541.21,2384.85 3538.38,2399.15 3536.15,2409.61 3532.95,2423.7 3531.2,2431.78 3527.67,2449.02 3525.32,2459.72 3522.31,2472.6 3520.44,2481.02 3515.67,2503.47 3513.08,2514.96 3509.93,2528.16 3507.83,2537.34 3504.1,2554.37 3507.83,2537.34 3509.93,2528.16 3513.08,2514.96 3515.67,2503.47 3520.44,2481.02 3522.31,2472.6 3525.32,2459.72 3527.67,2449.02 3531.2,2431.78 3532.95,2423.7 3536.15,2409.61 3538.38,2399.15 3541.21,2384.85 3542.91,2376.75 3546.67,2359.68 3547.8,2354.37 3561.01,2354.37 3561.04,2354.37 3625.76,2354.37 3643.96,2354.37 3675.23,2354.37 3689.62,2354.37 3708.56,2354.37 3720.92,2354.37 3734.36,2354.37 3745.61,2354.37 3756.59,2354.37 3767.35,2354.37 3772.48,2354.37 3866.97,2354.37 3872.1,2354.37 3882.86,2354.37 3893.83,2354.37 3905.08,2354.37 3918.53,2354.37 3930.88,2354.37 3949.81,2354.37 3964.21,2354.37 3976.76,2354.37 3980.77,2365.08 3981.31,2366.5 3984.37,2374.45 3984.74,2375.42 3991.24,2392.09 3991.61,2393.02 3994.2,2399.78 3995.48,2403 4001.1,2416.83 4002.39,2420.1 4004.12,2424.6 4006.37,2430.19 4011.7,2442.8 4014.2,2449.02 4014.95,2450.95 4018.54,2459.72 4024.15,2472.59 4027.84,2481.52 4028.52,2483.25 4033.55,2495.26 4040.39,2510.62 4044.8,2520.95 4048.17,2529.18 4054.42,2543.67 4059.25,2554.37 4054.42,2543.67 4048.17,2529.18 4044.8,2520.95 4040.39,2510.62 4033.55,2495.26 4028.52,2483.25 4027.84,2481.52 4024.15,2472.59 4018.54,2459.72 4014.95,2450.95 4014.2,2449.02 4011.7,2442.8 4006.37,2430.19 4004.12,2424.6 4002.39,2420.1 4001.1,2416.83 3995.48,2403 3994.2,2399.78 3991.61,2393.02 3991.24,2392.09 3984.74,2375.42 3984.37,2374.45 3981.31,2366.5 3980.77,2365.08 3976.76,2354.37 3979.8,2346.81 3980.98,2343.81 3982.89,2338.85 3985.03,2333.52 3990.25,2321.05 3992.28,2316.01 3993.28,2313.38 3996.28,2306.08 4000.54,2296.3 4003.58,2288.89 4003.68,2288.61 4007.76,2278.84 4011.52,2270.5 4014.93,2262.49 4016.04,2259.72 4020.66,2249.02 4024.33,2241.11 4028.17,2232.4 4031.31,2224.89 4036.7,2212.8 4040.88,2203.94 4045.42,2193.91 4052.52,2177.61 4059.22,2162.91 4063.29,2154.37 4013.72,2154.37 3995.52,2154.37 3964.21,2154.37 3949.81,2154.37 3930.88,2154.37 3918.53,2154.37 3905.08,2154.37 3893.83,2154.37 3882.86,2154.37 3872.1,2154.37 3866.97,2154.37 3772.48,2154.37 3767.35,2154.37 3756.59,2154.37 3745.61,2154.37 3734.36,2154.37 3720.92,2154.37 3708.56,2154.37 3689.62,2154.37 3675.23,2154.37 3643.96,2154.37 3625.76,2154.37 3561.04,2154.37 3561.01,2154.37 3534.74,2154.37 3534.7,2154.37 3502,2154.37 3484.52,2128.27 3480.33,2121.92 3479.68,2120.93 3473.98,2112.33 3445.5,2070.25 3440.1,2062.15 3438.51,2059.72 3431.35,2049.02 3394.53,1995.06 3388.13,1985.57 3382.4,1976.95 3373.77,1964.17 3367.04,1954.37 3359.57,1947.59 3349.69,1938.75 3317.54,1910.37 3309.31,1903.04 3303.2,1897.53 3309.31,1903.04 3317.54,1910.37 3349.69,1938.75 3359.57,1947.59 3367.04,1954.37 3534.7,1954.37 3534.74,1954.37 3561.01,1954.37 3561.04,1954.37 3625.76,1954.37 3643.96,1954.37 3675.23,1954.37 3689.62,1954.37 3708.56,1954.37 3720.92,1954.37 3734.36,1954.37 3745.61,1954.37 3756.59,1954.37 3767.35,1954.37 3772.48,1954.37 3866.97,1954.37 3872.1,1954.37 3882.86,1954.37 3893.83,1954.37 3905.08,1954.37 3918.53,1954.37 3930.88,1954.37 3949.81,1954.37 3964.21,1954.37 3995.52,1954.37 4013.72,1954.37 4078.4,1954.37 4078.44,1954.37 4104.71,1954.37 4104.75,1954.37 4177.97,1954.37 4181.92,1958.82 4199.04,1978.28 4207.28,1987.47 4229.65,2011.98 4235.24,2018.18 4229.44,2024.52 4197.55,2049.02 4183.91,2059.72 4180.14,2062.73 4170.03,2070.69 4126.81,2104.16 4117.54,2111.5 4115.95,2112.79 4109.31,2118.08 4078.1,2142.51 4072.96,2146.6 4068.71,2150.04 4065.77,2152.4 4063.29,2154.37 4059.22,2162.91 4052.52,2177.61 4045.42,2193.91 4040.88,2203.94 4036.7,2212.8 4031.31,2224.89 4028.17,2232.4 4024.33,2241.11 4020.66,2249.02 4016.04,2259.72 4014.93,2262.49 4011.52,2270.5 4007.76,2278.84 4003.68,2288.61 4003.58,2288.89 4000.54,2296.3 3996.28,2306.08 3993.28,2313.38 3992.28,2316.01 3990.25,2321.05 3985.03,2333.52 3982.89,2338.85 3980.98,2343.81 3979.8,2346.81 3976.76,2354.37 3980.77,2365.08 3981.31,2366.5 3984.37,2374.45 3984.74,2375.42 3991.24,2392.09 3991.61,2393.02 3994.2,2399.78 3995.48,2403 4001.1,2416.83 4002.39,2420.1 4004.12,2424.6 4006.37,2430.19 4011.7,2442.8 4014.2,2449.02 4014.95,2450.95 4018.54,2459.72 4024.15,2472.59 4027.84,2481.52 4028.52,2483.25 4033.55,2495.26 4040.39,2510.62 4044.8,2520.95 4048.17,2529.18 4054.42,2543.67 4059.25,2554.37 4066.03,2559.86 4073.21,2565.67 4075.38,2567.42 4109.31,2594.5 4112.12,2596.76 4117.54,2601.15 4122.88,2605.41 4169.99,2642.57 4178.05,2649.02 4180.13,2650.7 4191.46,2659.72 4229.53,2689.5 4267.76,2734.14 4278.46,2747.35 4284.1,2754.37 4278.46,2747.35 4267.76,2734.14 4229.53,2689.5 4191.46,2659.72 4180.13,2650.7 4178.05,2649.02 4169.99,2642.57 4122.88,2605.41 4117.54,2601.15 4112.12,2596.76 4109.31,2594.5 4075.38,2567.42 4073.21,2565.67 4066.03,2559.86 4059.25,2554.37 4013.72,2554.37 3995.52,2554.37 3964.21,2554.37 3949.81,2554.37 3930.88,2554.37 3918.53,2554.37 3905.08,2554.37 3893.83,2554.37 3882.86,2554.37 3872.1,2554.37 3866.97,2554.37 3772.48,2554.37 3767.35,2554.37 3756.59,2554.37 3745.61,2554.37 3734.36,2554.37 3720.92,2554.37 3708.56,2554.37 3689.62,2554.37 3675.23,2554.37 3643.96,2554.37 3625.76,2554.37 3561.04,2554.37 3561.01,2554.37 3534.74,2554.37 3534.7,2554.37 3504.1,2554.37 3484.16,2584.69 3482.47,2587.27 3479.35,2592.08 3476.2,2596.87 3445.46,2643.12 3445.45,2643.14 3442.98,2649.02 3439.78,2656.73 3408.7,2656.73 3375.14,2657.53 3369.94,2657.79 3315.54,2663.03 3310.79,2663.74 3268.37,2672.1 3264,2673.2 3229.82,2683.52 3225.8,2684.96 3211.06,2690.64 3095.29,2738.59 3086.05,2742.16 3082.19,2743.54 3064.85,2748.82 3060.99,2749.78 3044.66,2753.04 3040.8,2753.61 3025.05,2755.17 3021.2,2755.36 3013.42,2755.55 2151.55,2755.55 2149.47,2754.75 2148.47,2754.37 2130.89,2754.37 2118.53,2754.37 2105.09,2754.37 2093.84,2754.37 2082.86,2754.37 2072.1,2754.37 2066.97,2754.37 1972.48,2754.37 1967.35,2754.37 1956.59,2754.37 1945.62,2754.37 1934.37,2754.37 1920.92,2754.37 1908.57,2754.37 1890.98,2754.37 1889.97,2754.75 1879.28,2758.86 1861.23,2766.92 1850.53,2772.37 1829.22,2784.72 1818.52,2791.67 1792.5,2810.65 1781.8,2819.31 1748.98,2849.02 1738.28,2859.72 1716.76,2882.5 1695.24,2907.81 1684.54,2921.03 1658.91,2954.37 1734.7,2954.37 1734.74,2954.37 1761.01,2954.37 1761.05,2954.37 1825.76,2954.37 1843.96,2954.37 1875.23,2954.37 1889.63,2954.37 1908.57,2954.37 1920.92,2954.37 1934.37,2954.37 1945.62,2954.37 1956.59,2954.37 1967.35,2954.37 1972.48,2954.37 2066.97,2954.37 2072.1,2954.37 2082.86,2954.37 2093.84,2954.37 2105.09,2954.37 2118.53,2954.37 2130.89,2954.37 2149.81,2954.37 2152.01,2954.37 2211.07,2954.37 2218.94,2954.56 2222.81,2954.75 2238.82,2956.33 2242.68,2956.9 2259.22,2960.2 2263.08,2961.17 2280.73,2966.54 2284.59,2967.92 2293.92,2971.53 2297.25,2972.91 2438.67,3031.49 2454.44,3038.48 2458.29,3040.3 2492.65,3058.72 2496.51,3061.03 2535.67,3087.29 2539.53,3090.15 2577.56,3120.95 2539.53,3090.15 2535.67,3087.29 2496.51,3061.03 2492.65,3058.72 2458.29,3040.3 2454.44,3038.48 2438.67,3031.49 2297.25,2972.91 2293.92,2971.53 2284.59,2967.92 2280.73,2966.54 2263.08,2961.17 2259.22,2960.2 2242.68,2956.9 2238.82,2956.33 2222.81,2954.75 2218.94,2954.56 2211.07,2954.37 2152.01,2954.37 2149.81,2954.37 2130.89,2954.37 2118.53,2954.37 2105.09,2954.37 2093.84,2954.37 2082.86,2954.37 2072.1,2954.37 2066.97,2954.37 1972.48,2954.37 1967.35,2954.37 1956.59,2954.37 1945.62,2954.37 1934.37,2954.37 1920.92,2954.37 1908.57,2954.37 1889.63,2954.37 1875.23,2954.37 1843.96,2954.37 1825.76,2954.37 1761.05,2954.37 1761.01,2954.37 1734.74,2954.37 1734.7,2954.37 1658.91,2954.37 1630.54,2976.23 1619.84,2984.9 1578.54,3020.63 1592.85,3049.02 1598.13,3059.72 1600.78,3065.21 1602.64,3069.02 1614.08,3092.32 1664.66,3107.97 1676.98,3111.69 1698.48,3118.06 1737.86,3128.75 1774.46,3136.67 1793.04,3140.11 1797.64,3140.94 1818.96,3144.69 1824.75,3145.67 1835.39,3147.37 1849.91,3150.05 1854.75,3151.07 1859.65,3152.05 1871.81,3154.37 1875.23,3154.37 1889.63,3154.37 1908.57,3154.37 1920.92,3154.37 1934.37,3154.37 1945.62,3154.37 1956.59,3154.37 1967.35,3154.37 1972.48,3154.37 2066.97,3154.37 2072.1,3154.37 2082.86,3154.37 2093.84,3154.37 2105.09,3154.37 2118.53,3154.37 2130.89,3154.37 2149.81,3154.37 2152.01,3154.37 2161.08,3157.85 2167.18,3160.32 2175.23,3169.11 2182.2,3177.27 2193.59,3192.13 2199.76,3201.1 2201.19,3203.22 2203.71,3219.82 2204.84,3230.52 2205.81,3249.02 2205.81,3259.72 2204.84,3278.21 2203.71,3288.91 2200.67,3308.03 2198.4,3318.73 2192.89,3339.23 2189.41,3349.93 2187.92,3354.37 2189.41,3358.8 2192.89,3369.5 2198.4,3389.99 2200.67,3400.69 2203.71,3419.82 2204.84,3430.52 2205.81,3449.02 2205.81,3459.72 2204.84,3478.21 2203.71,3488.91 2200.67,3508.03 2198.4,3518.73 2192.89,3539.23 2189.41,3549.93 2180.67,3572.65 2175.9,3583.35 2162.62,3609.33 2156.44,3620.03 2136.4,3650.76 2128.63,3661.46 2115.42,3678.7 2128.63,3661.46 2136.4,3650.76 2156.44,3620.03 2162.62,3609.33 2175.9,3583.35 2180.67,3572.65 2189.41,3549.93 2192.89,3539.23 2198.4,3518.73 2200.67,3508.03 2203.71,3488.91 2204.84,3478.21 2205.81,3459.72 2205.81,3449.02 2204.84,3430.52 2203.71,3419.82 2200.67,3400.69 2198.4,3389.99 2192.89,3369.5 2189.41,3358.8 2187.92,3354.37 2164.21,3354.37 2149.81,3354.37 2130.89,3354.37 2118.53,3354.37 2105.09,3354.37 2093.84,3354.37 2082.86,3354.37 2072.1,3354.37 2066.97,3354.37 1972.48,3354.37 1967.35,3354.37 1956.59,3354.37 1945.62,3354.37 1937.98,3354.37 1935.48,3357.8 1928.81,3368.03 1922.64,3378.73 1918.63,3386.57 1913.87,3397.27 1911.49,3403.44 1908.01,3414.14 1906.65,3419.2 1904.38,3429.9 1903.69,3434.28 1902.56,3444.97 1902.35,3449.02 1902.35,3459.72 1902.56,3463.76 1903.69,3474.46 1904.38,3478.83 1906.65,3489.53 1908.01,3494.6 1911.49,3505.3 1913.87,3511.47 1918.63,3522.17 1922.64,3530 1928.81,3540.7 1935.48,3550.93 1943.26,3561.63 1954.39,3575.32 1964.03,3586.02 1972.48,3594.92 2019.6,3642.04 2066.97,3661.66 2084.06,3668.21 2095.24,3672.17 2115.42,3678.7 2205.05,3895.09 2208.35,3903.62 2209.73,3907.48 2214.59,3923.46 2215.56,3927.32 2218.56,3942.36 2219.13,3946.22 2220.56,3960.72 2220.75,3964.58 2220.92,3971.72 2220.92,4069.83 2222.88,4074.69 2227.9,4087.75 2228.42,4089.13 2228.42,4103.26 2228.42,4118.35 2228.42,4129.18 2228.42,4142.91 2228.42,4151.45 2228.42,4164.59 2228.42,4168.54 2228.42,4216.02 2228.42,4219.96 2228.42,4233.1 2228.42,4241.64 2228.42,4255.37 2228.42,4266.21 2228.42,4280.39 2227.65,4280.84 2216.5,4286.54 2203.43,4292.36 2194.47,4295.81 2181.41,4300.05 2173.88,4302.07 2160.82,4304.85 2154.2,4305.9 2141.14,4307.27 2134.95,4307.6 2121.89,4307.6 2115.7,4307.27 2102.64,4305.9 2096.02,4304.85 2082.96,4302.07 2075.44,4300.05 2062.37,4295.81 2053.4,4292.35 2040.34,4286.54 2029.2,4280.84 2028.42,4280.39 2028.42,4266.21 2028.42,4255.37 2028.42,4241.64 2028.42,4233.1 2028.42,4219.96 2028.42,4216.02 2028.42,4168.54 2028.42,4164.59 2028.42,4151.45 2028.42,4142.91 2028.42,4129.18 2028.42,4118.35 2028.42,4103.26 2028.42,4087.28 2028.42,4069.7 2028.42,4066.75 2021.51,4051.54 2014.85,4038.47 2005.85,4022.49 2001.84,4019.67 1990.89,4012.14 1970.94,3999.93 1958.97,3993.43 1934.95,3982.01 1921.89,3976.6 1892.06,3966.08 1877.81,3961.86 1839.49,3952.72 1823.91,3949.84 1807.28,3947.08 1747.74,3922.42 1718.45,3851.71 1711.57,3833.88 1710.19,3830.03 1699.94,3796.33 1698.97,3792.47 1692.61,3760.56 1692.04,3756.71 1688.99,3725.84 1688.8,3721.98 1688.43,3706.73 1688.43,3456.73 1688.05,3441.49 1687.86,3437.63 1684.82,3406.75 1684.24,3402.9 1677.88,3370.99 1676.91,3367.13 1666.66,3333.43 1665.28,3329.58 1658.4,3311.76 1656.32,3306.73 1648.93,3287.56 1647.49,3283.54 1634.1,3239.18 1633,3234.81 1622.18,3179.94 1621.48,3175.18 1617.31,3140.91 1614.72,3105.06 1614.53,3101.3 1614.46,3099.85 1614.08,3092.32 1602.64,3069.02 1600.78,3065.21 1598.13,3059.72 1592.85,3049.02 1578.54,3020.63 1563.43,3016.5 1556.76,3014.76 1552.93,3013.75 1530.8,3007.84 1527.02,3006.84 1489.18,2996.96 1485.44,2995.98 1464.25,2990.31 1460.52,2989.33 1422.65,2979.45 1418.87,2978.45 1396.76,2972.54 1392.93,2971.53 1386.26,2969.79 1324.59,2950.71 1320.74,2949.33 1284.73,2935.43 1219.27,2908.31 1215.71,2898.28 1200.14,2857.6 1182.84,2818.65 1177.2,2806.83 1160.97,2774.8 1159.7,2773.77 1108.71,2750.53 1092.35,2742.87 1026.36,2711.13 1021.9,2708.96 989.935,2679.13 936.917,2626.11 915.829,2603.35 898.073,2580.6 883.649,2557.84 872.557,2535.09 850.597,2482.07 843.011,2457.65 840.485,2433.24 840.485,2380.22 843.011,2355.81 850.597,2331.39 862.639,2302.32 862.639,1911.15 850.597,1882.07 843.011,1857.66 840.485,1833.24 840.485,1780.22 843.011,1755.81 850.597,1731.39 872.557,1678.37 883.649,1655.62 898.073,1632.86 915.829,1610.11 936.917,1587.36 988.581,1535.69 989.933,1536.88 1015.45,1559.28 1018.59,1562.06 1044.77,1585.49 1047.58,1588.04 1069.68,1608.24 1072.31,1610.67 1082.5,1620.2 1097.47,1635.2 1133.62,1674.03 1153.34,1697.5 1170.69,1723.02 1185.68,1750.6 1198.29,1780.22 1218.07,1833.24 1229,1866.77 1237.55,1902.37 1243.71,1940.03 1247.49,1979.75 1286.32,2083.84 1313.43,2096.22 1340.73,2109.5 1344.42,2111.41 1392.53,2139.32 1395.9,2141.51 1437.16,2171.22 1440.22,2173.67 1476.21,2205.4 1478.98,2208.1 1495.34,2224.82 1666.28,2408.41 1680.78,2415.03 1704.05,2424.92 1708.26,2426.57 1714.47,2428.96 1733.55,2449.02 1744.26,2459.72 1777.98,2490.23 1788.68,2498.9 1815.44,2518.42 1826.14,2525.37 1848.13,2538.11 1858.83,2543.57 1877.46,2551.89 1883.92,2554.37 1889.63,2554.37 1908.57,2554.37 1920.92,2554.37 1934.37,2554.37 1945.62,2554.37 1956.59,2554.37 1967.35,2554.37 1972.48,2554.37 2066.97,2554.37 2072.1,2554.37 2082.86,2554.37 2093.84,2554.37 2105.09,2554.37 2118.53,2554.37 2130.89,2554.37 2149.81,2554.37 2155.54,2554.37 2161.98,2551.89 2180.64,2543.56 2191.34,2538.11 2213.31,2525.37 2224.01,2518.42 2250.75,2498.92 2261.45,2490.25 2295.2,2459.72 2305.9,2449.02 2328,2425.62 2350.1,2399.63 2360.8,2386.41 2385.5,2354.37 2412.69,2333.36 2423.39,2324.7 2474.44,2279.91 2476.98,2259.72 2478.4,2249.02 2480.15,2236.59 2480.63,2233.1 2476.79,2172.68 2475.67,2161.98 2474.83,2154.37 2304.75,2154.37 2304.71,2154.37 2278.44,2154.37 2278.41,2154.37 2213.73,2154.37 2195.52,2154.37 2164.21,2154.37 2149.81,2154.37 2130.89,2154.37 2118.53,2154.37 2105.09,2154.37 2093.84,2154.37 2082.86,2154.37 2072.1,2154.37 2066.97,2154.37 1972.48,2154.37 1967.35,2154.37 1956.59,2154.37 1945.62,2154.37 1934.37,2154.37 1920.92,2154.37 1908.57,2154.37 1898.03,2154.37 1893.56,2150 1886.05,2142.35 1876.06,2131.04 1869.4,2122.66 1860.46,2110.1 1854.65,2100.97 1846.55,2086.6 1841.63,2076.71 1834.27,2059.72 1830.28,2049.02 1823.77,2028.24 1820.79,2016.66 1815.49,1990.33 1813.63,1977.78 1811.04,1954.37 1799.3,1937.33 1793.5,1928.2 1778.23,1901.12 1773.3,1891.23 1759.67,1859.72 1755.67,1849.02 1743.85,1811.25 1740.86,1799.68 1731.68,1754.37 1709.91,1715.64 1704.98,1705.75 1685.06,1659.72 1681.07,1649.02 1663.92,1594.27 1660.94,1582.7 1654.34,1554.37 1641.58,1530.16 1636.66,1520.27 1622.87,1490.59 1610.45,1459.72 1606.46,1449.02 1594.42,1413.86 1583.99,1377.28 1581.93,1369.27 1582.27,1365.98 1583.59,1354.37 1582.27,1342.76 1581.15,1332.06 1578.3,1295.89 1577.35,1259.72 1577.35,1249.02 1577.91,1221.22 1619.84,1184.9 1630.54,1176.24 1658.91,1154.37" style="stroke:rgb(103,198,105);stroke-width:0.000000;fill:none;stroke-opacity:0.5;stroke-linecap:round;stroke-linejoin:round;;fill:none"/>
<polyline points="4210.06,157.522 4224.41,249.396 4226.6,262.952 4228.08,271.786 4228.88,276.588 4244.69,373.368 4245.44,377.92 4246.16,382.168 4246.67,385.154 4260.4,465.122 4261.07,469.064 4261.69,472.764 4263.58,483.634 4267.76,506.734 4275.66,561.982 4276.79,572.682 4279.8,610.852 4280.8,649.022 4280.8,659.72 4280.58,677.89 4247.48,704.08 4243.28,707.386 4221.62,724.324 4211.06,732.722 4210.77,732.958 4183.02,754.37 4104.75,754.37 4104.71,754.372 4078.44,754.372 4078.4,754.372 4013.72,754.372 3995.52,754.372 3964.21,754.372 3949.81,754.372 3930.88,754.372 3918.53,754.372 3905.08,754.372 3893.83,754.372 3882.86,754.372 3872.1,754.372 3866.97,754.372 3772.48,754.372 3767.35,754.372 3756.59,754.372 3745.61,754.372 3734.36,754.372 3720.92,754.372 3708.56,754.372 3690.98,754.372 3689.97,754.756 3679.27,758.864 3661.23,766.922 3650.53,772.374 3629.21,784.726 3618.51,791.674 3592.5,810.654 3581.8,819.318 3548.98,849.022 3538.28,859.72 3516.75,882.506 3495.23,907.818 3484.53,921.032 3458.91,954.372 3430.53,976.236 3419.83,984.902 3384.41,1015.28 3348.98,1049.02 3338.28,1059.72 3303.15,1096.46 3306.97,1147.82 3307.66,1154.37 3306.97,1160.92 3303.5,1204.97 3302.35,1249.02 3302.35,1259.72 3303.5,1303.77 3306.97,1347.82 3307.66,1354.37 3306.97,1360.92 3303.5,1404.97 3302.35,1449.02 3302.35,1459.72 3303.5,1503.77 3306.97,1547.82 3307.66,1554.37 3306.97,1547.82 3303.5,1503.77 3302.35,1459.72 3302.35,1449.02 3303.5,1404.97 3306.97,1360.92 3307.66,1354.37 3327.64,1354.37 3534.7,1354.37 3534.74,1354.37 3561.01,1354.37 3561.04,1354.37 3625.76,1354.37 3643.96,1354.37 3675.23,1354.37 3689.62,1354.37 3708.56,1354.37 3720.92,1354.37 3734.36,1354.37 3745.61,1354.37 3756.59,1354.37 3767.35,1354.37 3772.48,1354.37 3866.97,1354.37 3872.1,1354.37 3882.86,1354.37 3893.83,1354.37 3905.08,1354.37 3918.53,1354.37 3930.88,1354.37 3949.81,1354.37 3951.01,1354.37 3960.8,1350.59 3979.02,1342.39 3989.69,1336.92 4011.14,1324.41 4021.81,1317.45 4047.89,1298.32 4058.55,1289.64 4091.45,1259.72 4097.48,1253.66 4092.83,1249.02 4059.53,1218.89 4048.83,1210.23 4022.47,1190.99 4011.77,1184.04 3990.13,1171.51 3979.43,1166.06 3961.07,1157.85 3952.01,1154.37 3949.81,1154.37 3930.88,1154.37 3918.53,1154.37 3905.08,1154.37 3893.83,1154.37 3882.86,1154.37 3872.1,1154.37 3866.97,1154.37 3772.48,1154.37 3767.35,1154.37 3756.59,1154.37 3745.61,1154.37 3734.36,1154.37 3720.92,1154.37 3708.56,1154.37 3689.62,1154.37 3675.23,1154.37 3643.96,1154.37 3625.76,1154.37 3561.04,1154.37 3561.01,1154.37 3534.74,1154.37 3534.7,1154.37 3327.64,1154.37 3307.66,1154.37 3306.97,1147.82 3303.15,1096.46 3338.28,1059.72 3348.98,1049.02 3384.41,1015.28 3419.83,984.902 3430.53,976.236 3458.91,954.372 3534.7,954.372 3534.74,954.372 3561.01,954.372 3561.04,954.372 3625.76,954.372 3643.96,954.372 3675.23,954.372 3689.62,954.372 3708.56,954.372 3720.92,954.372 3734.36,954.372 3745.61,954.372 3756.59,954.372 3767.35,954.372 3772.48,954.372 3866.97,954.372 3872.1,954.372 3882.86,954.372 3893.83,954.372 3905.08,954.372 3918.53,954.372 3930.88,954.372 3949.81,954.372 3952.01,954.372 3961.07,950.892 3979.43,942.688 3990.13,937.236 4011.78,924.696 4022.48,917.746 4048.84,898.516 4059.54,889.852 4092.83,859.722 4103.54,849.02 4125.36,825.918 4147.18,800.25 4157.88,787.034 4183.02,754.37 4210.77,732.958 4211.06,732.722 4221.62,724.324 4243.28,707.386 4247.48,704.08 4280.58,677.89 4311.38,717.02 4314.24,720.878 4335.61,751.138 4354.82,781.396 4357.13,785.256 4385.72,838.574 4387.54,842.432 4398.43,866.994 4436.98,960.048 4446.44,981.28 4448.37,985.32 4460.85,1009.31 4468.53,1022.95 4470.05,1025.67 4470.62,1026.7 4471.95,1029.09 4489.55,1060.38 4489.89,1061 4491.45,1063.74 4491.97,1064.68 4509.17,1095.34 4511.12,1098.78 4511.46,1099.36 4513.61,1103.14 4524.06,1121.82 4530.33,1133.44 4532.24,1137.13 4541.81,1156.73 4587.83,1257.12 4621.17,1300.18 4610.42,1348.05 4596.09,1392.81 4588.7,1412.58 4490.37,1510.92 4468.41,1530.84 4446.45,1546.67 4424.49,1558.42 4402.53,1566.09 4396.92,1565.03 4383.64,1562.27 4372.26,1559.26 4370.89,1558.82 4361.14,1556.2 4348.8,1553.58 4340.04,1552.18 4327.69,1550.89 4319.38,1550.45 4307.03,1550.45 4298.72,1550.89 4286.37,1552.18 4277.61,1553.58 4265.26,1556.2 4255.52,1558.82 4254.15,1559.26 4242.77,1562.27 4229.49,1565.03 4216.73,1567.15 4200.83,1561.32 4184.93,1553.45 3952.89,1554.03 3952.01,1554.37 3949.81,1554.37 3930.88,1554.37 3918.53,1554.37 3905.08,1554.37 3893.83,1554.37 3882.86,1554.37 3872.1,1554.37 3866.97,1554.37 3772.48,1554.37 3767.35,1554.37 3756.59,1554.37 3745.61,1554.37 3734.36,1554.37 3720.92,1554.37 3708.56,1554.37 3689.62,1554.37 3675.23,1554.37 3643.96,1554.37 3625.76,1554.37 3561.04,1554.37 3561.01,1554.37 3534.74,1554.37 3534.7,1554.37 3327.64,1554.37 3307.66,1554.37 3306.97,1560.92 3303.5,1604.97 3302.35,1649.02 3302.35,1659.72 3303.5,1703.77 3306.97,1747.82 3307.66,1754.37 3306.97,1760.92 3303.5,1804.97 3302.35,1849.02 3302.35,1859.72 3303.2,1897.53 3309.31,1903.04 3317.54,1910.37 3349.69,1938.75 3359.57,1947.59 3367.04,1954.37 3373.77,1964.17 3382.4,1976.95 3388.13,1985.57 3394.53,1995.06 3431.35,2049.02 3438.51,2059.72 3440.1,2062.15 3445.5,2070.25 3473.98,2112.33 3479.68,2120.93 3480.33,2121.92 3484.52,2128.27 3502,2154.37 3507.17,2176.71 3509.37,2185.81 3511.27,2193.39 3514.01,2204.91 3520.23,2232.57 3522.2,2240.93 3524.19,2249.02 3526.67,2259.72 3531.43,2281.6 3533.28,2289.66 3535.58,2299.24 3537.93,2309.68 3541.91,2328.54 3543.7,2336.63 3546.61,2349.07 3547.8,2354.37 3546.67,2359.68 3542.91,2376.75 3541.21,2384.85 3538.38,2399.15 3536.15,2409.61 3532.95,2423.7 3531.2,2431.78 3527.67,2449.02 3525.32,2459.72 3522.31,2472.6 3520.44,2481.02 3515.67,2503.47 3513.08,2514.96 3509.93,2528.16 3507.83,2537.34 3504.1,2554.37 3507.83,2537.34 3509.93,2528.16 3513.08,2514.96 3515.67,2503.47 3520.44,2481.02 3522.31,2472.6 3525.32,2459.72 3527.67,2449.02 3531.2,2431.78 3532.95,2423.7 3536.15,2409.61 3538.38,2399.15 3541.21,2384.85 3542.91,2376.75 3546.67,2359.68 3547.8,2354.37 3561.01,2354.37 3561.04,2354.37 3625.76,2354.37 3643.96,2354.37 3675.23,2354.37 3689.62,2354.37 3708.56,2354.37 3720.92,2354.37 3734.36,2354.37 3745.61,2354.37 3756.59,2354.37 3767.35,2354.37 3772.48,2354.37 3866.97,2354.37 3872.1,2354.37 3882.86,2354.37 3893.83,2354.37 3905.08,2354.37 3918.53,2354.37 3930.88,2354.37 3949.81,2354.37 3964.21,2354.37 3976.76,2354.37 3980.77,2365.08 3981.31,2366.5 3984.37,2374.45 3984.74,2375.42 3991.24,2392.09 3991.61,2393.02 3994.2,2399.78 3995.48,2403 4001.1,2416.83 4002.39,2420.1 4004.12,2424.6 4006.37,2430.19 4011.7,2442.8 4014.2,2449.02 4014.95,2450.95 4018.54,2459.72 4024.15,2472.59 4027.84,2481.52 4028.52,2483.25 4033.55,2495.26 4040.39,2510.62 4044.8,2520.95 4048.17,2529.18 4054.42,2543.67 4059.25,2554.37 4054.42,2543.67 4048.17,2529.18 4044.8,2520.95 4040.39,2510.62 4033.55,2495.26 4028.52,2483.25 4027.84,2481.52 4024.15,2472.59 4018.54,2459.72 4014.95,2450.95 4014.2,2449.02 4011.7,2442.8 4006.37,2430.19 4004.12,2424.6 4002.39,2420.1 4001.1,2416.83 3995.48,2403 3994.2,2399.78 3991.61,2393.02 3991.24,2392.09 3984.74,2375.42 3984.37,2374.45 3981.31,2366.5 3980.77,2365.08 3976.76,2354.37 3979.8,2346.81 3980.98,2343.81 3982.89,2338.85 3985.03,2333.52 3990.25,2321.05 3992.28,2316.01 3993.28,2313.38 3996.28,2306.08 4000.54,2296.3 4003.58,2288.89 4003.68,2288.61 4007.76,2278.84 4011.52,2270.5 4014.93,2262.49 4016.04,2259.72 4020.66,2249.02 4024.33,2241.11 4028.17,2232.4 4031.31,2224.89 4036.7,2212.8 4040.88,2203.94 4045.42,2193.91 4052.52,2177.61 4059.22,2162.91 4063.29,2154.37 4013.72,2154.37 3995.52,2154.37 3964.21,2154.37 3949.81,2154.37 3930.88,2154.37 3918.53,2154.37 3905.08,2154.37 3893.83,2154.37 3882.86,2154.37 3872.1,2154.37 3866.97,2154.37 3772.48,2154.37 3767.35,2154.37 3756.59,2154.37 3745.61,2154.37 3734.36,2154.37 3720.92,2154.37 3708.56,2154.37 3689.62,2154.37 3675.23,2154.37 3643.96,2154.37 3625.76,2154.37 3561.04,2154.37 3561.01,2154.37 3534.74,2154.37 3534.7,2154.37 3502,2154.37 3484.52,2128.27 3480.33,2121.92 3479.68,2120.93 3473.98,2112.33 3445.5,2070.25 3440.1,2062.15 3438.51,2059.72 3431.35,2049.02 3394.53,1995.06 3388.13,1985.57 3382.4,1976.95 3373.77,1964.17 3367.04,1954.37 3359.57,1947.59 3349.69,1938.75 3317.54,1910.37 3309.31,1903.04 3303.2,1897.53 3309.31,1903.04 3317.54,1910.37 3349.69,1938.75 3359.57,1947.59 3367.04,1954.37 3534.7,1954.37 3534.74,1954.37 3561.01,1954.37 3561.04,1954.37 3625.76,1954.37 3643.96,1954.37 3675.23,1954.37 3689.62,1954.37 3708.56,1954.37 3720.92,1954.37 3734.36,1954.37 3745.61,1954.37 3756.59,1954.37 3767.35,1954.37 3772.48,1954.37 3866.97,1954.37 3872.1,1954.37 3882.86,1954.37 3893.83,1954.37 3905.08,1954.37 3918.53,1954.37 3930.88,1954.37 3949.81,1954.37 3964.21,1954.37 3995.52,1954.37 4013.72,1954.37 4078.4,1954.37 4078.44,1954.37 4104.71,1954.37 4104.75,1954.37 4177.97,1954.37 4181.92,1958.82 4199.04,1978.28 4207.28,1987.47 4229.65,2011.98 4235.24,2018.18 4229.44,2024.52 4197.55,2049.02 4183.91,2059.72 4180.14,2062.73 4170.03,2070.69 4126.81,2104.16 4117.54,2111.5 4115.95,2112.79 4109.31,2118.08 4078.1,2142.51 4072.96,2146.6 4068.71,2150.04 4065.77,2152.4 4063.29,2154.37 4059.22,2162.91 4052.52,2177.61 4045.42,2193.91 4040.88,2203.94 4036.7,2212.8 4031.31,2224.89 4028.17,2232.4 4024.33,2241.11 4020.66,2249.02 4016.04,2259.72 4014.93,2262.49 4011.52,2270.5 4007.76,2278.84 4003.68,2288.61 4003.58,2288.89 4000.54,2296.3 3996.28,2306.08 3993.28,2313.38 3992.28,2316.01 3990.25,2321.05 3985.03,2333.52 3982.89,2338.85 3980.98,2343.81 3979.8,2346.81 3976.76,2354.37 3980.77,2365.08 3981.31,2366.5 3984.37,2374.45 3984.74,2375.42 3991.24,2392.09 3991.61,2393.02 3994.2,2399.78 3995.48,2403 4001.1,2416.83 4002.39,2420.1 4004.12,2424.6 4006.37,2430.19 4011.7,2442.8 4014.2,2449.02 4014.95,2450.95 4018.54,2459.72 4024.15,2472.59 4027.84,2481.52 4028.52,2483.25 4033.55,2495.26 4040.39,2510.62 4044.8,2520.95 4048.17,2529.18 4054.42,2543.67 4059.25,2554.37 4066.03,2559.86 4073.21,2565.67 4075.38,2567.42 4109.31,2594.5 4112.12,2596.76 4117.54,2601.15 4122.88,2605.41 4169.99,2642.57 4178.05,2649.02 4180.13,2650.7 4191.46,2659.72 4229.53,2689.5 4267.76,2734.14 4278.46,2747.35 4284.1,2754.37 4278.46,2747.35 4267.76,2734.14 4229.53,2689.5 4191.46,2659.72 4180.13,2650.7 4178.05,2649.02 4169.99,2642.57 4122.88,2605.41 4117.54,2601.15 4112.12,2596.76 4109.31,2594.5 4075.38,2567.42 4073.21,2565.67 4066.03,2559.86 4059.25,2554.37 4013.72,2554.37 3995.52,2554.37 3964.21,2554.37 3949.81,2554.37 3930.88,2554.37 3918.53,2554.37 3905.08,2554.37 3893.83,2554.37 3882.86,2554.37 3872.1,2554.37 3866.97,2554.37 3772.48,2554.37 3767.35,2554.37 3756.59,2554.37 3745.61,2554.37 3734.36,2554.37 3720.92,2554.37 3708.56,2554.37 3689.62,2554.37 3675.23,2554.37 3643.96,2554.37 3625.76,2554.37 3561.04,2554.37 3561.01,2554.37 3534.74,2554.37 3534.7,2554.37 3504.1,2554.37 3484.16,2584.69 3482.47,2587.27 3479.35,2592.08 3476.2,2596.87 3445.46,2643.12 3445.45,2643.14 3442.98,2649.02 3439.78,2656.73 3408.7,2656.73 3375.14,2657.53 3369.94,2657.79 3315.54,2663.03 3310.79,2663.74 3268.37,2672.1 3264,2673.2 3229.82,2683.52 3225.8,2684.96 3211.06,2690.64 3095.29,2738.59 3086.05,2742.16 3082.19,2743.54 3064.85,2748.82 3060.99,2749.78 3044.66,2753.04 3040.8,2753.61 3025.05,2755.17 3021.2,2755.36 3013.42,2755.55 2151.55,2755.55 2149.47,2754.75 2148.47,2754.37 2130.89,2754.37 2118.53,2754.37 2105.09,2754.37 2093.84,2754.37 2082.86,2754.37 2072.1,2754.37 2066.97,2754.37 1972.48,2754.37 1967.35,2754.37 1956.59,2754.37 1945.62,2754.37 1934.37,2754.37 1920.92,2754.37 1908.57,2754.37 1890.98,2754.37 1889.97,2754.75 1879.28,2758.86 1861.23,2766.92 1850.53,2772.37 1829.22,2784.72 1818.52,2791.67 1792.5,2810.65 1781.8,2819.31 1748.98,2849.02 1738.28,2859.72 1716.76,2882.5 1695.24,2907.81 1684.54,2921.03 1658.91,2954.37 1734.7,2954.37 1734.74,2954.37 1761.01,2954.37 1761.05,2954.37 1825.76,2954.37 1843.96,2954.37 1875.23,2954.37 1889.63,2954.37 1908.57,2954.37 1920.92,2954.37 1934.37,2954.37 1945.62,2954.37 1956.59,2954.37 1967.35,2954.37 1972.48,2954.37 2066.97,2954.37 2072.1,2954.37 2082.86,2954.37 2093.84,2954.37 2105.09,2954.37 2118.53,2954.37 2130.89,2954.37 2149.81,2954.37 2152.01,2954.37 2211.07,2954.37 2218.94,2954.56 2222.81,2954.75 2238.82,2956.33 2242.68,2956.9 2259.22,2960.2 2263.08,2961.17 2280.73,2966.54 2284.59,2967.92 2293.92,2971.53 2297.25,2972.91 2438.67,3031.49 2454.44,3038.48 2458.29,3040.3 2492.65,3058.72 2496.51,3061.03 2535.67,3087.29 2539.53,3090.15 2577.56,3120.95 2539.53,3090.15 2535.67,3087.29 2496.51,3061.03 2492.65,3058.72 2458.29,3040.3 2454.44,3038.48 2438.67,3031.49 2297.25,2972.91 2293.92,2971.53 2284.59,2967.92 2280.73,2966.54 2263.08,2961.17 2259.22,2960.2 2242.68,2956.9 2238.82,2956.33 2222.81,2954.75 2218.94,2954.56 2211.07,2954.37 2152.01,2954.37 2149.81,2954.37 2130.89,2954.37 2118.53,2954.37 2105.09,2954.37 2093.84,2954.37 2082.86,2954.37 2072.1,2954.37 2066.97,2954.37 1972.48,2954.37 1967.35,2954.37 1956.59,2954.37 1945.62,2954.37 1934.37,2954.37 1920.92,2954.37 1908.57,2954.37 1889.63,2954.37 1875.23,2954.37 1843.96,2954.37 1825.76,2954.37 1761.05,2954.37 1761.01,2954.37 1734.74,2954.37 1734.7,2954.37 1658.91,2954.37 1630.54,2976.23 1619.84,2984.9 1578.54,3020.63 1592.85,3049.02 1598.13,3059.72 1600.78,3065.21 1602.64,3069.02 1614.08,3092.32 1664.66,3107.97 1676.98,3111.69 1698.48,3118.06 1737.86,3128.75 1774.46,3136.67 1793.04,3140.11 1797.64,3140.94 1818.96,3144.69 1824.75,3145.67 1835.39,3147.37 1849.91,3150.05 1854.75,3151.07 1859.65,3152.05 1871.81,3154.37 1875.23,3154.37 1889.63,3154.37 1908.57,3154.37 1920.92,3154.37 1934.37,3154.37 1945.62,3154.37 1956.59,3154.37 1967.35,3154.37 1972.48,3154.37 2066.97,3154.37 2072.1,3154.37 2082.86,3154.37 2093.84,3154.37 2105.09,3154.37 2118.53,3154.37 2130.89,3154.37 2149.81,3154.37 2152.01,3154.37 2161.08,3157.85 2167.18,3160.32 2175.23,3169.11 2182.2,3177.27 2193.59,3192.13 2199.76,3201.1 2201.19,3203.22 2203.71,3219.82 2204.84,3230.52 2205.81,3249.02 2205.81,3259.72 2204.84,3278.21 2203.71,3288.91 2200.67,3308.03 2198.4,3318.73 2192.89,3339.23 2189.41,3349.93 2187.92,3354.37 2189.41,3358.8 2192.89,3369.5 2198.4,3389.99 2200.67,3400.69 2203.71,3419.82 2204.84,3430.52 2205.81,3449.02 2205.81,3459.72 2204.84,3478.21 2203.71,3488.91 2200.67,3508.03 2198.4,3518.73 2192.89,3539.23 2189.41,3549.93 2180.67,3572.65 2175.9,3583.35 2162.62,3609.33 2156.44,3620.03 2136.4,3650.76 2128.63,3661.46 2115.42,3678.7 2128.63,3661.46 2136.4,3650.76 2156.44,3620.03 2162.62,3609.33 2175.9,3583.35 2180.67,3572.65 2189.41,3549.93 2192.89,3539.23 2198.4,3518.73 2200.67,3508.03 2203.71,3488.91 2204.84,3478.21 2205.81,3459.72 2205.81,3449.02 2204.84,3430.52 2203.71,3419.82 2200.67,3400.69 2198.4,3389.99 2192.89,3369.5 2189.41,3358.8 2187.92,3354.37 2164.21,3354.37 2149.81,3354.37 2130.89,3354.37 2118.53,3354.37 2105.09,3354.37 2093.84,3354.37 2082.86,3354.37 2072.1,3354.37 2066.97,3354.37 1972.48,3354.37 1967.35,3354.37 1956.59,3354.37 1945.62,3354.37 1937.98,3354.37 1935.48,3357.8 1928.81,3368.03 1922.64,3378.73 1918.63,3386.57 1913.87,3397.27 1911.49,3403.44 1908.01,3414.14 1906.65,3419.2 1904.38,3429.9 1903.69,3434.28 1902.56,3444.97 1902.35,3449.02 1902.35,3459.72 1902.56,3463.76 1903.69,3474.46 1904.38,3478.83 1906.65,3489.53 1908.01,3494.6 1911.49,3505.3 1913.87,3511.47 1918.63,3522.17 1922.64,3530 1928.81,3540.7 1935.48,3550.93 1943.26,3561.63 1954.39,3575.32 1964.03,3586.02 1972.48,3594.92 2019.6,3642.04 2066.97,3661.66 2084.06,3668.21 2095.24,3672.17 2115.42,3678.7 2205.05,3895.09 2208.35,3903.62 2209.73,3907.48 2214.59,3923.46 2215.56,3927.32 2218.56,3942.36 2219.13,3946.22 2220.56,3960.72 2220.75,3964.58 2220.92,3971.72 2220.92,4069.83 2222.88,4074.69 2227.9,4087.75 2228.42,4089.13 2228.42,4103.26 2228.42,4118.35 2228.42,4129.18 2228.42,4142.91 2228.42,4151.45 2228.42,4164.59 2228.42,4168.54 2228.42,4216.02 2228.42,4219.96 2228.42,4233.1 2228.42,4241.64 2228.42,4255.37 2228.42,4266.21 2228.42,4280.39 2227.65,4280.84 2216.5,4286.54 2203.43,4292.36 2194.47,4295.81 2181.41,4300.05 2173.88,4302.07 2160.82,4304.85 2154.2,4305.9 2141.14,4307.27 2134.95,4307.6 2121.89,4307.6 2115.7,4307.27 2102.64,4305.9 2096.02,4304.85 2082.96,4302.07 2075.44,4300.05 2062.37,4295.81 2053.4,4292.35 2040.34,4286.54 2029.2,4280.84 2028.42,4280.39 2028.42,4266.21 2028.42,4255.37 2028.42,4241.64 2028.42,4233.1 2028.42,4219.96 2028.42,4216.02 2028.42,4168.54 2028.42,4164.59 2028.42,4151.45 2028.42,4142.91 2028.42,4129.18 2028.42,4118.35 2028.42,4103.26 2028.42,4087.28 2028.42,4069.7 2028.42,4066.75 2021.51,4051.54 2014.85,4038.47 2005.85,4022.49 2001.84,4019.67 1990.89,4012.14 1970.94,3999.93 1958.97,3993.43 1934.95,3982.01 1921.89,3976.6 1892.06,3966.08 1877.81,3961.86 1839.49,3952.72 1823.91,3949.84 1807.28,3947.08 1747.74,3922.42 1718.45,3851.71 1711.57,3833.88 1710.19,3830.03 1699.94,3796.33 1698.97,3792.47 1692.61,3760.56 1692.04,3756.71 1688.99,3725.84 1688.8,3721.98 1688.43,3706.73 1688.43,3456.73 1688.05,3441.49 1687.86,3437.63 1684.82,3406.75 1684.24,3402.9 1677.88,3370.99 1676.91,3367.13 1666.66,3333.43 1665.28,3329.58 1658.4,3311.76 1656.32,3306.73 1648.93,3287.56 1647.49,3283.54 1634.1,3239.18 1633,3234.81 1622.18,3179.94 1621.48,3175.18 1617.31,3140.91 1614.72,3105.06 1614.53,3101.3 1614.46,3099.85 1614.08,3092.32 1602.64,3069.02 1600.78,3065.21 1598.13,3059.72 1592.85,3049.02 1578.54,3020.63 1563.43,3016.5 1556.76,3014.76 1552.93,3013.75 1530.8,3007.84 1527.02,3006.84 1489.18,2996.96 1485.44,2995.98 1464.25,2990.31 1460.52,2989.33 1422.65,2979.45 1418.87,2978.45 1396.76,2972.54 1392.93,2971.53 1386.26,2969.79 1324.59,2950.71 1320.74,2949.33 1284.73,2935.43 1219.27,2908.31 1215.71,2898.28 1200.14,2857.6 1182.84,2818.65 1177.2,2806.83 1160.97,2774.8 1159.7,2773.77 1108.71,2750.53 1092.35,2742.87 1026.36,2711.13 1021.9,2708.96 989.935,2679.13 936.917,2626.11 915.829,2603.35 898.073,2580.6 883.649,2557.84 872.557,2535.09 850.597,2482.07 843.011,2457.65 840.485,2433.24 840.485,2380.22 843.011,2355.81 850.597,2331.39 862.639,2302.32 862.639,1911.15 850.597,1882.07 843.011,1857.66 840.485,1833.24 840.485,1780.22 843.011,1755.81 850.597,1731.39 872.557,1678.37 883.649,1655.62 898.073,1632.86 915.829,1610.11 936.917,1587.36 988.581,1535.69 989.933,1536.88 1015.45,1559.28 1018.59,1562.06 1044.77,1585.49 1047.58,1588.04 1069.68,1608.24 1072.31,1610.67 1082.5,1620.2 1097.47,1635.2 1133.62,1674.03 1153.34,1697.5 1170.69,1723.02 1185.68,1750.6 1198.29,1780.22 1218.07,1833.24 1229,1866.77 1237.55,1902.37 1243.71,1940.03 1247.49,1979.75 1286.32,2083.84 1313.43,2096.22 1340.73,2109.5 1344.42,2111.41 1392.53,2139.32 1395.9,2141.51 1437.16,2171.22 1440.22,2173.67 1476.21,2205.4 1478.98,2208.1 1495.34,2224.82 1666.28,2408.41 1680.78,2415.03 1704.05,2424.92 1708.26,2426.57 1714.47,2428.96 1733.55,2449.02 1744.26,2459.72 1777.98,2490.23 1788.68,2498.9 1815.44,2518.42 1826.14,2525.37 1848.13,2538.11 1858.83,2543.57 1877.46,2551.89 1883.92,2554.37 1889.63,2554.37 1908.57,2554.37 1920.92,2554.37 1934.37,2554.37 1945.62,2554.37 1956.59,2554.37 1967.35,2554.37 1972.48,2554.37 2066.97,2554.37 2072.1,2554.37 2082.86,2554.37 2093.84,2554.37 2105.09,2554.37 2118.53,2554.37 2130.89,2554.37 2149.81,2554.37 2155.54,2554.37 2161.98,2551.89 2180.64,2543.56 2191.34,2538.11 2213.31,2525.37 2224.01,2518.42 2250.75,2498.92 2261.45,2490.25 2295.2,2459.72 2305.9,2449.02 2328,2425.62 2350.1,2399.63 2360.8,2386.41 2385.5,2354.37 2412.69,2333.36 2423.39,2324.7 2474.44,2279.91 2476.98,2259.72 2478.4,2249.02 2480.15,2236.59 2480.63,2233.1 2476.79,2172.68 2475.67,2161.98 2474.83,2154.37 2304.75,2154.37 2304.71,2154.37 2278.44,2154.37 2278.41,2154.37 2213.73,2154.37 2195.52,2154.37 2164.21,2154.37 2149.81,2154.37 2130.89,2154.37 2118.53,2154.37 2105.09,2154.37 2093.84,2154.37 2082.86,2154.37 2072.1,2154.37 2066.97,2154.37 1972.48,2154.37 1967.35,2154.37 1956.59,2154.37 1945.62,2154.37 1934.37,2154.37 1920.92,2154.37 1908.57,2154.37 1898.03,2154.37 1893.56,2150 1886.05,2142.35 1876.06,2131.04 1869.4,2122.66 1860.46,2110.1 1854.65,2100.97 1846.55,2086.6 1841.63,2076.71 1834.27,2059.72 1830.28,2049.02 1823.77,2028.24 1820.79,2016.66 1815.49,1990.33 1813.63,1977.78 1811.04,1954.37 1799.3,1937.33 1793.5,1928.2 1778.23,1901.12 1773.3,1891.23 1759.67,1859.72 1755.67,1849.02 1743.85,1811.25 1740.86,1799.68 1731.68,1754.37 1709.91,1715.64 1704.98,1705.75 1685.06,1659.72 1681.07,1649.02 1663.92,1594.27 1660.94,1582.7 1654.34,1554.37 1641.58,1530.16 1636.66,1520.27 1622.87,1490.59 1610.45,1459.72 1606.46,1449.02 1594.42,1413.86 1583.99,1377.28 1581.93,1369.27 1582.27,1365.98 1583.59,1354.37 1582.27,1342.76 1581.15,1332.06 1578.3,1295.89 1577.35,1259.72 1577.35,1249.02 1577.91,1221.22 1619.84,1184.9 1630.54,1176.24 1658.91,1154.37" style="stroke:rgb(0,0,0);stroke-width:1px;fill:none;stroke-opacity:1;stroke-linecap:round;stroke-linejoin:round;;fill:none"/>
<polyline points="157.521,606.734 157.521,157.52 1673.33,157.522 1655.2,235.04 1654.13,239.622 1644.38,282.064 1641.39,294.728 1631.4,335.876 1630.43,339.928 1618.4,390.464 1615.65,401.69 1611.5,418.118 1610.56,421.85 1601.93,456.734 1598.36,471.798 1607.44,485.978 1618.14,502.454 1648.42,546.772 1678.7,586.47 1689.4,599.682 1711.48,625.648 1733.55,649.022 1744.26,659.722 1777.98,690.236 1788.68,698.902 1815.44,718.428 1826.14,725.378 1848.13,738.118 1858.83,743.57 1877.46,751.894 1883.92,754.372 1889.63,754.372 1908.57,754.372 1920.92,754.372 1934.37,754.372 1945.62,754.372 1956.59,754.372 1967.35,754.372 1972.48,754.372 2066.97,754.372 2072.1,754.372 2082.86,754.372 2093.84,754.372 2105.09,754.372 2118.53,754.372 2130.89,754.372 2149.81,754.372 2164.21,754.372 2195.52,754.372 2213.73,754.372 2278.41,754.372 2278.44,754.372 2304.71,754.372 2304.75,754.37 2476.64,754.37 2476.99,761.7 2477.26,766.78 2477.48,770.678 2477.58,772.514 2479.58,806.732 2480.81,849.02 2480.81,859.72 2479.8,897.89 2476.79,936.06 2475.67,946.76 2474.83,954.372 2475.67,961.982 2476.79,972.682 2479.8,1010.85 2480.81,1049.02 2480.81,1059.72 2479.8,1097.89 2476.79,1136.06 2475.67,1146.76 2474.83,1154.37 2475.67,1161.98 2476.79,1172.68 2479.8,1210.85 2480.81,1249.02 2480.81,1259.72 2479.8,1297.89 2476.79,1336.06 2475.67,1346.76 2474.83,1354.37 2304.75,1354.37 2304.71,1354.37 2278.44,1354.37 2278.41,1354.37 2213.73,1354.37 2195.52,1354.37 2164.21,1354.37 2149.81,1354.37 2130.89,1354.37 2118.53,1354.37 2105.09,1354.37 2093.84,1354.37 2082.86,1354.37 2072.1,1354.37 2066.97,1354.37 1972.48,1354.37 1967.35,1354.37 1956.59,1354.37 1945.62,1354.37 1934.37,1354.37 1920.92,1354.37 1908.57,1354.37 1889.63,1354.37 1875.23,1354.37 1843.96,1354.37 1825.76,1354.37 1761.05,1354.37 1761.01,1354.37 1734.74,1354.37 1734.7,1354.37 1583.59,1354.37 1582.27,1365.98 1581.93,1369.27 1583.99,1377.28 1594.42,1413.86 1606.46,1449.02 1610.45,1459.72 1622.87,1490.59 1636.66,1520.27 1641.58,1530.16 1654.34,1554.37 1734.7,1554.37 1734.74,1554.37 1761.01,1554.37 1761.05,1554.37 1825.76,1554.37 1843.96,1554.37 1875.23,1554.37 1889.63,1554.37 1908.57,1554.37 1920.92,1554.37 1934.37,1554.37 1945.62,1554.37 1956.59,1554.37 1967.35,1554.37 1972.48,1554.37 2066.97,1554.37 2072.1,1554.37 2082.86,1554.37 2093.84,1554.37 2105.09,1554.37 2118.53,1554.37 2130.89,1554.37 2149.81,1554.37 2164.21,1554.37 2195.52,1554.37 2213.73,1554.37 2278.41,1554.37 2278.44,1554.37 2304.71,1554.37 2304.75,1554.37 2474.83,1554.37 2475.67,1546.76 2476.79,1536.06 2479.8,1497.89 2480.81,1459.72 2480.81,1449.02 2479.8,1410.85 2476.79,1372.68 2475.67,1361.98 2474.83,1354.37 2475.67,1361.98 2476.79,1372.68 2479.8,1410.85 2480.81,1449.02 2480.81,1459.72 2479.8,1497.89 2476.79,1536.06 2475.67,1546.76 2474.83,1554.37 2475.67,1561.98 2476.79,1572.68 2479.8,1610.85 2480.81,1649.02 2480.81,1659.72 2479.8,1697.89 2476.79,1736.06 2475.67,1746.76 2474.83,1754.37 2475.67,1761.98 2476.79,1772.68 2479.8,1810.85 2480.81,1849.02 2480.81,1859.72 2479.8,1897.89 2476.79,1936.06 2475.67,1946.76 2474.83,1954.37 2475.67,1961.98 2476.79,1972.68 2479.8,2010.85 2480.81,2049.02 2480.81,2059.72 2479.8,2097.89 2476.79,2136.06 2475.67,2146.76 2474.83,2154.37 2475.67,2146.76 2476.79,2136.06 2479.8,2097.89 2480.81,2059.72 2480.81,2049.02 2479.8,2010.85 2476.79,1972.68 2475.67,1961.98 2474.83,1954.37 2304.75,1954.37 2304.71,1954.37 2278.44,1954.37 2278.41,1954.37 2213.73,1954.37 2195.52,1954.37 2164.21,1954.37 2149.81,1954.37 2130.89,1954.37 2118.53,1954.37 2105.09,1954.37 2093.84,1954.37 2082.86,1954.37 2072.1,1954.37 2066.97,1954.37 1972.48,1954.37 1967.35,1954.37 1956.59,1954.37 1945.62,1954.37 1934.37,1954.37 1920.92,1954.37 1908.57,1954.37 1889.63,1954.37 1875.23,1954.37 1843.96,1954.37 1825.76,1954.37 1811.04,1954.37 1799.3,1937.33 1793.5,1928.2 1778.23,1901.12 1773.3,1891.23 1759.67,1859.72 1755.67,1849.02 1743.85,1811.25 1740.86,1799.68 1731.68,1754.37 1734.7,1754.37 1734.74,1754.37 1761.01,1754.37 1761.05,1754.37 1825.76,1754.37 1843.96,1754.37 1875.23,1754.37 1889.63,1754.37 1908.57,1754.37 1920.92,1754.37 1934.37,1754.37 1945.62,1754.37 1956.59,1754.37 1967.35,1754.37 1972.48,1754.37 2066.97,1754.37 2072.1,1754.37 2082.86,1754.37 2093.84,1754.37 2105.09,1754.37 2118.53,1754.37 2130.89,1754.37 2149.81,1754.37 2164.21,1754.37 2195.52,1754.37 2213.73,1754.37 2278.41,1754.37 2278.44,1754.37 2304.71,1754.37 2304.75,1754.37 2474.83,1754.37 2475.67,1746.76 2476.79,1736.06 2479.8,1697.89 2480.81,1659.72 2480.81,1649.02 2479.8,1610.85 2476.79,1572.68 2475.67,1561.98 2474.83,1554.37 2475.67,1546.76 2476.79,1536.06 2479.8,1497.89 2480.81,1459.72 2480.81,1449.02 2479.8,1410.85 2476.79,1372.68 2475.67,1361.98 2474.83,1354.37 2475.67,1346.76 2476.79,1336.06 2479.8,1297.89 2480.81,1259.72 2480.81,1249.02 2479.8,1210.85 2476.79,1172.68 2475.67,1161.98 2474.83,1154.37 2304.75,1154.37 2304.71,1154.37 2278.44,1154.37 2278.41,1154.37 2213.73,1154.37 2195.52,1154.37 2164.21,1154.37 2149.81,1154.37 2130.89,1154.37 2118.53,1154.37 2105.09,1154.37 2093.84,1154.37 2082.86,1154.37 2072.1,1154.37 2066.97,1154.37 1972.48,1154.37 1967.35,1154.37 1956.59,1154.37 1945.62,1154.37 1934.37,1154.37 1920.92,1154.37 1908.57,1154.37 1889.63,1154.37 1875.23,1154.37 1843.96,1154.37 1825.76,1154.37 1761.05,1154.37 1761.01,1154.37 1734.74,1154.37 1734.7,1154.37 1658.91,1154.37 1684.54,1121.03 1695.24,1107.82 1716.76,1082.51 1738.28,1059.72 1748.98,1049.02 1781.8,1019.32 1792.5,1010.65 1818.52,991.674 1829.22,984.726 1850.53,972.374 1861.23,966.922 1879.28,958.864 1889.97,954.756 1890.98,954.372 1908.57,954.372 1920.92,954.372 1934.37,954.372 1945.62,954.372 1956.59,954.372 1967.35,954.372 1972.48,954.372 2066.97,954.372 2072.1,954.372 2082.86,954.372 2093.84,954.372 2105.09,954.372 2118.53,954.372 2130.89,954.372 2149.81,954.372 2164.21,954.372 2195.52,954.372 2213.73,954.372 2278.41,954.372 2278.44,954.372 2304.71,954.372 2304.75,954.372 2474.83,954.372 2475.67,946.76 2476.79,936.06 2479.8,897.89 2480.81,859.72 2480.81,849.02 2479.58,806.732 2477.58,772.514 2477.48,770.678 2477.26,766.78 2476.99,761.7 2476.64,754.37 2477.93,747.242 2479.93,736.726 2488.17,694.912 2488.91,691.106 2494.93,659.72 2497.06,649.022 2503.75,616.618 2504.56,612.672 2514.21,564.726 2516.59,553.28 2521.85,528.82 2522.75,524.57 2532.91,476.224 2538,450.498 2540.36,437.732 2550.55,372.714 2557.61,304.562 2558.72,290.536 2563.04,206.354 2564.28,157.522 1673.33,157.522 2564.28,157.522 4210.06,157.522 5669.33,157.52 5669.33,606.734 5669.33,2101.22 5669.33,4418.94 4843.97,4418.93 910.347,4418.93 157.521,4418.94 157.523,2106.73 157.521,606.734 189.589,606.734 203.987,606.734 247.889,606.734 260.245,606.734 293.157,606.734 304.407,606.734 332.345,606.734 343.103,606.734 356.339,606.734 450.827,606.734 464.063,606.734 474.823,606.734 502.763,606.734 514.013,606.734 546.941,606.734 559.297,606.734 560.719,606.734 766.131,606.734 767.557,606.734 779.913,606.734 812.841,606.734 824.091,606.734 852.031,606.734 862.791,606.734 876.027,606.734 970.513,606.734 983.751,606.734 994.509,606.734 1022.45,606.734 1033.7,606.734 1050.53,606.734 1058.8,620.27 1064.98,630.972 1078.03,656.514 1082.8,667.214 1091.37,689.472 1094.84,700.172 1100.25,720.28 1102.52,730.978 1105.5,749.742 1106.63,760.442 1107.58,778.548 1107.58,789.25 1106.63,807.356 1105.5,818.056 1102.52,836.82 1100.25,847.518 1098.05,856.732 1094.85,867.616 1091.37,878.318 1082.79,900.602 1078.03,911.3 1064.98,936.826 1058.8,947.528 1039.13,977.694 1031.36,988.394 1001.27,1025.39 991.635,1036.08 970.515,1058.31 967.759,1061.06 906.397,1061.06 880.773,1054.84 876.027,1053.83 868.457,1052.15 853.583,1048.72 843.065,1046.43 824.297,1042.58 812.239,1039.93 799.409,1036.92 788.915,1034.59 768.025,1030.22 755.679,1027.46 748.905,1025.85 708.985,1028.25 696.639,1029.54 689.117,1030.4 686.875,1123.15 685.575,1150.59 682.875,1187.52 680.841,1205.73 678.163,1223.08 675.231,1237.06 672.357,1247.68 672.299,1247.9 668.989,1260.25 667.031,1269.44 665.075,1281.78 664.181,1290.26 663.535,1302.61 663.535,1310.86 664.181,1323.21 665.075,1331.69 667.031,1344.03 668.989,1353.22 672.299,1365.57 672.357,1365.79 675.231,1376.41 678.163,1390.38 679.111,1396.53 671.407,1418.37 659.663,1440.22 643.879,1462.06 624.055,1483.9 562.639,1545.32 562.639,1662.13 572.333,1691.65 579.257,1721.18 583.411,1750.7 584.795,1780.22 584.795,1833.24 583.109,1865.83 578.045,1898.43 569.609,1931.02 557.795,1963.61 535.835,2016.63 514.293,2061.68 486.989,2106.73 389.933,2106.73 336.917,2106.73 157.523,2106.73 336.917,2106.73 389.933,2106.73 486.989,2106.73 514.293,2151.78 535.835,2196.83 557.795,2249.85 569.609,2282.44 578.045,2315.04 583.109,2347.63 584.795,2380.22 584.795,2433.24 583.411,2462.76 579.257,2492.29 572.333,2521.81 562.639,2551.34 562.641,2572.64 594.819,2650.33 624.055,2679.56 643.879,2701.41 659.663,2723.25 671.407,2745.09 679.111,2766.93 678.163,2773.08 675.231,2787.05 672.357,2797.67 672.299,2797.89 668.989,2810.24 667.031,2819.43 665.075,2831.78 664.181,2840.26 663.535,2852.61 663.535,2860.86 664.181,2873.2 665.075,2881.68 667.031,2894.03 668.989,2903.22 672.299,2915.57 672.357,2915.79 675.231,2926.41 678.163,2940.38 679.111,2946.53 671.407,2968.37 659.663,2990.21 643.879,3012.05 624.055,3033.9 550.761,3107.19 550.397,3107.95 527.335,3111.5 515.375,3113.68 477.965,3122.49 466.863,3125.74 450.829,3130.9 356.339,3164.04 344.787,3168.43 343.179,3169.09 335.047,3178.12 319.113,3197.71 311.339,3208.41 301.389,3223.68 295.211,3234.38 288.917,3246.69 284.153,3257.39 280.205,3267.64 276.729,3278.34 274.347,3287.2 272.073,3297.9 270.799,3305.92 269.675,3316.62 269.275,3324.21 269.275,3334.92 269.675,3342.51 270.799,3353.21 272.073,3361.23 274.347,3371.93 276.731,3380.8 280.207,3391.5 284.151,3401.74 288.913,3412.43 295.211,3424.75 301.389,3435.45 311.349,3450.73 319.123,3461.43 335.047,3481 344.681,3491.7 351.847,3499.39 356.341,3501.31 369.435,3506.73 450.827,3506.73 464.063,3506.73 474.823,3506.73 502.763,3506.73 514.013,3506.73 546.941,3506.73 559.297,3506.73 560.719,3506.73 766.131,3506.73 767.557,3506.73 779.913,3506.73 812.841,3506.73 824.091,3506.73 852.031,3506.73 862.791,3506.73 876.027,3506.73 970.513,3506.73 983.751,3506.73 994.509,3506.73 1022.45,3506.73 1033.7,3506.73 1066.61,3506.73 1078.97,3506.73 1080.41,3506.73 1113.18,3517.48 1123.88,3521.59 1161.6,3538.44 1172.3,3543.89 1215.54,3568.94 1226.24,3575.89 1250.45,3592.54 1253.85,3618.22 1254.97,3628.91 1257.58,3678.54 1257.58,3689.25 1254.97,3738.88 1253.85,3749.57 1245.75,3800.59 1243.47,3811.29 1229.01,3865.08 1225.54,3875.78 1215.17,3904.98 1203.05,3934.17 1198.29,3944.87 1182.71,3977.45 1164.97,4010.04 1158.79,4020.74 1136.72,4056.73 1112.35,4094.27 1110.47,4097.16 1109.65,4098.42 1102.99,4108.74 1047.37,4196.1 1044.17,4201.1 1032.2,4219.73 1022.97,4234.27 970.513,4317.88 945.951,4357.95 942.091,4364.39 910.347,4418.93" style="stroke:rgb(103,198,105);stroke-width:0.000000;fill:none;stroke-opacity:0.5;stroke-linecap:round;stroke-linejoin:round;;fill:none"/>
<polyline points="157.521,606.734 157.521,157.52 1673.33,157.522 1655.2,235.04 1654.13,239.622 1644.38,282.064 1641.39,294.728 1631.4,335.876 1630.43,339.928 1618.4,390.464 1615.65,401.69 1611.5,418.118 1610.56,421.85 1601.93,456.734 1598.36,471.798 1607.44,485.978 1618.14,502.454 1648.42,546.772 1678.7,586.47 1689.4,599.682 1711.48,625.648 1733.55,649.022 1744.26,659.722 1777.98,690.236 1788.68,698.902 1815.44,718.428 1826.14,725.378 1848.13,738.118 1858.83,743.57 1877.46,751.894 1883.92,754.372 1889.63,754.372 1908.57,754.372 1920.92,754.372 1934.37,754.372 1945.62,754.372 1956.59,754.372 1967.35,754.372 1972.48,754.372 2066.97,754.372 2072.1,754.372 2082.86,754.372 2093.84,754.372 2105.09,754.372 2118.53,754.372 2130.89,754.372 2149.81,754.372 2164.21,754.372 2195.52,754.372 2213.73,754.372 2278.41,754.372 2278.44,754.372 2304.71,754.372 2304.75,754.37 2476.64,754.37 2476.99,761.7 2477.26,766.78 2477.48,770.678 2477.58,772.514 2479.58,806.732 2480.81,849.02 2480.81,859.72 2479.8,897.89 2476.79,936.06 2475.67,946.76 2474.83,954.372 2475.67,961.982 2476.79,972.682 2479.8,1010.85 2480.81,1049.02 2480.81,1059.72 2479.8,1097.89 2476.79,1136.06 2475.67,1146.76 2474.83,1154.37 2475.67,1161.98 2476.79,1172.68 2479.8,1210.85 2480.81,1249.02 2480.81,1259.72 2479.8,1297.89 2476.79,1336.06 2475.67,1346.76 2474.83,1354.37 2304.75,1354.37 2304.71,1354.37 2278.44,1354.37 2278.41,1354.37 2213.73,1354.37 2195.52,1354.37 2164.21,1354.37 2149.81,1354.37 2130.89,1354.37 2118.53,1354.37 2105.09,1354.37 2093.84,1354.37 2082.86,1354.37 2072.1,1354.37 2066.97,1354.37 1972.48,1354.37 1967.35,1354.37 1956.59,1354.37 1945.62,1354.37 1934.37,1354.37 1920.92,1354.37 1908.57,1354.37 1889.63,1354.37 1875.23,1354.37 1843.96,1354.37 1825.76,1354.37 1761.05,1354.37 1761.01,1354.37 1734.74,1354.37 1734.7,1354.37 1583.59,1354.37 1582.27,1365.98 1581.93,1369.27 1583.99,1377.28 1594.42,1413.86 1606.46,1449.02 1610.45,1459.72 1622.87,1490.59 1636.66,1520.27 1641.58,1530.16 1654.34,1554.37 1734.7,1554.37 1734.74,1554.37 1761.01,1554.37 1761.05,1554.37 1825.76,1554.37 1843.96,1554.37 1875.23,1554.37 1889.63,1554.37 1908.57,1554.37 1920.92,1554.37 1934.37,1554.37 1945.62,1554.37 1956.59,1554.37 1967.35,1554.37 1972.48,1554.37 2066.97,1554.37 2072.1,1554.37 2082.86,1554.37 2093.84,1554.37 2105.09,1554.37 2118.53,1554.37 2130.89,1554.37 2149.81,1554.37 2164.21,1554.37 2195.52,1554.37 2213.73,1554.37 2278.41,1554.37 2278.44,1554.37 2304.71,1554.37 2304.75,1554.37 2474.83,1554.37 2475.67,1546.76 2476.79,1536.06 2479.8,1497.89 2480.81,1459.72 2480.81,1449.02 2479.8,1410.85 2476.79,1372.68 2475.67,1361.98 2474.83,1354.37 2475.67,1361.98 2476.79,1372.68 2479.8,1410.85 2480.81,1449.02 2480.81,1459.72 2479.8,1497.89 2476.79,1536.06 2475.67,1546.76 2474.83,1554.37 2475.67,1561.98 2476.79,1572.68 2479.8,1610.85 2480.81,1649.02 2480.81,1659.72 2479.8,1697.89 2476.79,1736.06 2475.67,1746.76 2474.83,1754.37 2475.67,1761.98 2476.79,1772.68 2479.8,1810.85 2480.81,1849.02 2480.81,1859.72 2479.8,1897.89 2476.79,1936.06 2475.67,1946.76 2474.83,1954.37 2475.67,1961.98 2476.79,1972.68 2479.8,2010.85 2480.81,2049.02 2480.81,2059.72 2479.8,2097.89 2476.79,2136.06 2475.67,2146.76 2474.83,2154.37 2475.67,2146.76 2476.79,2136.06 2479.8,2097.89 2480.81,2059.72 2480.81,2049.02 2479.8,2010.85 2476.79,1972.68 2475.67,1961.98 2474.83,1954.37 2304.75,1954.37 2304.71,1954.37 2278.44,1954.37 2278.41,1954.37 2213.73,1954.37 2195.52,1954.37 2164.21,1954.37 2149.81,1954.37 2130.89,1954.37 2118.53,1954.37 2105.09,1954.37 2093.84,1954.37 2082.86,1954.37 2072.1,1954.37 2066.97,1954.37 1972.48,1954.37 1967.35,1954.37 1956.59,1954.37 1945.62,1954.37 1934.37,1954.37 1920.92,1954.37 1908.57,1954.37 1889.63,1954.37 1875.23,1954.37 1843.96,1954.37 1825.76,1954.37 1811.04,1954.37 1799.3,1937.33 1793.5,1928.2 1778.23,1901.12 1773.3,1891.23 1759.67,1859.72 1755.67,1849.02 1743.85,1811.25 1740.86,1799.68 1731.68,1754.37 1734.7,1754.37 1734.74,1754.37 1761.01,1754.37 1761.05,1754.37 1825.76,1754.37 1843.96,1754.37 1875.23,1754.37 1889.63,1754.37 1908.57,1754.37 1920.92,1754.37 1934.37,1754.37 1945.62,1754.37 1956.59,1754.37 1967.35,1754.37 1972.48,1754.37 2066.97,1754.37 2072.1,1754.37 2082.86,1754.37 2093.84,1754.37 2105.09,1754.37 2118.53,1754.37 2130.89,1754.37 2149.81,1754.37 2164.21,1754.37 2195.52,1754.37 2213.73,1754.37 2278.41,1754.37 2278.44,1754.37 2304.71,1754.37 2304.75,1754.37 2474.83,1754.37 2475.67,1746.76 2476.79,1736.06 2479.8,1697.89 2480.81,1659.72 2480.81,1649.02 2479.8,1610.85 2476.79,1572.68 2475.67,1561.98 2474.83,1554.37 2475.67,1546.76 2476.79,1536.06 2479.8,1497.89 2480.81,1459.72 2480.81,1449.02 2479.8,1410.85 2476.79,1372.68 2475.67,1361.98 2474.83,1354.37 2475.67,1346.76 2476.79,1336.06 2479.8,1297.89 2480.81,1259.72 2480.81,1249.02 2479.8,1210.85 2476.79,1172.68 2475.67,1161.98 2474.83,1154.37 2304.75,1154.37 2304.71,1154.37 2278.44,1154.37 2278.41,1154.37 2213.73,1154.37 2195.52,1154.37 2164.21,1154.37 2149.81,1154.37 2130.89,1154.37 2118.53,1154.37 2105.09,1154.37 2093.84,1154.37 2082.86,1154.37 2072.1,1154.37 2066.97,1154.37 1972.48,1154.37 1967.35,1154.37 1956.59,1154.37 1945.62,1154.37 1934.37,1154.37 1920.92,1154.37 1908.57,1154.37 1889.63,1154.37 1875.23,1154.37 1843.96,1154.37 1825.76,1154.37 1761.05,1154.37 1761.01,1154.37 1734.74,1154.37 1734.7,1154.37 1658.91,1154.37 1684.54,1121.03 1695.24,1107.82 1716.76,1082.51 1738.28,1059.72 1748.98,1049.02 1781.8,1019.32 1792.5,1010.65 1818.52,991.674 1829.22,984.726 1850.53,972.374 1861.23,966.922 1879.28,958.864 1889.97,954.756 1890.98,954.372 1908.57,954.372 1920.92,954.372 1934.37,954.372 1945.62,954.372 1956.59,954.372 1967.35,954.372 1972.48,954.372 2066.97,954.372 2072.1,954.372 2082.86,954.372 2093.84,954.372 2105.09,954.372 2118.53,954.372 2130.89,954.372 2149.81,954.372 2164.21,954.372 2195.52,954.372 2213.73,954.372 2278.41,954.372 2278.44,954.372 2304.71,954.372 2304.75,954.372 2474.83,954.372 2475.67,946.76 2476.79,936.06 2479.8,897.89 2480.81,859.72 2480.81,849.02 2479.58,806.732 2477.58,772.514 2477.48,770.678 2477.26,766.78 2476.99,761.7 2476.64,754.37 2477.93,747.242 2479.93,736.726 2488.17,694.912 2488.91,691.106 2494.93,659.72 2497.06,649.022 2503.75,616.618 2504.56,612.672 2514.21,564.726 2516.59,553.28 2521.85,528.82 2522.75,524.57 2532.91,476.224 2538,450.498 2540.36,437.732 2550.55,372.714 2557.61,304.562 2558.72,290.536 2563.04,206.354 2564.28,157.522 1673.33,157.522 2564.28,157.522 4210.06,157.522 5669.33,157.52 5669.33,606.734 5669.33,2101.22 5669.33,4418.94 4843.97,4418.93 910.347,4418.93 157.521,4418.94 157.523,2106.73 157.521,606.734 189.589,606.734 203.987,606.734 247.889,606.734 260.245,606.734 293.157,606.734 304.407,606.734 332.345,606.734 343.103,606.734 356.339,606.734 450.827,606.734 464.063,606.734 474.823,606.734 502.763,606.734 514.013,606.734 546.941,606.734 559.297,606.734 560.719,606.734 766.131,606.734 767.557,606.734 779.913,606.734 812.841,606.734 824.091,606.734 852.031,606.734 862.791,606.734 876.027,606.734 970.513,606.734 983.751,606.734 994.509,606.734 1022.45,606.734 1033.7,606.734 1050.53,606.734 1058.8,620.27 1064.98,630.972 1078.03,656.514 1082.8,667.214 1091.37,689.472 1094.84,700.172 1100.25,720.28 1102.52,730.978 1105.5,749.742 1106.63,760.442 1107.58,778.548 1107.58,789.25 1106.63,807.356 1105.5,818.056 1102.52,836.82 1100.25,847.518 1098.05,856.732 1094.85,867.616 1091.37,878.318 1082.79,900.602 1078.03,911.3 1064.98,936.826 1058.8,947.528 1039.13,977.694 1031.36,988.394 1001.27,1025.39 991.635,1036.08 970.515,1058.31 967.759,1061.06 906.397,1061.06 880.773,1054.84 876.027,1053.83 868.457,1052.15 853.583,1048.72 843.065,1046.43 824.297,1042.58 812.239,1039.93 799.409,1036.92 788.915,1034.59 768.025,1030.22 755.679,1027.46 748.905,1025.85 708.985,1028.25 696.639,1029.54 689.117,1030.4 686.875,1123.15 685.575,1150.59 682.875,1187.52 680.841,1205.73 678.163,1223.08 675.231,1237.06 672.357,1247.68 672.299,1247.9 668.989,1260.25 667.031,1269.44 665.075,1281.78 664.181,1290.26 663.535,1302.61 663.535,1310.86 664.181,1323.21 665.075,1331.69 667.031,1344.03 668.989,1353.22 672.299,1365.57 672.357,1365.79 675.231,1376.41 678.163,1390.38 679.111,1396.53 671.407,1418.37 659.663,1440.22 643.879,1462.06 624.055,1483.9 562.639,1545.32 562.639,1662.13 572.333,1691.65 579.257,1721.18 583.411,1750.7 584.795,1780.22 584.795,1833.24 583.109,1865.83 578.045,1898.43 569.609,1931.02 557.795,1963.61 535.835,2016.63 514.293,2061.68 486.989,2106.73 389.933,2106.73 336.917,2106.73 157.523,2106.73 336.917,2106.73 389.933,2106.73 486.989,2106.73 514.293,2151.78 535.835,2196.83 557.795,2249.85 569.609,2282.44 578.045,2315.04 583.109,2347.63 584.795,2380.22 584.795,2433.24 583.411,2462.76 579.257,2492.29 572.333,2521.81 562.639,2551.34 562.641,2572.64 594.819,2650.33 624.055,2679.56 643.879,2701.41 659.663,2723.25 671.407,2745.09 679.111,2766.93 678.163,2773.08 675.231,2787.05 672.357,2797.67 672.299,2797.89 668.989,2810.24 667.031,2819.43 665.075,2831.78 664.181,2840.26 663.535,2852.61 663.535,2860.86 664.181,2873.2 665.075,2881.68 667.031,2894.03 668.989,2903.22 672.299,2915.57 672.357,2915.79 675.231,2926.41 678.163,2940.38 679.111,2946.53 671.407,2968.37 659.663,2990.21 643.879,3012.05 624.055,3033.9 550.761,3107.19 550.397,3107.95 527.335,3111.5 515.375,3113.68 477.965,3122.49 466.863,3125.74 450.829,3130.9 356.339,3164.04 344.787,3168.43 343.179,3169.09 335.047,3178.12 319.113,3197.71 311.339,3208.41 301.389,3223.68 295.211,3234.38 288.917,3246.69 284.153,3257.39 280.205,3267.64 276.729,3278.34 274.347,3287.2 272.073,3297.9 270.799,3305.92 269.675,3316.62 269.275,3324.21 269.275,3334.92 269.675,3342.51 270.799,3353.21 272.073,3361.23 274.347,3371.93 276.731,3380.8 280.207,3391.5 284.151,3401.74 288.913,3412.43 295.211,3424.75 301.389,3435.45 311.349,3450.73 319.123,3461.43 335.047,3481 344.681,3491.7 351.847,3499.39 356.341,3501.31 369.435,3506.73 450.827,3506.73 464.063,3506.73 474.823,3506.73 502.763,3506.73 514.013,3506.73 546.941,3506.73 559.297,3506.73 560.719,3506.73 766.131,3506.73 767.557,3506.73 779.913,3506.73 812.841,3506.73 824.091,3506.73 852.031,3506.73 862.791,3506.73 876.027,3506.73 970.513,3506.73 983.751,3506.73 994.509,3506.73 1022.45,3506.73 1033.7,3506.73 1066.61,3506.73 1078.97,3506.73 1080.41,3506.73 1113.18,3517.48 1123.88,3521.59 1161.6,3538.44 1172.3,3543.89 1215.54,3568.94 1226.24,3575.89 1250.45,3592.54 1253.85,3618.22 1254.97,3628.91 1257.58,3678.54 1257.58,3689.25 1254.97,3738.88 1253.85,3749.57 1245.75,3800.59 1243.47,3811.29 1229.01,3865.08 1225.54,3875.78 1215.17,3904.98 1203.05,3934.17 1198.29,3944.87 1182.71,3977.45 1164.97,4010.04 1158.79,4020.74 1136.72,4056.73 1112.35,4094.27 1110.47,4097.16 1109.65,4098.42 1102.99,4108.74 1047.37,4196.1 1044.17,4201.1 1032.2,4219.73 1022.97,4234.27 970.513,4317.88 945.951,4357.95 942.091,4364.39 910.347,4418.93" style="stroke:rgb(0,0,0);stroke-width:1px;fill:none;stroke-opacity:1;stroke-linecap:round;stroke-linejoin:round;;fill:none"/>
<polyline points="1714.47,2428.96 1753.83,2413.37 1771.26,2406.14 1772.64,2405.53 1779.2,2402.74 1812.29,2388.9 1818.09,2386.41 1823.28,2384.12 1825.57,2383.1 1848.85,2372.6 1850.09,2372.04 1853.29,2370.62 1861.22,2366.91 1863.43,2365.82 1879.28,2358.86 1889.97,2354.75 1890.98,2354.37 1908.57,2354.37 1920.92,2354.37 1934.37,2354.37 1945.62,2354.37 1956.59,2354.37 1967.35,2354.37 1972.48,2354.37 2066.97,2354.37 2072.1,2354.37 2082.86,2354.37 2093.84,2354.37 2105.09,2354.37 2118.53,2354.37 2130.89,2354.37 2149.81,2354.37 2164.21,2354.37 2195.52,2354.37 2213.73,2354.37 2278.41,2354.37 2278.44,2354.37 2304.71,2354.37 2304.75,2354.37 2385.5,2354.37 2412.69,2333.36 2423.39,2324.7 2474.44,2279.91 2504.44,2314.8 2512.68,2323.94 2542.2,2355.18 2571.72,2383.31 2579.95,2390.72 2603.56,2410.95 2627.17,2429.13 2635.4,2435.11 2674.88,2460.85 2683.11,2465.6 2717.09,2482.98 2725.32,2486.64 2755.5,2498.26 2763.73,2500.93 2791.4,2508.37 2799.63,2510.12 2825.73,2514.27 2833.96,2515.13 2859.31,2516.47 2867.54,2516.47 2892.9,2515.13 2901.13,2514.27 2927.23,2510.12 2935.46,2508.37 2950.46,2504.72 2960.15,2496.84 2966.42,2491.48 2986.14,2472.77 2991.8,2466.8 3009.64,2445.91 3014.7,2439.32 3031.05,2415.5 3035.47,2408.28 3050.49,2380.56 3054.25,2372.68 3068.02,2339.33 3071.07,2330.74 3083.16,2289.7 3085.41,2280.31 3088.43,2266.9 3088.43,2260.59 3094.44,2235.04 3096.65,2226.81 3111.71,2180.61 3114.87,2172.38 3137.53,2121.66 3141.72,2113.43 3157.35,2084.71 3175,2056 3180.34,2047.77 3203.46,2014.23 3229.27,1980.7 3235.93,1972.47 3267.92,1935 3303.2,1897.53 3302.35,1859.72 3302.35,1849.02 3303.5,1804.97 3306.97,1760.92 3307.66,1754.37 3327.64,1754.37 3534.7,1754.37 3534.74,1754.37 3561.01,1754.37 3561.04,1754.37 3625.76,1754.37 3643.96,1754.37 3675.23,1754.37 3689.62,1754.37 3708.56,1754.37 3720.92,1754.37 3734.36,1754.37 3745.61,1754.37 3756.59,1754.37 3767.35,1754.37 3772.48,1754.37 3866.97,1754.37 3872.1,1754.37 3882.86,1754.37 3893.83,1754.37 3905.08,1754.37 3918.53,1754.37 3930.88,1754.37 3949.81,1754.37 3952.01,1754.37 3961.07,1757.85 3979.43,1766.06 3990.13,1771.51 4011.77,1784.04 4022.47,1790.99 4048.83,1810.23 4059.53,1818.89 4092.83,1849.02 4103.53,1859.72 4125.35,1882.82 4147.17,1908.49 4157.87,1921.71 4170.06,1937.13 4174.14,1945.95 4177.97,1954.37 4181.92,1958.82 4199.04,1978.28 4207.28,1987.47 4229.65,2011.98 4235.24,2018.18 4240.83,2018.77 4273.93,2021.38 4307.03,2022.25 4319.38,2022.25 4352.48,2021.38 4385.58,2018.77 4397.93,2017.47 4431.85,2012.99 4465.77,2006.69 4478.12,2004.07 4484.31,2002.72 4491.59,2002.72 4504.88,1989.04 4535.34,1936.77 4565.81,1890.73 4596.27,1850.93 4626.73,1817.35 4679.75,1764.33 4696.45,1749.09 4704.43,1742.5 4708.32,1739.38 4721.07,1729.45 4724.61,1726.78 4732.44,1721.09 4735.52,1718.77 4738.87,1716.17 4748.53,1707.81 4751.56,1704.89 4755.99,1700.38 4770.81,1684.48 4789.99,1667.77 4813.17,1654.54 4866.19,1630.35 4894,1619.81 4910.99,1644.66 4923.51,1669.52 4945.47,1722.54 4951.96,1743.44 4954.13,1764.33 4954.13,1817.35 4951.96,1838.25 4945.47,1859.14 4933.39,1888.33 4939.63,2324.94 4956.11,2364.73 4961.43,2381.87 4963.21,2399 4963.21,2452.02 4961.43,2469.16 4956.11,2486.3 4934.14,2539.32 4925.56,2556.93 4914.4,2574.53 4900.66,2592.14 4884.34,2609.75 4831.33,2662.77 4804.81,2687.52 4774.75,2712.27 4741.16,2737.02 4704.04,2761.77 4700.67,2763.22 4656.05,2769.55 4611.29,2774.64 4605.93,2775.23 4550.66,2781.21 4509.82,2804.36 4505.96,2806.68 4468,2830.57 4430.04,2856.73 4398.18,2856.73 4395.2,2859.72 4354.31,2898.85 4313.43,2934.48 4304.43,2941.94 4294.04,2950.66 4289.7,2954.37 4285.57,2959.87 4277.4,2970.89 4275.97,2972.85 4273.98,2975.56 4221.45,3046.91 4219.89,3049.02 4218.59,3050.77 4212.06,3059.72 4180.38,3103.8 4177.86,3107.28 4172.98,3113.98 4166.2,3123.47 4147,3150.96 4144.69,3154.23 4144.6,3154.37 4137.43,3180.74 4134.22,3192.06 4130.76,3203.74 4114.8,3249.02 4110.37,3259.72 4092.68,3296.9 4087.35,3306.7 4078.61,3321.91 4069.82,3336.35 4068.64,3338.29 4067.79,3339.67 4063.08,3347.53 4059.11,3354.37 4058.59,3363.19 4058.19,3371.54 4058.06,3375.14 4058.03,3375.84 4056.84,3407.21 4056.78,3408.53 4056.67,3411.19 4056.43,3419.55 4056.16,3439.32 4056.07,3443.19 4055.91,3449.02 4055.8,3456.73 4055.8,3459.72 4054.28,3488.73 4053.15,3499.43 4048.41,3529.29 4046.14,3539.99 4037.61,3571.72 4034.13,3582.42 4020.75,3617.17 4015.99,3627.87 3995.95,3667.06 3989.77,3677.76 3960.01,3723.42 3952.23,3734.12 3931.07,3761.61 3907.51,3789.09 3897.88,3799.79 3866.97,3832.32 3857.3,3841.99 3772.48,3841.99 3737.23,3841.06 3726.53,3840.5 3670.84,3835.28 3656.49,3828.71 3646.67,3824.3 3621.28,3813.15 3595.47,3771.64 3589.3,3760.94 3572.77,3730.58 3558.26,3700.23 3553.5,3689.53 3532.61,3635.28 3529.13,3624.58 3515.68,3574.55 3513.41,3563.84 3505.89,3516.49 3504.76,3505.79 3502.34,3459.72 3502.34,3449.02 3504.76,3402.94 3505.89,3392.24 3511.5,3354.37 3505.89,3316.49 3504.76,3305.79 3502.34,3259.72 3502.34,3249.02 3504.76,3202.94 3505.89,3192.24 3511.5,3154.37 3505.89,3116.49 3504.76,3105.79 3502.34,3059.72 3502.34,3049.02 3504.76,3002.94 3505.89,2992.24 3511.5,2954.37 3505.89,2916.49 3504.86,2906.73 3504.76,2905.79 3502.55,2885.14 3502.15,2881.3 3500.03,2859.72 3498.85,2849.02 3497.46,2837.75 3497,2833.86 3493.2,2800.49 3491.79,2789.25 3491.48,2786.99 3490.93,2782.9 3487.25,2754.37 3476.9,2733.98 3475.12,2730.45 3471.77,2723.74 3466.72,2713.87 3463.13,2707.02 3441.02,2659.72 3439.78,2656.73 3441.02,2659.72 3463.13,2707.02 3466.72,2713.87 3471.77,2723.74 3475.12,2730.45 3476.9,2733.98 3487.25,2754.37 3534.7,2754.37 3534.74,2754.37 3561.01,2754.37 3561.04,2754.37 3625.76,2754.37 3643.96,2754.37 3675.23,2754.37 3689.62,2754.37 3708.56,2754.37 3720.92,2754.37 3734.36,2754.37 3745.61,2754.37 3756.59,2754.37 3767.35,2754.37 3772.48,2754.37 3866.97,2754.37 3872.1,2754.37 3882.86,2754.37 3893.83,2754.37 3905.08,2754.37 3918.53,2754.37 3930.88,2754.37 3949.81,2754.37 3964.21,2754.37 3995.52,2754.37 4013.72,2754.37 4078.4,2754.37 4078.44,2754.37 4104.71,2754.37 4104.75,2754.37 4284.1,2754.37 4289.82,2758.97 4300.53,2767.63 4345.5,2806.18 4390.47,2849.02 4398.18,2856.73 4395.2,2859.72 4354.31,2898.85 4313.43,2934.48 4304.43,2941.94 4294.04,2950.66 4289.7,2954.37 4104.75,2954.37 4104.71,2954.37 4078.44,2954.37 4078.4,2954.37 4013.72,2954.37 3995.52,2954.37 3964.21,2954.37 3949.81,2954.37 3930.88,2954.37 3918.53,2954.37 3905.08,2954.37 3893.83,2954.37 3882.86,2954.37 3872.1,2954.37 3866.97,2954.37 3772.48,2954.37 3767.35,2954.37 3756.59,2954.37 3745.61,2954.37 3734.36,2954.37 3720.92,2954.37 3708.56,2954.37 3689.62,2954.37 3675.23,2954.37 3643.96,2954.37 3625.76,2954.37 3561.04,2954.37 3561.01,2954.37 3534.74,2954.37 3534.7,2954.37 3511.5,2954.37 3505.89,2992.24 3504.76,3002.94 3502.34,3049.02 3502.34,3059.72 3504.76,3105.79 3505.89,3116.49 3511.5,3154.37 3534.7,3154.37 3534.74,3154.37 3561.01,3154.37 3561.04,3154.37 3625.76,3154.37 3643.96,3154.37 3675.23,3154.37 3689.62,3154.37 3708.56,3154.37 3720.92,3154.37 3734.36,3154.37 3745.61,3154.37 3756.59,3154.37 3767.35,3154.37 3772.48,3154.37 3866.97,3154.37 3872.1,3154.37 3882.86,3154.37 3893.83,3154.37 3905.08,3154.37 3918.53,3154.37 3930.88,3154.37 3949.81,3154.37 3964.21,3154.37 3995.52,3154.37 4013.72,3154.37 4078.4,3154.37 4078.44,3154.37 4104.71,3154.37 4104.75,3154.37 4144.6,3154.37 4137.43,3180.74 4134.22,3192.06 4130.76,3203.74 4114.8,3249.02 4110.37,3259.72 4092.68,3296.9 4087.35,3306.7 4078.61,3321.91 4069.82,3336.35 4068.64,3338.29 4067.79,3339.67 4063.08,3347.53 4059.11,3354.37 4013.72,3354.37 3995.52,3354.37 3964.21,3354.37 3949.81,3354.37 3930.88,3354.37 3918.53,3354.37 3905.08,3354.37 3893.83,3354.37 3882.86,3354.37 3872.1,3354.37 3866.97,3354.37 3772.48,3354.37 3767.35,3354.37 3756.59,3354.37 3745.61,3354.37 3734.36,3354.37 3720.92,3354.37 3708.56,3354.37 3689.62,3354.37 3675.23,3354.37 3643.96,3354.37 3625.76,3354.37 3561.04,3354.37 3561.01,3354.37 3534.74,3354.37 3534.7,3354.37 3511.5,3354.37 3505.89,3392.24 3504.76,3402.94 3502.34,3449.02 3502.34,3459.72 3504.76,3505.79 3505.89,3516.49 3513.41,3563.84 3515.68,3574.55 3529.13,3624.58 3532.61,3635.28 3553.5,3689.53 3558.26,3700.23 3572.77,3730.58 3589.3,3760.94 3595.47,3771.64 3621.28,3813.15 3614.47,3817.54 3594.36,3830.6 3553.15,3858.76 3516.24,3886.91 3500.11,3899.97 3476.37,3920.16 3454.99,3940.35 3441.93,3953.41 3414.59,3983.62 3404.01,3996.68 3386.93,4020.1 3378.45,4033.16 3367.58,4051.92 3360.92,4064.99 3353.99,4080.51 3348.97,4093.57 3348.46,4094.92 3348.46,4109.09 3348.46,4124.18 3348.46,4135.01 3348.46,4148.75 3348.46,4157.29 3348.46,4170.42 3348.46,4174.37 3348.46,4221.85 3348.46,4225.79 3348.46,4238.93 3348.46,4247.47 3348.46,4261.21 3348.46,4272.04 3348.46,4282.34 3344.32,4284.73 3333.95,4290.03 3320.89,4295.85 3312.61,4299.03 3299.55,4303.28 3292.69,4305.12 3279.63,4307.9 3273.63,4308.85 3260.57,4310.22 3254.99,4310.52 3241.93,4310.52 3236.35,4310.22 3223.29,4308.85 3217.3,4307.9 3204.24,4305.12 3197.38,4303.28 3184.31,4299.03 3176.04,4295.85 3162.98,4290.03 3159.44,4288.38 3158.24,4284.33 3157.55,4281.88 3154.05,4268.81 3152.17,4260.01 3150.1,4246.94 3149.25,4238.84 3148.57,4225.78 3148.46,4221.85 3148.46,4174.37 3148.57,4170.44 3149.25,4157.38 3150.1,4149.27 3152.17,4136.21 3154.05,4127.4 3157.55,4114.34 3158.24,4111.89 3160.57,4104.02 3163.91,4089.44 3166.68,4072.91 3168.15,4062.48 3158.76,4041.63 3146.09,4020.79 3130.15,3999.94 3110.94,3979.09 3064.38,3932.53 3063.43,3930.23 3063.43,3197.62 3067.25,3177.25 3068.55,3169.02 3072.37,3132.87 3072.8,3124.64 3072.8,3088.83 3072.37,3080.6 3069.19,3048.6 3065.07,3045.57 3056.84,3039.59 3024.48,3018.49 3016.24,3013.74 2988.56,2999.58 2980.33,2995.92 2955.87,2986.5 2947.64,2983.83 2925.33,2977.83 2917.1,2976.08 2896.12,2972.75 2887.89,2971.88 2867.54,2970.81 2859.31,2970.81 2838.97,2971.88 2830.74,2972.75 2809.75,2976.08 2801.52,2977.83 2779.21,2983.83 2770.98,2986.5 2746.53,2995.92 2738.3,2999.58 2710.61,3013.74 2702.38,3018.49 2670.02,3039.59 2661.79,3045.57 2622.82,3077.26 2614.59,3084.67 2577.56,3120.95 2578.29,3128.73 2578.67,3132.57 2579.44,3140.77 2580.79,3156.73 2585.18,3192.77 2586.48,3201 2588.43,3212.46 2588.43,3850.74 2465.94,3973.23 2446.73,3994.07 2430.79,4014.92 2418.13,4035.76 2408.73,4056.61 2410.21,4067.09 2412.98,4083.61 2416.31,4098.18 2418.64,4106.06 2419.33,4108.51 2422.83,4121.57 2424.71,4130.38 2426.78,4143.44 2427.63,4151.54 2428.32,4164.6 2428.42,4168.54 2428.42,4216.02 2428.32,4219.95 2427.63,4233.01 2426.78,4241.11 2424.71,4254.17 2422.83,4262.98 2419.33,4276.04 2418.64,4278.5 2416.31,4286.37 2416.22,4286.66 2403.43,4292.36 2394.47,4295.81 2381.41,4300.05 2373.88,4302.07 2360.82,4304.85 2354.2,4305.9 2341.14,4307.27 2334.95,4307.6 2321.89,4307.6 2315.7,4307.27 2302.64,4305.9 2296.02,4304.85 2282.96,4302.07 2275.44,4300.05 2262.37,4295.81 2253.4,4292.35 2240.34,4286.54 2229.2,4280.84 2228.42,4280.39 2229.2,4280.84 2240.34,4286.54 2253.4,4292.35 2262.37,4295.81 2275.44,4300.05 2282.96,4302.07 2296.02,4304.85 2302.64,4305.9 2315.7,4307.27 2321.89,4307.6 2334.95,4307.6 2341.14,4307.27 2354.2,4305.9 2360.82,4304.85 2373.88,4302.07 2381.41,4300.05 2394.47,4295.81 2403.43,4292.36 2416.22,4286.66 2428.65,4295.9 2441.08,4302.49 2453.51,4306.45 2465.94,4307.77 2590.9,4307.77 2605.54,4305.94 2620.18,4300.45 2634.81,4291.3 2649.45,4278.5 2652.74,4275.2 2925.67,4276.73 2933.27,4284.33 2946.45,4295.86 2959.63,4304.1 2972.8,4309.04 2985.98,4310.69 3110.94,4310.69 3123.07,4309.29 3135.19,4305.11 3147.32,4298.14 3159.44,4288.38" style="stroke:rgb(103,198,105);stroke-width:0.000000;fill:none;stroke-opacity:0.5;stroke-linecap:round;stroke-linejoin:round;;fill:none"/>
<polyline points="1714.47,2428.96 1753.83,2413.37 1771.26,2406.14 1772.64,2405.53 1779.2,2402.74 1812.29,2388.9 1818.09,2386.41 1823.28,2384.12 1825.57,2383.1 1848.85,2372.6 1850.09,2372.04 1853.29,2370.62 1861.22,2366.91 1863.43,2365.82 1879.28,2358.86 1889.97,2354.75 1890.98,2354.37 1908.57,2354.37 1920.92,2354.37 1934.37,2354.37 1945.62,2354.37 1956.59,2354.37 1967.35,2354.37 1972.48,2354.37 2066.97,2354.37 2072.1,2354.37 2082.86,2354.37 2093.84,2354.37 2105.09,2354.37 2118.53,2354.37 2130.89,2354.37 2149.81,2354.37 2164.21,2354.37 2195.52,2354.37 2213.73,2354.37 2278.41,2354.37 2278.44,2354.37 2304.71,2354.37 2304.75,2354.37 2385.5,2354.37 2412.69,2333.36 2423.39,2324.7 2474.44,2279.91 2504.44,2314.8 2512.68,2323.94 2542.2,2355.18 2571.72,2383.31 2579.95,2390.72 2603.56,2410.95 2627.17,2429.13 2635.4,2435.11 2674.88,2460.85 2683.11,2465.6 2717.09,2482.98 2725.32,2486.64 2755.5,2498.26 2763.73,2500.93 2791.4,2508.37 2799.63,2510.12 2825.73,2514.27 2833.96,2515.13 2859.31,2516.47 2867.54,2516.47 2892.9,2515.13 2901.13,2514.27 2927.23,2510.12 2935.46,2508.37 2950.46,2504.72 2960.15,2496.84 2966.42,2491.48 2986.14,2472.77 2991.8,2466.8 3009.64,2445.91 3014.7,2439.32 3031.05,2415.5 3035.47,2408.28 3050.49,2380.56 3054.25,2372.68 3068.02,2339.33 3071.07,2330.74 3083.16,2289.7 3085.41,2280.31 3088.43,2266.9 3088.43,2260.59 3094.44,2235.04 3096.65,2226.81 3111.71,2180.61 3114.87,2172.38 3137.53,2121.66 3141.72,2113.43 3157.35,2084.71 3175,2056 3180.34,2047.77 3203.46,2014.23 3229.27,1980.7 3235.93,1972.47 3267.92,1935 3303.2,1897.53 3302.35,1859.72 3302.35,1849.02 3303.5,1804.97 3306.97,1760.92 3307.66,1754.37 3327.64,1754.37 3534.7,1754.37 3534.74,1754.37 3561.01,1754.37 3561.04,1754.37 3625.76,1754.37 3643.96,1754.37 3675.23,1754.37 3689.62,1754.37 3708.56,1754.37 3720.92,1754.37 3734.36,1754.37 3745.61,1754.37 3756.59,1754.37 3767.35,1754.37 3772.48,1754.37 3866.97,1754.37 3872.1,1754.37 3882.86,1754.37 3893.83,1754.37 3905.08,1754.37 3918.53,1754.37 3930.88,1754.37 3949.81,1754.37 3952.01,1754.37 3961.07,1757.85 3979.43,1766.06 3990.13,1771.51 4011.77,1784.04 4022.47,1790.99 4048.83,1810.23 4059.53,1818.89 4092.83,1849.02 4103.53,1859.72 4125.35,1882.82 4147.17,1908.49 4157.87,1921.71 4170.06,1937.13 4174.14,1945.95 4177.97,1954.37 4181.92,1958.82 4199.04,1978.28 4207.28,1987.47 4229.65,2011.98 4235.24,2018.18 4240.83,2018.77 4273.93,2021.38 4307.03,2022.25 4319.38,2022.25 4352.48,2021.38 4385.58,2018.77 4397.93,2017.47 4431.85,2012.99 4465.77,2006.69 4478.12,2004.07 4484.31,2002.72 4491.59,2002.72 4504.88,1989.04 4535.34,1936.77 4565.81,1890.73 4596.27,1850.93 4626.73,1817.35 4679.75,1764.33 4696.45,1749.09 4704.43,1742.5 4708.32,1739.38 4721.07,1729.45 4724.61,1726.78 4732.44,1721.09 4735.52,1718.77 4738.87,1716.17 4748.53,1707.81 4751.56,1704.89 4755.99,1700.38 4770.81,1684.48 4789.99,1667.77 4813.17,1654.54 4866.19,1630.35 4894,1619.81 4910.99,1644.66 4923.51,1669.52 4945.47,1722.54 4951.96,1743.44 4954.13,1764.33 4954.13,1817.35 4951.96,1838.25 4945.47,1859.14 4933.39,1888.33 4939.63,2324.94 4956.11,2364.73 4961.43,2381.87 4963.21,2399 4963.21,2452.02 4961.43,2469.16 4956.11,2486.3 4934.14,2539.32 4925.56,2556.93 4914.4,2574.53 4900.66,2592.14 4884.34,2609.75 4831.33,2662.77 4804.81,2687.52 4774.75,2712.27 4741.16,2737.02 4704.04,2761.77 4700.67,2763.22 4656.05,2769.55 4611.29,2774.64 4605.93,2775.23 4550.66,2781.21 4509.82,2804.36 4505.96,2806.68 4468,2830.57 4430.04,2856.73 4398.18,2856.73 4395.2,2859.72 4354.31,2898.85 4313.43,2934.48 4304.43,2941.94 4294.04,2950.66 4289.7,2954.37 4285.57,2959.87 4277.4,2970.89 4275.97,2972.85 4273.98,2975.56 4221.45,3046.91 4219.89,3049.02 4218.59,3050.77 4212.06,3059.72 4180.38,3103.8 4177.86,3107.28 4172.98,3113.98 4166.2,3123.47 4147,3150.96 4144.69,3154.23 4144.6,3154.37 4137.43,3180.74 4134.22,3192.06 4130.76,3203.74 4114.8,3249.02 4110.37,3259.72 4092.68,3296.9 4087.35,3306.7 4078.61,3321.91 4069.82,3336.35 4068.64,3338.29 4067.79,3339.67 4063.08,3347.53 4059.11,3354.37 4058.59,3363.19 4058.19,3371.54 4058.06,3375.14 4058.03,3375.84 4056.84,3407.21 4056.78,3408.53 4056.67,3411.19 4056.43,3419.55 4056.16,3439.32 4056.07,3443.19 4055.91,3449.02 4055.8,3456.73 4055.8,3459.72 4054.28,3488.73 4053.15,3499.43 4048.41,3529.29 4046.14,3539.99 4037.61,3571.72 4034.13,3582.42 4020.75,3617.17 4015.99,3627.87 3995.95,3667.06 3989.77,3677.76 3960.01,3723.42 3952.23,3734.12 3931.07,3761.61 3907.51,3789.09 3897.88,3799.79 3866.97,3832.32 3857.3,3841.99 3772.48,3841.99 3737.23,3841.06 3726.53,3840.5 3670.84,3835.28 3656.49,3828.71 3646.67,3824.3 3621.28,3813.15 3595.47,3771.64 3589.3,3760.94 3572.77,3730.58 3558.26,3700.23 3553.5,3689.53 3532.61,3635.28 3529.13,3624.58 3515.68,3574.55 3513.41,3563.84 3505.89,3516.49 3504.76,3505.79 3502.34,3459.72 3502.34,3449.02 3504.76,3402.94 3505.89,3392.24 3511.5,3354.37 3505.89,3316.49 3504.76,3305.79 3502.34,3259.72 3502.34,3249.02 3504.76,3202.94 3505.89,3192.24 3511.5,3154.37 3505.89,3116.49 3504.76,3105.79 3502.34,3059.72 3502.34,3049.02 3504.76,3002.94 3505.89,2992.24 3511.5,2954.37 3505.89,2916.49 3504.86,2906.73 3504.76,2905.79 3502.55,2885.14 3502.15,2881.3 3500.03,2859.72 3498.85,2849.02 3497.46,2837.75 3497,2833.86 3493.2,2800.49 3491.79,2789.25 3491.48,2786.99 3490.93,2782.9 3487.25,2754.37 3476.9,2733.98 3475.12,2730.45 3471.77,2723.74 3466.72,2713.87 3463.13,2707.02 3441.02,2659.72 3439.78,2656.73 3441.02,2659.72 3463.13,2707.02 3466.72,2713.87 3471.77,2723.74 3475.12,2730.45 3476.9,2733.98 3487.25,2754.37 3534.7,2754.37 3534.74,2754.37 3561.01,2754.37 3561.04,2754.37 3625.76,2754.37 3643.96,2754.37 3675.23,2754.37 3689.62,2754.37 3708.56,2754.37 3720.92,2754.37 3734.36,2754.37 3745.61,2754.37 3756.59,2754.37 3767.35,2754.37 3772.48,2754.37 3866.97,2754.37 3872.1,2754.37 3882.86,2754.37 3893.83,2754.37 3905.08,2754.37 3918.53,2754.37 3930.88,2754.37 3949.81,2754.37 3964.21,2754.37 3995.52,2754.37 4013.72,2754.37 4078.4,2754.37 4078.44,2754.37 4104.71,2754.37 4104.75,2754.37 4284.1,2754.37 4289.82,2758.97 4300.53,2767.63 4345.5,2806.18 4390.47,2849.02 4398.18,2856.73 4395.2,2859.72 4354.31,2898.85 4313.43,2934.48 4304.43,2941.94 4294.04,2950.66 4289.7,2954.37 4104.75,2954.37 4104.71,2954.37 4078.44,2954.37 4078.4,2954.37 4013.72,2954.37 3995.52,2954.37 3964.21,2954.37 3949.81,2954.37 3930.88,2954.37 3918.53,2954.37 3905.08,2954.37 3893.83,2954.37 3882.86,2954.37 3872.1,2954.37 3866.97,2954.37 3772.48,2954.37 3767.35,2954.37 3756.59,2954.37 3745.61,2954.37 3734.36,2954.37 3720.92,2954.37 3708.56,2954.37 3689.62,2954.37 3675.23,2954.37 3643.96,2954.37 3625.76,2954.37 3561.04,2954.37 3561.01,2954.37 3534.74,2954.37 3534.7,2954.37 3511.5,2954.37 3505.89,2992.24 3504.76,3002.94 3502.34,3049.02 3502.34,3059.72 3504.76,3105.79 3505.89,3116.49 3511.5,3154.37 3534.7,3154.37 3534.74,3154.37 3561.01,3154.37 3561.04,3154.37 3625.76,3154.37 3643.96,3154.37 3675.23,3154.37 3689.62,3154.37 3708.56,3154.37 3720.92,3154.37 3734.36,3154.37 3745.61,3154.37 3756.59,3154.37 3767.35,3154.37 3772.48,3154.37 3866.97,3154.37 3872.1,3154.37 3882.86,3154.37 3893.83,3154.37 3905.08,3154.37 3918.53,3154.37 3930.88,3154.37 3949.81,3154.37 3964.21,3154.37 3995.52,3154.37 4013.72,3154.37 4078.4,3154.37 4078.44,3154.37 4104.71,3154.37 4104.75,3154.37 4144.6,3154.37 4137.43,3180.74 4134.22,3192.06 4130.76,3203.74 4114.8,3249.02 4110.37,3259.72 4092.68,3296.9 4087.35,3306.7 4078.61,3321.91 4069.82,3336.35 4068.64,3338.29 4067.79,3339.67 4063.08,3347.53 4059.11,3354.37 4013.72,3354.37 3995.52,3354.37 3964.21,3354.37 3949.81,3354.37 3930.88,3354.37 3918.53,3354.37 3905.08,3354.37 3893.83,3354.37 3882.86,3354.37 3872.1,3354.37 3866.97,3354.37 3772.48,3354.37 3767.35,3354.37 3756.59,3354.37 3745.61,3354.37 3734.36,3354.37 3720.92,3354.37 3708.56,3354.37 3689.62,3354.37 3675.23,3354.37 3643.96,3354.37 3625.76,3354.37 3561.04,3354.37 3561.01,3354.37 3534.74,3354.37 3534.7,3354.37 3511.5,3354.37 3505.89,3392.24 3504.76,3402.94 3502.34,3449.02 3502.34,3459.72 3504.76,3505.79 3505.89,3516.49 3513.41,3563.84 3515.68,3574.55 3529.13,3624.58 3532.61,3635.28 3553.5,3689.53 3558.26,3700.23 3572.77,3730.58 3589.3,3760.94 3595.47,3771.64 3621.28,3813.15 3614.47,3817.54 3594.36,3830.6 3553.15,3858.76 3516.24,3886.91 3500.11,3899.97 3476.37,3920.16 3454.99,3940.35 3441.93,3953.41 3414.59,3983.62 3404.01,3996.68 3386.93,4020.1 3378.45,4033.16 3367.58,4051.92 3360.92,4064.99 3353.99,4080.51 3348.97,4093.57 3348.46,4094.92 3348.46,4109.09 3348.46,4124.18 3348.46,4135.01 3348.46,4148.75 3348.46,4157.29 3348.46,4170.42 3348.46,4174.37 3348.46,4221.85 3348.46,4225.79 3348.46,4238.93 3348.46,4247.47 3348.46,4261.21 3348.46,4272.04 3348.46,4282.34 3344.32,4284.73 3333.95,4290.03 3320.89,4295.85 3312.61,4299.03 3299.55,4303.28 3292.69,4305.12 3279.63,4307.9 3273.63,4308.85 3260.57,4310.22 3254.99,4310.52 3241.93,4310.52 3236.35,4310.22 3223.29,4308.85 3217.3,4307.9 3204.24,4305.12 3197.38,4303.28 3184.31,4299.03 3176.04,4295.85 3162.98,4290.03 3159.44,4288.38 3158.24,4284.33 3157.55,4281.88 3154.05,4268.81 3152.17,4260.01 3150.1,4246.94 3149.25,4238.84 3148.57,4225.78 3148.46,4221.85 3148.46,4174.37 3148.57,4170.44 3149.25,4157.38 3150.1,4149.27 3152.17,4136.21 3154.05,4127.4 3157.55,4114.34 3158.24,4111.89 3160.57,4104.02 3163.91,4089.44 3166.68,4072.91 3168.15,4062.48 3158.76,4041.63 3146.09,4020.79 3130.15,3999.94 3110.94,3979.09 3064.38,3932.53 3063.43,3930.23 3063.43,3197.62 3067.25,3177.25 3068.55,3169.02 3072.37,3132.87 3072.8,3124.64 3072.8,3088.83 3072.37,3080.6 3069.19,3048.6 3065.07,3045.57 3056.84,3039.59 3024.48,3018.49 3016.24,3013.74 2988.56,2999.58 2980.33,2995.92 2955.87,2986.5 2947.64,2983.83 2925.33,2977.83 2917.1,2976.08 2896.12,2972.75 2887.89,2971.88 2867.54,2970.81 2859.31,2970.81 2838.97,2971.88 2830.74,2972.75 2809.75,2976.08 2801.52,2977.83 2779.21,2983.83 2770.98,2986.5 2746.53,2995.92 2738.3,2999.58 2710.61,3013.74 2702.38,3018.49 2670.02,3039.59 2661.79,3045.57 2622.82,3077.26 2614.59,3084.67 2577.56,3120.95 2578.29,3128.73 2578.67,3132.57 2579.44,3140.77 2580.79,3156.73 2585.18,3192.77 2586.48,3201 2588.43,3212.46 2588.43,3850.74 2465.94,3973.23 2446.73,3994.07 2430.79,4014.92 2418.13,4035.76 2408.73,4056.61 2410.21,4067.09 2412.98,4083.61 2416.31,4098.18 2418.64,4106.06 2419.33,4108.51 2422.83,4121.57 2424.71,4130.38 2426.78,4143.44 2427.63,4151.54 2428.32,4164.6 2428.42,4168.54 2428.42,4216.02 2428.32,4219.95 2427.63,4233.01 2426.78,4241.11 2424.71,4254.17 2422.83,4262.98 2419.33,4276.04 2418.64,4278.5 2416.31,4286.37 2416.22,4286.66 2403.43,4292.36 2394.47,4295.81 2381.41,4300.05 2373.88,4302.07 2360.82,4304.85 2354.2,4305.9 2341.14,4307.27 2334.95,4307.6 2321.89,4307.6 2315.7,4307.27 2302.64,4305.9 2296.02,4304.85 2282.96,4302.07 2275.44,4300.05 2262.37,4295.81 2253.4,4292.35 2240.34,4286.54 2229.2,4280.84 2228.42,4280.39 2229.2,4280.84 2240.34,4286.54 2253.4,4292.35 2262.37,4295.81 2275.44,4300.05 2282.96,4302.07 2296.02,4304.85 2302.64,4305.9 2315.7,4307.27 2321.89,4307.6 2334.95,4307.6 2341.14,4307.27 2354.2,4305.9 2360.82,4304.85 2373.88,4302.07 2381.41,4300.05 2394.47,4295.81 2403.43,4292.36 2416.22,4286.66 2428.65,4295.9 2441.08,4302.49 2453.51,4306.45 2465.94,4307.77 2590.9,4307.77 2605.54,4305.94 2620.18,4300.45 2634.81,4291.3 2649.45,4278.5 2652.74,4275.2 2925.67,4276.73 2933.27,4284.33 2946.45,4295.86 2959.63,4304.1 2972.8,4309.04 2985.98,4310.69 3110.94,4310.69 3123.07,4309.29 3135.19,4305.11 3147.32,4298.14 3159.44,4288.38" style="stroke:rgb(0,0,0);stroke-width:1px;fill:none;stroke-opacity:1;stroke-linecap:round;stroke-linejoin:round;;fill:none"/>
<polyline points="4843.97,4418.93 4793.26,4335.38 4784.08,4320.4 4754.68,4272.94 4751.62,4267.98 4699.62,4183.33 4692.23,4171.45 4681.71,4154.76 4679.11,4150.63 4651.71,4106.73 4634.73,4078.48 4628.55,4067.78 4607.22,4028.59 4588.47,3989.39 4583.71,3978.69 4569.09,3943.48 4556.59,3908.27 4553.12,3897.57 4543.47,3865.06 4535.64,3832.54 4533.37,3821.84 4527.63,3790.96 4523.56,3760.08 4522.43,3749.38 4520.06,3719.31 4519.27,3689.25 4519.27,3678.54 4519.49,3662.8 4560.76,3626.55 4571.46,3617.89 4618.26,3583.74 4628.96,3576.8 4668.4,3553.94 4679.1,3548.49 4713.4,3533.17 4724.1,3529.06 4754.97,3519 4765.67,3516.13 4794.23,3510.05 4804.93,3508.35 4816.94,3506.73 4832.34,3506.73 4843.1,3506.73 4856.34,3506.73 4950.82,3506.73 4964.06,3506.73 4974.82,3506.73 5002.76,3506.73 5014.01,3506.73 5046.94,3506.73 5059.29,3506.73 5060.72,3506.73 5266.13,3506.73 5267.55,3506.73 5279.91,3506.73 5312.84,3506.73 5324.09,3506.73 5352.03,3506.73 5362.79,3506.73 5376.02,3506.73 5394.42,3506.73 5470.51,3475.21 5479.99,3470.99 5490.24,3466.11 5506.4,3457.35 5514.14,3452.61 5515.5,3450.73 5525.46,3435.45 5531.64,3424.75 5537.94,3412.43 5542.7,3401.74 5546.64,3391.5 5550.12,3380.8 5552.5,3371.93 5554.78,3361.23 5556.05,3353.21 5557.18,3342.51 5557.58,3334.92 5557.58,3324.21 5557.18,3316.62 5556.05,3305.92 5554.78,3297.9 5552.5,3287.2 5550.12,3278.34 5546.65,3267.64 5542.7,3257.39 5537.93,3246.69 5531.64,3234.38 5525.46,3223.68 5515.51,3208.41 5507.74,3197.71 5491.8,3178.12 5482.17,3167.42 5470.51,3155.15 5407.42,3092.06 5404.68,3090.93 5376.02,3098.42 5357.54,3102.48 5347.01,3104.62 5310.75,3111.44 5300.61,3113.2 5300.09,3113.28 5262.01,3121.4 5258.1,3122.45 5182.5,3122.45 5150.39,3121.07 5118.29,3116.95 5119.68,3059.56 5120.98,3032.13 5123.68,2995.16 5125.71,2976.95 5128.39,2959.63 5131.32,2945.65 5134.2,2935.02 5134.26,2934.79 5137.56,2922.44 5139.52,2913.26 5141.48,2900.92 5142.37,2892.43 5143.02,2880.09 5143.02,2871.84 5142.37,2859.49 5141.48,2851 5139.52,2838.66 5137.56,2829.48 5134.26,2817.13 5134.2,2816.91 5131.32,2806.27 5128.39,2792.3 5125.71,2774.97 5124.11,2761.98 5133.98,2741.07 5147,2720.17 5163.17,2699.27 5182.5,2678.36 5241.05,2619.81 5241.05,2576.54 5231.36,2545.41 5224.43,2514.28 5220.28,2483.15 5218.89,2452.02 5218.89,2399 5220.77,2362.77 5226.4,2326.54 5235.78,2290.31 5248.91,2254.08 5270.87,2201.06 5291.9,2156.48 5318.06,2111.91 5413.17,2108.5 5431.33,2108.18 5466.19,2108.18 5484.34,2107.85 5669.33,2101.22 5484.34,2107.85 5466.19,2108.18 5431.33,2108.18 5413.17,2108.5 5318.06,2111.91 5285.48,2059.84 5271.94,2033.81 5260.24,2007.77 5238.28,1954.76 5225.83,1920.4 5216.93,1886.05 5211.6,1851.7 5209.82,1817.35 5209.82,1815.54 5143.37,1655.11 5139.78,1645.83 5138.43,1642.08 5133.04,1624.55 5132.09,1620.79 5128.71,1604.31 5128.13,1600.56 5126.43,1584.67 5126.21,1580.92 5125.94,1573.08 5124.08,1400.5 5113.87,1380.59 5107.01,1360.69 5107.96,1354.56 5110.89,1340.58 5113.76,1329.95 5113.83,1329.72 5117.13,1317.38 5119.09,1308.2 5121.05,1295.85 5121.94,1287.36 5122.59,1275.02 5122.59,1266.77 5121.94,1254.42 5121.05,1245.94 5119.09,1233.59 5117.13,1224.41 5113.83,1212.06 5113.76,1211.84 5110.89,1201.2 5107.96,1187.23 5105.28,1169.9 5103.25,1151.7 5100.55,1114.72 5099.24,1087.29 5097.44,1012.83 5085.75,1011.43 5073.88,1010.18 5073.38,1010.26 5065.39,1011.49 5028.54,1005.68 5016.5,1003.26 4978.23,993.51 4967.1,990.03 4950.82,984.47 4856.34,949.384 4844.81,944.76 4834.52,940.314 4814.37,930.338 4804.86,924.984 4787.44,913.952 4778.67,907.73 4778.23,907.416 4768.87,889.038 4764.11,878.34 4757.84,862.072 4754.36,851.37 4750.47,836.89 4748.2,826.192 4746.07,812.802 4744.95,802.102 4744.27,789.25 4744.27,778.548 4744.95,765.696 4746.07,754.996 4748.2,741.606 4750.47,730.908 4754.37,716.42 4757.84,705.72 4764.1,689.47 4768.86,678.772 4778.54,659.842 4784.72,649.14 4799.54,626.406 4807.32,615.706 4814.08,606.734 4832.34,606.734 4843.1,606.734 4856.34,606.734 4950.82,606.734 4964.06,606.734 4974.82,606.734 5002.76,606.734 5014.01,606.734 5046.94,606.734 5059.29,606.734 5060.72,606.734 5266.13,606.734 5267.55,606.734 5279.91,606.734 5312.84,606.734 5324.09,606.734 5352.03,606.734 5362.79,606.734 5376.02,606.734 5470.51,606.734 5483.75,606.734 5494.51,606.734 5522.44,606.734 5533.69,606.734 5566.61,606.734 5578.96,606.734 5622.86,606.734 5637.26,606.734 5669.33,606.734" style="stroke:rgb(103,198,105);stroke-width:0.000000;fill:none;stroke-opacity:0.5;stroke-linecap:round;stroke-linejoin:round;;fill:none"/>
<polyline points="4843.97,4418.93 4793.26,4335.38 4784.08,4320.4 4754.68,4272.94 4751.62,4267.98 4699.62,4183.33 4692.23,4171.45 4681.71,4154.76 4679.11,4150.63 4651.71,4106.73 4634.73,4078.48 4628.55,4067.78 4607.22,4028.59 4588.47,3989.39 4583.71,3978.69 4569.09,3943.48 4556.59,3908.27 4553.12,3897.57 4543.47,3865.06 4535.64,3832.54 4533.37,3821.84 4527.63,3790.96 4523.56,3760.08 4522.43,3749.38 4520.06,3719.31 4519.27,3689.25 4519.27,3678.54 4519.49,3662.8 4560.76,3626.55 4571.46,3617.89 4618.26,3583.74 4628.96,3576.8 4668.4,3553.94 4679.1,3548.49 4713.4,3533.17 4724.1,3529.06 4754.97,3519 4765.67,3516.13 4794.23,3510.05 4804.93,3508.35 4816.94,3506.73 4832.34,3506.73 4843.1,3506.73 4856.34,3506.73 4950.82,3506.73 4964.06,3506.73 4974.82,3506.73 5002.76,3506.73 5014.01,3506.73 5046.94,3506.73 5059.29,3506.73 5060.72,3506.73 5266.13,3506.73 5267.55,3506.73 5279.91,3506.73 5312.84,3506.73 5324.09,3506.73 5352.03,3506.73 5362.79,3506.73 5376.02,3506.73 5394.42,3506.73 5470.51,3475.21 5479.99,3470.99 5490.24,3466.11 5506.4,3457.35 5514.14,3452.61 5515.5,3450.73 5525.46,3435.45 5531.64,3424.75 5537.94,3412.43 5542.7,3401.74 5546.64,3391.5 5550.12,3380.8 5552.5,3371.93 5554.78,3361.23 5556.05,3353.21 5557.18,3342.51 5557.58,3334.92 5557.58,3324.21 5557.18,3316.62 5556.05,3305.92 5554.78,3297.9 5552.5,3287.2 5550.12,3278.34 5546.65,3267.64 5542.7,3257.39 5537.93,3246.69 5531.64,3234.38 5525.46,3223.68 5515.51,3208.41 5507.74,3197.71 5491.8,3178.12 5482.17,3167.42 5470.51,3155.15 5407.42,3092.06 5404.68,3090.93 5376.02,3098.42 5357.54,3102.48 5347.01,3104.62 5310.75,3111.44 5300.61,3113.2 5300.09,3113.28 5262.01,3121.4 5258.1,3122.45 5182.5,3122.45 5150.39,3121.07 5118.29,3116.95 5119.68,3059.56 5120.98,3032.13 5123.68,2995.16 5125.71,2976.95 5128.39,2959.63 5131.32,2945.65 5134.2,2935.02 5134.26,2934.79 5137.56,2922.44 5139.52,2913.26 5141.48,2900.92 5142.37,2892.43 5143.02,2880.09 5143.02,2871.84 5142.37,2859.49 5141.48,2851 5139.52,2838.66 5137.56,2829.48 5134.26,2817.13 5134.2,2816.91 5131.32,2806.27 5128.39,2792.3 5125.71,2774.97 5124.11,2761.98 5133.98,2741.07 5147,2720.17 5163.17,2699.27 5182.5,2678.36 5241.05,2619.81 5241.05,2576.54 5231.36,2545.41 5224.43,2514.28 5220.28,2483.15 5218.89,2452.02 5218.89,2399 5220.77,2362.77 5226.4,2326.54 5235.78,2290.31 5248.91,2254.08 5270.87,2201.06 5291.9,2156.48 5318.06,2111.91 5413.17,2108.5 5431.33,2108.18 5466.19,2108.18 5484.34,2107.85 5669.33,2101.22 5484.34,2107.85 5466.19,2108.18 5431.33,2108.18 5413.17,2108.5 5318.06,2111.91 5285.48,2059.84 5271.94,2033.81 5260.24,2007.77 5238.28,1954.76 5225.83,1920.4 5216.93,1886.05 5211.6,1851.7 5209.82,1817.35 5209.82,1815.54 5143.37,1655.11 5139.78,1645.83 5138.43,1642.08 5133.04,1624.55 5132.09,1620.79 5128.71,1604.31 5128.13,1600.56 5126.43,1584.67 5126.21,1580.92 5125.94,1573.08 5124.08,1400.5 5113.87,1380.59 5107.01,1360.69 5107.96,1354.56 5110.89,1340.58 5113.76,1329.95 5113.83,1329.72 5117.13,1317.38 5119.09,1308.2 5121.05,1295.85 5121.94,1287.36 5122.59,1275.02 5122.59,1266.77 5121.94,1254.42 5121.05,1245.94 5119.09,1233.59 5117.13,1224.41 5113.83,1212.06 5113.76,1211.84 5110.89,1201.2 5107.96,1187.23 5105.28,1169.9 5103.25,1151.7 5100.55,1114.72 5099.24,1087.29 5097.44,1012.83 5085.75,1011.43 5073.88,1010.18 5073.38,1010.26 5065.39,1011.49 5028.54,1005.68 5016.5,1003.26 4978.23,993.51 4967.1,990.03 4950.82,984.47 4856.34,949.384 4844.81,944.76 4834.52,940.314 4814.37,930.338 4804.86,924.984 4787.44,913.952 4778.67,907.73 4778.23,907.416 4768.87,889.038 4764.11,878.34 4757.84,862.072 4754.36,851.37 4750.47,836.89 4748.2,826.192 4746.07,812.802 4744.95,802.102 4744.27,789.25 4744.27,778.548 4744.95,765.696 4746.07,754.996 4748.2,741.606 4750.47,730.908 4754.37,716.42 4757.84,705.72 4764.1,689.47 4768.86,678.772 4778.54,659.842 4784.72,649.14 4799.54,626.406 4807.32,615.706 4814.08,606.734 4832.34,606.734 4843.1,606.734 4856.34,606.734 4950.82,606.734 4964.06,606.734 4974.82,606.734 5002.76,606.734 5014.01,606.734 5046.94,606.734 5059.29,606.734 5060.72,606.734 5266.13,606.734 5267.55,606.734 5279.91,606.734 5312.84,606.734 5324.09,606.734 5352.03,606.734 5362.79,606.734 5376.02,606.734 5470.51,606.734 5483.75,606.734 5494.51,606.734 5522.44,606.734 5533.69,606.734 5566.61,606.734 5578.96,606.734 5622.86,606.734 5637.26,606.734 5669.33,606.734" style="stroke:rgb(0,0,0);stroke-width:1px;fill:none;stroke-opacity:1;stroke-linecap:round;stroke-linejoin:round;;fill:none"/>
</svg>
