G04 --- HEADER BEGIN --- *
G04 #@! TF.GenerationSoftware,LibrePCB,LibrePCB,0.1.6*
G04 #@! TF.CreationDate,2022-09-15T14:24:33*
G04 #@! TF.ProjectId,D&D Alerter,e525b3f6-46db-4784-bcd4-d1e7e9f5ff90,v1*
G04 #@! TF.Part,Single*
G04 #@! TF.SameCoordinates*
G04 #@! TF.FileFunction,Copper,L1,Top*
G04 #@! TF.FilePolarity,Positive*
%FSLAX66Y66*%
%MOMM*%
G01*
G75*
G04 --- HEADER END --- *
G04 --- APERTURE LIST BEGIN --- *
G04 #@! TA.AperFunction,ComponentPad*
%ADD10O,1.587X2.19*%
%ADD11R,1.587X2.19*%
%ADD12C,1.5*%
%ADD13R,1.5X1.5*%
%ADD14O,2.5X1.3*%
%AMROTATEDOCTAGON15*4,1,8,0.8128,0.336673,0.336673,0.8128,-0.336673,0.8128,-0.8128,0.336673,-0.8128,-0.336673,-0.336673,-0.8128,0.336673,-0.8128,0.8128,-0.336673,0.8128,0.336673,0.0*%
%ADD15ROTATEDOCTAGON15*%
G04 #@! TA.AperFunction,ViaPad*
%ADD16C,1.0*%
G04 #@! TA.AperFunction,Conductor*
%ADD17C,0.5*%
G04 #@! TD*
G04 --- APERTURE LIST END --- *
G04 --- BOARD BEGIN --- *
D10*
G04 #@! TO.N,SDA*
G04 #@! TO.C,J1*
G04 #@! TO.P,J1,2,2*
X-7429596Y-27121428D03*
D11*
G04 #@! TO.N,VCC*
G04 #@! TO.P,J1,1,1*
X-4889596Y-27121428D03*
D10*
G04 #@! TO.N,GND*
G04 #@! TO.P,J1,4,4*
X-12509596Y-27121428D03*
G04 #@! TO.N,SCL*
G04 #@! TO.P,J1,3,3*
X-9969596Y-27121428D03*
D12*
G04 #@! TO.N,GND*
G04 #@! TO.C,C4*
G04 #@! TO.P,C4,-,-*
X27067224Y-10404236D03*
D13*
G04 #@! TO.N,N4*
G04 #@! TO.P,C4,+,+*
X29567224Y-10404236D03*
D12*
G04 #@! TO.N,GND*
G04 #@! TO.C,C2*
G04 #@! TO.P,C2,-,-*
X-27325000Y-10160000D03*
D13*
G04 #@! TO.N,N2*
G04 #@! TO.P,C2,+,+*
X-29825000Y-10160000D03*
D14*
G04 #@! TO.N,GND*
G04 #@! TO.C,S3*
G04 #@! TO.P,S3,1,1*
X31875000Y20665000D03*
G04 #@! TO.N,N3*
G04 #@! TO.P,S3,2,2*
X31875000Y16165000D03*
G04 #@! TO.P,S3,3,2*
X25275000Y16165000D03*
G04 #@! TO.N,GND*
G04 #@! TO.P,S3,4,1*
X25275000Y20665000D03*
G04 #@! TO.C,S4*
G04 #@! TO.P,S4,1,1*
X31875000Y-16165000D03*
G04 #@! TO.N,N4*
G04 #@! TO.P,S4,2,2*
X31875000Y-20665000D03*
G04 #@! TO.P,S4,3,2*
X25275000Y-20665000D03*
G04 #@! TO.N,GND*
G04 #@! TO.P,S4,4,1*
X25275000Y-16165000D03*
D15*
G04 #@! TO.N,BUTTONS*
G04 #@! TO.C,R4*
G04 #@! TO.P,R4,2,2*
X24693986Y-4683548D03*
G04 #@! TO.N,N4*
G04 #@! TO.P,R4,1,1*
X32313986Y-4683548D03*
D11*
G04 #@! TO.N,VCC*
G04 #@! TO.C,J2*
G04 #@! TO.P,J2,1,1*
X1714994Y-27195512D03*
D10*
G04 #@! TO.N,GND*
G04 #@! TO.P,J2,3,3*
X6794994Y-27195512D03*
G04 #@! TO.N,PIXELS*
G04 #@! TO.P,J2,2,2*
X4254994Y-27195512D03*
D15*
G04 #@! TO.N,BUTTONS*
G04 #@! TO.C,R3*
G04 #@! TO.P,R3,2,2*
X24463464Y3376838D03*
G04 #@! TO.N,N3*
G04 #@! TO.P,R3,1,1*
X32083464Y3376838D03*
D14*
G04 #@! TO.N,GND*
G04 #@! TO.C,S1*
G04 #@! TO.P,S1,1,1*
X-25275000Y20665000D03*
G04 #@! TO.N,N1*
G04 #@! TO.P,S1,2,2*
X-25275000Y16165000D03*
G04 #@! TO.P,S1,3,2*
X-31875000Y16165000D03*
G04 #@! TO.N,GND*
G04 #@! TO.P,S1,4,1*
X-31875000Y20665000D03*
D12*
G04 #@! TO.C,C3*
G04 #@! TO.P,C3,-,-*
X26807738Y9980182D03*
D13*
G04 #@! TO.N,N3*
G04 #@! TO.P,C3,+,+*
X29307738Y9980182D03*
D12*
G04 #@! TO.N,GND*
G04 #@! TO.C,C5*
G04 #@! TO.P,C5,-,-*
X17777216Y5181868D03*
D13*
G04 #@! TO.N,VCC_3V3*
G04 #@! TO.P,C5,+,+*
X17777216Y7681868D03*
D14*
G04 #@! TO.N,N/C*
G04 #@! TO.C,U1*
G04 #@! TO.P,U1,3,TX*
X-11350000Y12730000D03*
G04 #@! TO.N,VCC_3V3*
G04 #@! TO.P,U1,10,3V3*
X-11350000Y-5050000D03*
G04 #@! TO.P,U1,28,RST*
X11510000Y12730000D03*
G04 #@! TO.P,U1,26,3V3*
X11510000Y7650000D03*
G04 #@! TO.N,N/C*
G04 #@! TO.P,U1,8,D5*
X-11350000Y30000D03*
G04 #@! TO.P,U1,6,D7*
X-11350000Y5110000D03*
G04 #@! TO.P,U1,24,CLK*
X11510000Y2570000D03*
G04 #@! TO.P,U1,23,SDO*
X11510000Y30000D03*
G04 #@! TO.P,U1,5,D8*
X-11350000Y7650000D03*
G04 #@! TO.N,BUTTONS*
G04 #@! TO.P,U1,11,D4*
X-11350000Y-7590000D03*
G04 #@! TO.N,N/C*
G04 #@! TO.P,U1,20,SD2*
X11510000Y-7590000D03*
G04 #@! TO.P,U1,16,A0*
X11510000Y-17750000D03*
G04 #@! TO.P,U1,27,EN*
X11510000Y10190000D03*
G04 #@! TO.N,GND*
G04 #@! TO.P,U1,25,GND*
X11510000Y5110000D03*
G04 #@! TO.N,SCL*
G04 #@! TO.P,U1,14,D1*
X-11350000Y-15210000D03*
G04 #@! TO.N,VCC*
G04 #@! TO.P,U1,30,Vin*
X11510000Y17810000D03*
G04 #@! TO.N,N/C*
G04 #@! TO.P,U1,18*
X11510000Y-12670000D03*
G04 #@! TO.N,GND*
G04 #@! TO.P,U1,2,GND*
X-11350000Y15270000D03*
G04 #@! TO.N,N/C*
G04 #@! TO.P,U1,21,SD1*
X11510000Y-5050000D03*
G04 #@! TO.P,U1,22,CMD*
X11510000Y-2510000D03*
G04 #@! TO.N,GND*
G04 #@! TO.P,U1,29,GND*
X11510000Y15270000D03*
G04 #@! TO.N,N/C*
G04 #@! TO.P,U1,17*
X11510000Y-15210000D03*
G04 #@! TO.N,SDA*
G04 #@! TO.P,U1,13,D2*
X-11350000Y-12670000D03*
G04 #@! TO.N,VCC_3V3*
G04 #@! TO.P,U1,1,3V3*
X-11350000Y17810000D03*
G04 #@! TO.N,N/C*
G04 #@! TO.P,U1,15,D0*
X-11350000Y-17750000D03*
G04 #@! TO.P,U1,4,RX*
X-11350000Y10190000D03*
G04 #@! TO.P,U1,19,SD3*
X11510000Y-10130000D03*
G04 #@! TO.N,GND*
G04 #@! TO.P,U1,9,GND*
X-11350000Y-2510000D03*
G04 #@! TO.N,N/C*
G04 #@! TO.P,U1,7,D6*
X-11350000Y2570000D03*
G04 #@! TO.N,PIXELS*
G04 #@! TO.P,U1,12,D3*
X-11350000Y-10130000D03*
D15*
G04 #@! TO.N,BUTTONS*
G04 #@! TO.C,R1*
G04 #@! TO.P,R1,2,2*
X-24765000Y3175000D03*
G04 #@! TO.N,N1*
G04 #@! TO.P,R1,1,1*
X-32385000Y3175000D03*
G04 #@! TO.N,BUTTONS*
G04 #@! TO.C,R2*
G04 #@! TO.P,R2,2,2*
X-24765000Y-4445000D03*
G04 #@! TO.N,N2*
G04 #@! TO.P,R2,1,1*
X-32385000Y-4445000D03*
D12*
G04 #@! TO.N,GND*
G04 #@! TO.C,C1*
G04 #@! TO.P,C1,-,-*
X-27325000Y9525000D03*
D13*
G04 #@! TO.N,N1*
G04 #@! TO.P,C1,+,+*
X-29825000Y9525000D03*
D14*
G04 #@! TO.N,GND*
G04 #@! TO.C,S2*
G04 #@! TO.P,S2,1,1*
X-25275000Y-16165000D03*
G04 #@! TO.N,N2*
G04 #@! TO.P,S2,2,2*
X-25275000Y-20665000D03*
G04 #@! TO.P,S2,3,2*
X-31875000Y-20665000D03*
G04 #@! TO.N,GND*
G04 #@! TO.P,S2,4,1*
X-31875000Y-16165000D03*
D16*
G04 #@! TD.C*
G04 #@! TD.P*
G04 #@! TO.N,VCC*
X-635000Y-3810000D03*
X-635000Y-13335000D03*
D17*
X-635000Y-13335000D02*
X-635000Y-3810000D01*
D16*
G04 #@! TO.N,BUTTONS*
X5080000Y-3810000D03*
X15240000Y-3810000D03*
D17*
X15240000Y-3810000D02*
X5080000Y-3810000D01*
G04 --- BOARD END --- *
G04 #@! TF.MD5,f5e3e1ab99f2ef79009bc1e905e2e6d4*
M02*
