M48
; #@! TF.GenerationSoftware,LibrePCB,LibrePCB,0.1.6
; #@! TF.CreationDate,2022-09-15T14:24:29
; #@! TF.ProjectId,D&D Alerter,e525b3f6-46db-4784-bcd4-d1e7e9f5ff90,v1
; #@! TF.Part,Single
; #@! TF.SameCoordinates
; #@! TF.FileFunction,Plated,1,2,PTH
FMAT,2
METRIC,TZ
; #@! TA.AperFunction,ViaDrill
T1C0.5
; #@! TA.AperFunction,ComponentDrill
T2C0.7
; #@! TA.AperFunction,ComponentDrill
T3C0.8
; #@! TA.AperFunction,ComponentDrill
T4C0.8128
; #@! TA.AperFunction,ComponentDrill
T5C1.0
%
G90
G05
M71
T1
X15.24Y-3.81
X5.08Y-3.81
X-0.635Y-13.335
X-0.635Y-3.81
T2
X-29.825Y9.525
X-27.325Y9.525
X17.777216Y7.681868
X17.777216Y5.181868
X29.307738Y9.980182
X26.807738Y9.980182
X-29.825Y-10.16
X-27.325Y-10.16
X29.567224Y-10.404236
X27.067224Y-10.404236
T3
X-31.875Y-16.165
X-31.875Y-20.665
X-25.275Y-20.665
X-25.275Y-16.165
X-11.35Y-10.13
X-11.35Y2.57
X-11.35Y-2.51
X11.51Y-10.13
X-11.35Y10.19
X-11.35Y-17.75
X-11.35Y17.81
X-11.35Y-12.67
X11.51Y-15.21
X11.51Y15.27
X11.51Y-2.51
X11.51Y-5.05
X-11.35Y15.27
X11.51Y-12.67
X11.51Y17.81
X-11.35Y-15.21
X11.51Y5.11
X11.51Y10.19
X11.51Y-17.75
X11.51Y-7.59
X-11.35Y-7.59
X-11.35Y7.65
X11.51Y0.03
X11.51Y2.57
X-11.35Y5.11
X-11.35Y0.03
X11.51Y7.65
X11.51Y12.73
X-11.35Y-5.05
X-11.35Y12.73
X-31.875Y20.665
X-31.875Y16.165
X-25.275Y16.165
X-25.275Y20.665
X25.275Y-16.165
X25.275Y-20.665
X31.875Y-20.665
X31.875Y-16.165
X25.275Y20.665
X25.275Y16.165
X31.875Y16.165
X31.875Y20.665
T4
X-32.385Y-4.445
X-24.765Y-4.445
X-32.385Y3.175
X-24.765Y3.175
X32.083464Y3.376838
X24.463464Y3.376838
X32.313986Y-4.683548
X24.693986Y-4.683548
T5
X4.254994Y-27.195512
X6.794994Y-27.195512
X1.714994Y-27.195512
X-9.969596Y-27.121428
X-12.509596Y-27.121428
X-4.889596Y-27.121428
X-7.429596Y-27.121428
T0
M30
